G04 #@! TF.GenerationSoftware,KiCad,Pcbnew,8.0.6*
G04 #@! TF.CreationDate,2024-10-20T17:10:00+01:00*
G04 #@! TF.ProjectId,line-sensor-mini-kes,6c696e65-2d73-4656-9e73-6f722d6d696e,rev?*
G04 #@! TF.SameCoordinates,Original*
G04 #@! TF.FileFunction,Soldermask,Top*
G04 #@! TF.FilePolarity,Negative*
%FSLAX46Y46*%
G04 Gerber Fmt 4.6, Leading zero omitted, Abs format (unit mm)*
G04 Created by KiCad (PCBNEW 8.0.6) date 2024-10-20 17:10:00*
%MOMM*%
%LPD*%
G01*
G04 APERTURE LIST*
%ADD10R,1.800000X1.800000*%
%ADD11C,1.800000*%
%ADD12C,1.600000*%
%ADD13O,1.600000X1.600000*%
%ADD14C,3.200000*%
%ADD15R,1.600000X1.600000*%
%ADD16R,1.700000X1.700000*%
%ADD17O,1.700000X1.700000*%
G04 APERTURE END LIST*
D10*
X152000000Y-130000000D03*
D11*
X152000000Y-127460000D03*
X152000000Y-124920000D03*
D12*
X157000000Y-112000000D03*
D13*
X164620000Y-112000000D03*
D12*
X157000000Y-116000000D03*
D13*
X164620000Y-116000000D03*
D12*
X157000000Y-98000000D03*
D13*
X164620000Y-98000000D03*
D12*
X147000000Y-142000000D03*
D13*
X154620000Y-142000000D03*
D14*
X144370000Y-129130000D03*
D10*
X158000000Y-136000000D03*
D11*
X160540000Y-136000000D03*
D12*
X147000000Y-72000000D03*
D13*
X154620000Y-72000000D03*
D12*
X157000000Y-128000000D03*
D13*
X164620000Y-128000000D03*
D12*
X147000000Y-134000000D03*
D13*
X154620000Y-134000000D03*
D10*
X158000000Y-74000000D03*
D11*
X160540000Y-74000000D03*
D12*
X147000000Y-68000000D03*
D13*
X154620000Y-68000000D03*
D12*
X147000000Y-138000000D03*
D13*
X154620000Y-138000000D03*
D14*
X144370000Y-80870000D03*
D15*
X159400000Y-106788614D03*
X161000000Y-106117677D03*
D12*
X161000000Y-103617677D03*
X162600000Y-102946740D03*
X157000000Y-132000000D03*
D13*
X164620000Y-132000000D03*
D12*
X147000000Y-76000000D03*
D13*
X154620000Y-76000000D03*
D12*
X157000000Y-86000000D03*
D13*
X164620000Y-86000000D03*
D10*
X140750000Y-74000000D03*
D11*
X143290000Y-74000000D03*
D10*
X151030000Y-100000000D03*
D11*
X153570000Y-100000000D03*
D10*
X151425000Y-105000000D03*
D11*
X153965000Y-105000000D03*
D10*
X140730000Y-142000000D03*
D11*
X143270000Y-142000000D03*
D10*
X140750000Y-136000000D03*
D11*
X143290000Y-136000000D03*
D16*
X142000000Y-88490000D03*
D17*
X142000000Y-91030000D03*
X142000000Y-93570000D03*
X142000000Y-96110000D03*
X142000000Y-98650000D03*
X142000000Y-101190000D03*
X142000000Y-103730000D03*
X142000000Y-106270000D03*
X142000000Y-108810000D03*
X142000000Y-111350000D03*
X142000000Y-113890000D03*
X142000000Y-116430000D03*
X142000000Y-118970000D03*
X142000000Y-121510000D03*
D10*
X140730000Y-68000000D03*
D11*
X143270000Y-68000000D03*
D10*
X151130000Y-110000000D03*
D11*
X153670000Y-110000000D03*
M02*
