M48
; DRILL file {KiCad 8.0.6} date 2024-10-20T17:13:09+0100
; FORMAT={-:-/ absolute / metric / decimal}
; #@! TF.CreationDate,2024-10-20T17:13:09+01:00
; #@! TF.GenerationSoftware,Kicad,Pcbnew,8.0.6
; #@! TF.FileFunction,Plated,1,2,PTH
FMAT,2
METRIC
; #@! TA.AperFunction,Plated,PTH,ViaDrill
T1C0.400
; #@! TA.AperFunction,Plated,PTH,ComponentDrill
T2C0.800
; #@! TA.AperFunction,Plated,PTH,ComponentDrill
T3C0.900
; #@! TA.AperFunction,Plated,PTH,ComponentDrill
T4C1.000
%
G90
G05
T1
X141.0Y-123.6
X141.9Y-77.8
X147.9Y-112.2
X150.0Y-89.0
X150.0Y-94.0
X150.0Y-112.2
X156.2Y-106.9
X156.2Y-108.9
T2
X147.0Y-68.0
X147.0Y-72.0
X147.0Y-76.0
X147.0Y-134.0
X147.0Y-138.0
X147.0Y-142.0
X152.0Y-124.92
X152.0Y-127.46
X152.0Y-130.0
X154.62Y-68.0
X154.62Y-72.0
X154.62Y-76.0
X154.62Y-134.0
X154.62Y-138.0
X154.62Y-142.0
X157.0Y-86.0
X157.0Y-98.0
X157.0Y-112.0
X157.0Y-116.0
X157.0Y-128.0
X157.0Y-132.0
X159.4Y-106.789
X161.0Y-103.618
X161.0Y-106.118
X162.6Y-102.947
X164.62Y-86.0
X164.62Y-98.0
X164.62Y-112.0
X164.62Y-116.0
X164.62Y-128.0
X164.62Y-132.0
T3
X140.73Y-68.0
X140.73Y-142.0
X140.75Y-74.0
X140.75Y-136.0
X143.27Y-68.0
X143.27Y-142.0
X143.29Y-74.0
X143.29Y-136.0
X151.03Y-100.0
X151.13Y-110.0
X151.425Y-105.0
X153.57Y-100.0
X153.67Y-110.0
X153.965Y-105.0
X158.0Y-74.0
X158.0Y-136.0
X160.54Y-74.0
X160.54Y-136.0
T4
X142.0Y-88.49
X142.0Y-91.03
X142.0Y-93.57
X142.0Y-96.11
X142.0Y-98.65
X142.0Y-101.19
X142.0Y-103.73
X142.0Y-106.27
X142.0Y-108.81
X142.0Y-111.35
X142.0Y-113.89
X142.0Y-116.43
X142.0Y-118.97
X142.0Y-121.51
M30
