%TF.GenerationSoftware,KiCad,Pcbnew,8.0.6*%
%TF.CreationDate,2024-10-20T17:13:29+01:00*%
%TF.ProjectId,line-sensor-mini-kes,6c696e65-2d73-4656-9e73-6f722d6d696e,rev?*%
%TF.SameCoordinates,Original*%
%TF.FileFunction,Drillmap*%
%TF.FilePolarity,Positive*%
%FSLAX45Y45*%
G04 Gerber Fmt 4.5, Leading zero omitted, Abs format (unit mm)*
G04 Created by KiCad (PCBNEW 8.0.6) date 2024-10-20 17:13:29*
%MOMM*%
%LPD*%
G01*
G04 APERTURE LIST*
%ADD10C,0.100000*%
%ADD11C,0.200000*%
G04 APERTURE END LIST*
D10*
X15453000Y-6436000D02*
X16723000Y-7706000D01*
X16723000Y-13294000D02*
X15453000Y-14564000D01*
X16723000Y-7706000D02*
X16723000Y-13294000D01*
X15453000Y-14564000D02*
X13852800Y-14564000D01*
X13852800Y-6436000D02*
X15453000Y-6436000D01*
X13852800Y-14564000D02*
X13852800Y-6436000D01*
D11*
D10*
X14080000Y-12340000D02*
X14120000Y-12380000D01*
X14120000Y-12340000D02*
X14080000Y-12380000D01*
X14170000Y-7760000D02*
X14210000Y-7800000D01*
X14210000Y-7760000D02*
X14170000Y-7800000D01*
X14770000Y-11200000D02*
X14810000Y-11240000D01*
X14810000Y-11200000D02*
X14770000Y-11240000D01*
X14980000Y-8880000D02*
X15020000Y-8920000D01*
X15020000Y-8880000D02*
X14980000Y-8920000D01*
X14980000Y-9380000D02*
X15020000Y-9420000D01*
X15020000Y-9380000D02*
X14980000Y-9420000D01*
X14980000Y-11200000D02*
X15020000Y-11240000D01*
X15020000Y-11200000D02*
X14980000Y-11240000D01*
X15600000Y-10670000D02*
X15640000Y-10710000D01*
X15640000Y-10670000D02*
X15600000Y-10710000D01*
X15600000Y-10870000D02*
X15640000Y-10910000D01*
X15640000Y-10870000D02*
X15600000Y-10910000D01*
X14740000Y-6800000D02*
G75*
G02*
X14660000Y-6800000I-40000J0D01*
G01*
X14660000Y-6800000D02*
G75*
G02*
X14740000Y-6800000I40000J0D01*
G01*
X14740000Y-7200000D02*
G75*
G02*
X14660000Y-7200000I-40000J0D01*
G01*
X14660000Y-7200000D02*
G75*
G02*
X14740000Y-7200000I40000J0D01*
G01*
X14740000Y-7600000D02*
G75*
G02*
X14660000Y-7600000I-40000J0D01*
G01*
X14660000Y-7600000D02*
G75*
G02*
X14740000Y-7600000I40000J0D01*
G01*
X14740000Y-13400000D02*
G75*
G02*
X14660000Y-13400000I-40000J0D01*
G01*
X14660000Y-13400000D02*
G75*
G02*
X14740000Y-13400000I40000J0D01*
G01*
X14740000Y-13800000D02*
G75*
G02*
X14660000Y-13800000I-40000J0D01*
G01*
X14660000Y-13800000D02*
G75*
G02*
X14740000Y-13800000I40000J0D01*
G01*
X14740000Y-14200000D02*
G75*
G02*
X14660000Y-14200000I-40000J0D01*
G01*
X14660000Y-14200000D02*
G75*
G02*
X14740000Y-14200000I40000J0D01*
G01*
X15240000Y-12492000D02*
G75*
G02*
X15160000Y-12492000I-40000J0D01*
G01*
X15160000Y-12492000D02*
G75*
G02*
X15240000Y-12492000I40000J0D01*
G01*
X15240000Y-12746000D02*
G75*
G02*
X15160000Y-12746000I-40000J0D01*
G01*
X15160000Y-12746000D02*
G75*
G02*
X15240000Y-12746000I40000J0D01*
G01*
X15240000Y-13000000D02*
G75*
G02*
X15160000Y-13000000I-40000J0D01*
G01*
X15160000Y-13000000D02*
G75*
G02*
X15240000Y-13000000I40000J0D01*
G01*
X15502000Y-6800000D02*
G75*
G02*
X15422000Y-6800000I-40000J0D01*
G01*
X15422000Y-6800000D02*
G75*
G02*
X15502000Y-6800000I40000J0D01*
G01*
X15502000Y-7200000D02*
G75*
G02*
X15422000Y-7200000I-40000J0D01*
G01*
X15422000Y-7200000D02*
G75*
G02*
X15502000Y-7200000I40000J0D01*
G01*
X15502000Y-7600000D02*
G75*
G02*
X15422000Y-7600000I-40000J0D01*
G01*
X15422000Y-7600000D02*
G75*
G02*
X15502000Y-7600000I40000J0D01*
G01*
X15502000Y-13400000D02*
G75*
G02*
X15422000Y-13400000I-40000J0D01*
G01*
X15422000Y-13400000D02*
G75*
G02*
X15502000Y-13400000I40000J0D01*
G01*
X15502000Y-13800000D02*
G75*
G02*
X15422000Y-13800000I-40000J0D01*
G01*
X15422000Y-13800000D02*
G75*
G02*
X15502000Y-13800000I40000J0D01*
G01*
X15502000Y-14200000D02*
G75*
G02*
X15422000Y-14200000I-40000J0D01*
G01*
X15422000Y-14200000D02*
G75*
G02*
X15502000Y-14200000I40000J0D01*
G01*
X15740000Y-8600000D02*
G75*
G02*
X15660000Y-8600000I-40000J0D01*
G01*
X15660000Y-8600000D02*
G75*
G02*
X15740000Y-8600000I40000J0D01*
G01*
X15740000Y-9800000D02*
G75*
G02*
X15660000Y-9800000I-40000J0D01*
G01*
X15660000Y-9800000D02*
G75*
G02*
X15740000Y-9800000I40000J0D01*
G01*
X15740000Y-11200000D02*
G75*
G02*
X15660000Y-11200000I-40000J0D01*
G01*
X15660000Y-11200000D02*
G75*
G02*
X15740000Y-11200000I40000J0D01*
G01*
X15740000Y-11600000D02*
G75*
G02*
X15660000Y-11600000I-40000J0D01*
G01*
X15660000Y-11600000D02*
G75*
G02*
X15740000Y-11600000I40000J0D01*
G01*
X15740000Y-12800000D02*
G75*
G02*
X15660000Y-12800000I-40000J0D01*
G01*
X15660000Y-12800000D02*
G75*
G02*
X15740000Y-12800000I40000J0D01*
G01*
X15740000Y-13200000D02*
G75*
G02*
X15660000Y-13200000I-40000J0D01*
G01*
X15660000Y-13200000D02*
G75*
G02*
X15740000Y-13200000I40000J0D01*
G01*
X15980000Y-10678861D02*
G75*
G02*
X15900000Y-10678861I-40000J0D01*
G01*
X15900000Y-10678861D02*
G75*
G02*
X15980000Y-10678861I40000J0D01*
G01*
X16140000Y-10361768D02*
G75*
G02*
X16060000Y-10361768I-40000J0D01*
G01*
X16060000Y-10361768D02*
G75*
G02*
X16140000Y-10361768I40000J0D01*
G01*
X16140000Y-10611768D02*
G75*
G02*
X16060000Y-10611768I-40000J0D01*
G01*
X16060000Y-10611768D02*
G75*
G02*
X16140000Y-10611768I40000J0D01*
G01*
X16300000Y-10294674D02*
G75*
G02*
X16220000Y-10294674I-40000J0D01*
G01*
X16220000Y-10294674D02*
G75*
G02*
X16300000Y-10294674I40000J0D01*
G01*
X16502000Y-8600000D02*
G75*
G02*
X16422000Y-8600000I-40000J0D01*
G01*
X16422000Y-8600000D02*
G75*
G02*
X16502000Y-8600000I40000J0D01*
G01*
X16502000Y-9800000D02*
G75*
G02*
X16422000Y-9800000I-40000J0D01*
G01*
X16422000Y-9800000D02*
G75*
G02*
X16502000Y-9800000I40000J0D01*
G01*
X16502000Y-11200000D02*
G75*
G02*
X16422000Y-11200000I-40000J0D01*
G01*
X16422000Y-11200000D02*
G75*
G02*
X16502000Y-11200000I40000J0D01*
G01*
X16502000Y-11600000D02*
G75*
G02*
X16422000Y-11600000I-40000J0D01*
G01*
X16422000Y-11600000D02*
G75*
G02*
X16502000Y-11600000I40000J0D01*
G01*
X16502000Y-12800000D02*
G75*
G02*
X16422000Y-12800000I-40000J0D01*
G01*
X16422000Y-12800000D02*
G75*
G02*
X16502000Y-12800000I40000J0D01*
G01*
X16502000Y-13200000D02*
G75*
G02*
X16422000Y-13200000I-40000J0D01*
G01*
X16422000Y-13200000D02*
G75*
G02*
X16502000Y-13200000I40000J0D01*
G01*
X14073000Y-6755000D02*
X14073000Y-6845000D01*
X14028000Y-6800000D02*
X14118000Y-6800000D01*
X14073000Y-14155000D02*
X14073000Y-14245000D01*
X14028000Y-14200000D02*
X14118000Y-14200000D01*
X14075000Y-7355000D02*
X14075000Y-7445000D01*
X14030000Y-7400000D02*
X14120000Y-7400000D01*
X14075000Y-13555000D02*
X14075000Y-13645000D01*
X14030000Y-13600000D02*
X14120000Y-13600000D01*
X14327000Y-6755000D02*
X14327000Y-6845000D01*
X14282000Y-6800000D02*
X14372000Y-6800000D01*
X14327000Y-14155000D02*
X14327000Y-14245000D01*
X14282000Y-14200000D02*
X14372000Y-14200000D01*
X14329000Y-7355000D02*
X14329000Y-7445000D01*
X14284000Y-7400000D02*
X14374000Y-7400000D01*
X14329000Y-13555000D02*
X14329000Y-13645000D01*
X14284000Y-13600000D02*
X14374000Y-13600000D01*
X15103000Y-9955000D02*
X15103000Y-10045000D01*
X15058000Y-10000000D02*
X15148000Y-10000000D01*
X15113000Y-10955000D02*
X15113000Y-11045000D01*
X15068000Y-11000000D02*
X15158000Y-11000000D01*
X15142500Y-10455000D02*
X15142500Y-10545000D01*
X15097500Y-10500000D02*
X15187500Y-10500000D01*
X15357000Y-9955000D02*
X15357000Y-10045000D01*
X15312000Y-10000000D02*
X15402000Y-10000000D01*
X15367000Y-10955000D02*
X15367000Y-11045000D01*
X15322000Y-11000000D02*
X15412000Y-11000000D01*
X15396500Y-10455000D02*
X15396500Y-10545000D01*
X15351500Y-10500000D02*
X15441500Y-10500000D01*
X15800000Y-7355000D02*
X15800000Y-7445000D01*
X15755000Y-7400000D02*
X15845000Y-7400000D01*
X15800000Y-13555000D02*
X15800000Y-13645000D01*
X15755000Y-13600000D02*
X15845000Y-13600000D01*
X16054000Y-7355000D02*
X16054000Y-7445000D01*
X16009000Y-7400000D02*
X16099000Y-7400000D01*
X16054000Y-13555000D02*
X16054000Y-13645000D01*
X16009000Y-13600000D02*
X16099000Y-13600000D01*
X14235356Y-8884356D02*
X14235356Y-8813644D01*
X14164644Y-8813644D01*
X14164644Y-8884356D01*
X14235356Y-8884356D01*
X14235356Y-9138356D02*
X14235356Y-9067644D01*
X14164644Y-9067644D01*
X14164644Y-9138356D01*
X14235356Y-9138356D01*
X14235356Y-9392356D02*
X14235356Y-9321644D01*
X14164644Y-9321644D01*
X14164644Y-9392356D01*
X14235356Y-9392356D01*
X14235356Y-9646356D02*
X14235356Y-9575644D01*
X14164644Y-9575644D01*
X14164644Y-9646356D01*
X14235356Y-9646356D01*
X14235356Y-9900356D02*
X14235356Y-9829644D01*
X14164644Y-9829644D01*
X14164644Y-9900356D01*
X14235356Y-9900356D01*
X14235356Y-10154356D02*
X14235356Y-10083644D01*
X14164644Y-10083644D01*
X14164644Y-10154356D01*
X14235356Y-10154356D01*
X14235356Y-10408356D02*
X14235356Y-10337644D01*
X14164644Y-10337644D01*
X14164644Y-10408356D01*
X14235356Y-10408356D01*
X14235356Y-10662356D02*
X14235356Y-10591644D01*
X14164644Y-10591644D01*
X14164644Y-10662356D01*
X14235356Y-10662356D01*
X14235356Y-10916356D02*
X14235356Y-10845644D01*
X14164644Y-10845644D01*
X14164644Y-10916356D01*
X14235356Y-10916356D01*
X14235356Y-11170356D02*
X14235356Y-11099644D01*
X14164644Y-11099644D01*
X14164644Y-11170356D01*
X14235356Y-11170356D01*
X14235356Y-11424356D02*
X14235356Y-11353644D01*
X14164644Y-11353644D01*
X14164644Y-11424356D01*
X14235356Y-11424356D01*
X14235356Y-11678356D02*
X14235356Y-11607644D01*
X14164644Y-11607644D01*
X14164644Y-11678356D01*
X14235356Y-11678356D01*
X14235356Y-11932356D02*
X14235356Y-11861644D01*
X14164644Y-11861644D01*
X14164644Y-11932356D01*
X14235356Y-11932356D01*
X14235356Y-12186356D02*
X14235356Y-12115644D01*
X14164644Y-12115644D01*
X14164644Y-12186356D01*
X14235356Y-12186356D01*
D11*
X14108577Y-14880484D02*
X14108577Y-14680484D01*
X14108577Y-14680484D02*
X14156196Y-14680484D01*
X14156196Y-14680484D02*
X14184767Y-14690008D01*
X14184767Y-14690008D02*
X14203815Y-14709055D01*
X14203815Y-14709055D02*
X14213339Y-14728103D01*
X14213339Y-14728103D02*
X14222862Y-14766198D01*
X14222862Y-14766198D02*
X14222862Y-14794769D01*
X14222862Y-14794769D02*
X14213339Y-14832865D01*
X14213339Y-14832865D02*
X14203815Y-14851912D01*
X14203815Y-14851912D02*
X14184767Y-14870960D01*
X14184767Y-14870960D02*
X14156196Y-14880484D01*
X14156196Y-14880484D02*
X14108577Y-14880484D01*
X14308577Y-14880484D02*
X14308577Y-14747150D01*
X14308577Y-14785246D02*
X14318101Y-14766198D01*
X14318101Y-14766198D02*
X14327624Y-14756674D01*
X14327624Y-14756674D02*
X14346672Y-14747150D01*
X14346672Y-14747150D02*
X14365720Y-14747150D01*
X14432386Y-14880484D02*
X14432386Y-14747150D01*
X14432386Y-14680484D02*
X14422862Y-14690008D01*
X14422862Y-14690008D02*
X14432386Y-14699531D01*
X14432386Y-14699531D02*
X14441910Y-14690008D01*
X14441910Y-14690008D02*
X14432386Y-14680484D01*
X14432386Y-14680484D02*
X14432386Y-14699531D01*
X14556196Y-14880484D02*
X14537148Y-14870960D01*
X14537148Y-14870960D02*
X14527624Y-14851912D01*
X14527624Y-14851912D02*
X14527624Y-14680484D01*
X14660958Y-14880484D02*
X14641910Y-14870960D01*
X14641910Y-14870960D02*
X14632386Y-14851912D01*
X14632386Y-14851912D02*
X14632386Y-14680484D01*
X14889529Y-14880484D02*
X14889529Y-14680484D01*
X14889529Y-14680484D02*
X14956196Y-14823341D01*
X14956196Y-14823341D02*
X15022862Y-14680484D01*
X15022862Y-14680484D02*
X15022862Y-14880484D01*
X15203815Y-14880484D02*
X15203815Y-14775722D01*
X15203815Y-14775722D02*
X15194291Y-14756674D01*
X15194291Y-14756674D02*
X15175243Y-14747150D01*
X15175243Y-14747150D02*
X15137148Y-14747150D01*
X15137148Y-14747150D02*
X15118101Y-14756674D01*
X15203815Y-14870960D02*
X15184767Y-14880484D01*
X15184767Y-14880484D02*
X15137148Y-14880484D01*
X15137148Y-14880484D02*
X15118101Y-14870960D01*
X15118101Y-14870960D02*
X15108577Y-14851912D01*
X15108577Y-14851912D02*
X15108577Y-14832865D01*
X15108577Y-14832865D02*
X15118101Y-14813817D01*
X15118101Y-14813817D02*
X15137148Y-14804293D01*
X15137148Y-14804293D02*
X15184767Y-14804293D01*
X15184767Y-14804293D02*
X15203815Y-14794769D01*
X15299053Y-14747150D02*
X15299053Y-14947150D01*
X15299053Y-14756674D02*
X15318101Y-14747150D01*
X15318101Y-14747150D02*
X15356196Y-14747150D01*
X15356196Y-14747150D02*
X15375243Y-14756674D01*
X15375243Y-14756674D02*
X15384767Y-14766198D01*
X15384767Y-14766198D02*
X15394291Y-14785246D01*
X15394291Y-14785246D02*
X15394291Y-14842388D01*
X15394291Y-14842388D02*
X15384767Y-14861436D01*
X15384767Y-14861436D02*
X15375243Y-14870960D01*
X15375243Y-14870960D02*
X15356196Y-14880484D01*
X15356196Y-14880484D02*
X15318101Y-14880484D01*
X15318101Y-14880484D02*
X15299053Y-14870960D01*
X15480005Y-14861436D02*
X15489529Y-14870960D01*
X15489529Y-14870960D02*
X15480005Y-14880484D01*
X15480005Y-14880484D02*
X15470482Y-14870960D01*
X15470482Y-14870960D02*
X15480005Y-14861436D01*
X15480005Y-14861436D02*
X15480005Y-14880484D01*
X15480005Y-14756674D02*
X15489529Y-14766198D01*
X15489529Y-14766198D02*
X15480005Y-14775722D01*
X15480005Y-14775722D02*
X15470482Y-14766198D01*
X15470482Y-14766198D02*
X15480005Y-14756674D01*
X15480005Y-14756674D02*
X15480005Y-14775722D01*
D10*
X13807800Y-15189000D02*
X13847800Y-15229000D01*
X13847800Y-15189000D02*
X13807800Y-15229000D01*
D11*
X14146672Y-15100484D02*
X14165720Y-15100484D01*
X14165720Y-15100484D02*
X14184767Y-15110008D01*
X14184767Y-15110008D02*
X14194291Y-15119531D01*
X14194291Y-15119531D02*
X14203815Y-15138579D01*
X14203815Y-15138579D02*
X14213339Y-15176674D01*
X14213339Y-15176674D02*
X14213339Y-15224293D01*
X14213339Y-15224293D02*
X14203815Y-15262388D01*
X14203815Y-15262388D02*
X14194291Y-15281436D01*
X14194291Y-15281436D02*
X14184767Y-15290960D01*
X14184767Y-15290960D02*
X14165720Y-15300484D01*
X14165720Y-15300484D02*
X14146672Y-15300484D01*
X14146672Y-15300484D02*
X14127624Y-15290960D01*
X14127624Y-15290960D02*
X14118101Y-15281436D01*
X14118101Y-15281436D02*
X14108577Y-15262388D01*
X14108577Y-15262388D02*
X14099053Y-15224293D01*
X14099053Y-15224293D02*
X14099053Y-15176674D01*
X14099053Y-15176674D02*
X14108577Y-15138579D01*
X14108577Y-15138579D02*
X14118101Y-15119531D01*
X14118101Y-15119531D02*
X14127624Y-15110008D01*
X14127624Y-15110008D02*
X14146672Y-15100484D01*
X14299053Y-15281436D02*
X14308577Y-15290960D01*
X14308577Y-15290960D02*
X14299053Y-15300484D01*
X14299053Y-15300484D02*
X14289529Y-15290960D01*
X14289529Y-15290960D02*
X14299053Y-15281436D01*
X14299053Y-15281436D02*
X14299053Y-15300484D01*
X14480005Y-15167150D02*
X14480005Y-15300484D01*
X14432386Y-15090960D02*
X14384767Y-15233817D01*
X14384767Y-15233817D02*
X14508577Y-15233817D01*
X14622862Y-15100484D02*
X14641910Y-15100484D01*
X14641910Y-15100484D02*
X14660958Y-15110008D01*
X14660958Y-15110008D02*
X14670482Y-15119531D01*
X14670482Y-15119531D02*
X14680005Y-15138579D01*
X14680005Y-15138579D02*
X14689529Y-15176674D01*
X14689529Y-15176674D02*
X14689529Y-15224293D01*
X14689529Y-15224293D02*
X14680005Y-15262388D01*
X14680005Y-15262388D02*
X14670482Y-15281436D01*
X14670482Y-15281436D02*
X14660958Y-15290960D01*
X14660958Y-15290960D02*
X14641910Y-15300484D01*
X14641910Y-15300484D02*
X14622862Y-15300484D01*
X14622862Y-15300484D02*
X14603815Y-15290960D01*
X14603815Y-15290960D02*
X14594291Y-15281436D01*
X14594291Y-15281436D02*
X14584767Y-15262388D01*
X14584767Y-15262388D02*
X14575243Y-15224293D01*
X14575243Y-15224293D02*
X14575243Y-15176674D01*
X14575243Y-15176674D02*
X14584767Y-15138579D01*
X14584767Y-15138579D02*
X14594291Y-15119531D01*
X14594291Y-15119531D02*
X14603815Y-15110008D01*
X14603815Y-15110008D02*
X14622862Y-15100484D01*
X14813339Y-15100484D02*
X14832386Y-15100484D01*
X14832386Y-15100484D02*
X14851434Y-15110008D01*
X14851434Y-15110008D02*
X14860958Y-15119531D01*
X14860958Y-15119531D02*
X14870482Y-15138579D01*
X14870482Y-15138579D02*
X14880005Y-15176674D01*
X14880005Y-15176674D02*
X14880005Y-15224293D01*
X14880005Y-15224293D02*
X14870482Y-15262388D01*
X14870482Y-15262388D02*
X14860958Y-15281436D01*
X14860958Y-15281436D02*
X14851434Y-15290960D01*
X14851434Y-15290960D02*
X14832386Y-15300484D01*
X14832386Y-15300484D02*
X14813339Y-15300484D01*
X14813339Y-15300484D02*
X14794291Y-15290960D01*
X14794291Y-15290960D02*
X14784767Y-15281436D01*
X14784767Y-15281436D02*
X14775243Y-15262388D01*
X14775243Y-15262388D02*
X14765720Y-15224293D01*
X14765720Y-15224293D02*
X14765720Y-15176674D01*
X14765720Y-15176674D02*
X14775243Y-15138579D01*
X14775243Y-15138579D02*
X14784767Y-15119531D01*
X14784767Y-15119531D02*
X14794291Y-15110008D01*
X14794291Y-15110008D02*
X14813339Y-15100484D01*
X14965720Y-15300484D02*
X14965720Y-15167150D01*
X14965720Y-15186198D02*
X14975243Y-15176674D01*
X14975243Y-15176674D02*
X14994291Y-15167150D01*
X14994291Y-15167150D02*
X15022863Y-15167150D01*
X15022863Y-15167150D02*
X15041910Y-15176674D01*
X15041910Y-15176674D02*
X15051434Y-15195722D01*
X15051434Y-15195722D02*
X15051434Y-15300484D01*
X15051434Y-15195722D02*
X15060958Y-15176674D01*
X15060958Y-15176674D02*
X15080005Y-15167150D01*
X15080005Y-15167150D02*
X15108577Y-15167150D01*
X15108577Y-15167150D02*
X15127624Y-15176674D01*
X15127624Y-15176674D02*
X15137148Y-15195722D01*
X15137148Y-15195722D02*
X15137148Y-15300484D01*
X15232386Y-15300484D02*
X15232386Y-15167150D01*
X15232386Y-15186198D02*
X15241910Y-15176674D01*
X15241910Y-15176674D02*
X15260958Y-15167150D01*
X15260958Y-15167150D02*
X15289529Y-15167150D01*
X15289529Y-15167150D02*
X15308577Y-15176674D01*
X15308577Y-15176674D02*
X15318101Y-15195722D01*
X15318101Y-15195722D02*
X15318101Y-15300484D01*
X15318101Y-15195722D02*
X15327624Y-15176674D01*
X15327624Y-15176674D02*
X15346672Y-15167150D01*
X15346672Y-15167150D02*
X15375243Y-15167150D01*
X15375243Y-15167150D02*
X15394291Y-15176674D01*
X15394291Y-15176674D02*
X15403815Y-15195722D01*
X15403815Y-15195722D02*
X15403815Y-15300484D01*
X15794291Y-15090960D02*
X15622863Y-15348103D01*
X16051434Y-15100484D02*
X16070482Y-15100484D01*
X16070482Y-15100484D02*
X16089529Y-15110008D01*
X16089529Y-15110008D02*
X16099053Y-15119531D01*
X16099053Y-15119531D02*
X16108577Y-15138579D01*
X16108577Y-15138579D02*
X16118101Y-15176674D01*
X16118101Y-15176674D02*
X16118101Y-15224293D01*
X16118101Y-15224293D02*
X16108577Y-15262388D01*
X16108577Y-15262388D02*
X16099053Y-15281436D01*
X16099053Y-15281436D02*
X16089529Y-15290960D01*
X16089529Y-15290960D02*
X16070482Y-15300484D01*
X16070482Y-15300484D02*
X16051434Y-15300484D01*
X16051434Y-15300484D02*
X16032386Y-15290960D01*
X16032386Y-15290960D02*
X16022863Y-15281436D01*
X16022863Y-15281436D02*
X16013339Y-15262388D01*
X16013339Y-15262388D02*
X16003815Y-15224293D01*
X16003815Y-15224293D02*
X16003815Y-15176674D01*
X16003815Y-15176674D02*
X16013339Y-15138579D01*
X16013339Y-15138579D02*
X16022863Y-15119531D01*
X16022863Y-15119531D02*
X16032386Y-15110008D01*
X16032386Y-15110008D02*
X16051434Y-15100484D01*
X16203815Y-15281436D02*
X16213339Y-15290960D01*
X16213339Y-15290960D02*
X16203815Y-15300484D01*
X16203815Y-15300484D02*
X16194291Y-15290960D01*
X16194291Y-15290960D02*
X16203815Y-15281436D01*
X16203815Y-15281436D02*
X16203815Y-15300484D01*
X16337148Y-15100484D02*
X16356196Y-15100484D01*
X16356196Y-15100484D02*
X16375244Y-15110008D01*
X16375244Y-15110008D02*
X16384767Y-15119531D01*
X16384767Y-15119531D02*
X16394291Y-15138579D01*
X16394291Y-15138579D02*
X16403815Y-15176674D01*
X16403815Y-15176674D02*
X16403815Y-15224293D01*
X16403815Y-15224293D02*
X16394291Y-15262388D01*
X16394291Y-15262388D02*
X16384767Y-15281436D01*
X16384767Y-15281436D02*
X16375244Y-15290960D01*
X16375244Y-15290960D02*
X16356196Y-15300484D01*
X16356196Y-15300484D02*
X16337148Y-15300484D01*
X16337148Y-15300484D02*
X16318101Y-15290960D01*
X16318101Y-15290960D02*
X16308577Y-15281436D01*
X16308577Y-15281436D02*
X16299053Y-15262388D01*
X16299053Y-15262388D02*
X16289529Y-15224293D01*
X16289529Y-15224293D02*
X16289529Y-15176674D01*
X16289529Y-15176674D02*
X16299053Y-15138579D01*
X16299053Y-15138579D02*
X16308577Y-15119531D01*
X16308577Y-15119531D02*
X16318101Y-15110008D01*
X16318101Y-15110008D02*
X16337148Y-15100484D01*
X16594291Y-15300484D02*
X16480006Y-15300484D01*
X16537148Y-15300484D02*
X16537148Y-15100484D01*
X16537148Y-15100484D02*
X16518101Y-15129055D01*
X16518101Y-15129055D02*
X16499053Y-15148103D01*
X16499053Y-15148103D02*
X16480006Y-15157627D01*
X16775244Y-15100484D02*
X16680006Y-15100484D01*
X16680006Y-15100484D02*
X16670482Y-15195722D01*
X16670482Y-15195722D02*
X16680006Y-15186198D01*
X16680006Y-15186198D02*
X16699053Y-15176674D01*
X16699053Y-15176674D02*
X16746672Y-15176674D01*
X16746672Y-15176674D02*
X16765720Y-15186198D01*
X16765720Y-15186198D02*
X16775244Y-15195722D01*
X16775244Y-15195722D02*
X16784768Y-15214769D01*
X16784768Y-15214769D02*
X16784768Y-15262388D01*
X16784768Y-15262388D02*
X16775244Y-15281436D01*
X16775244Y-15281436D02*
X16765720Y-15290960D01*
X16765720Y-15290960D02*
X16746672Y-15300484D01*
X16746672Y-15300484D02*
X16699053Y-15300484D01*
X16699053Y-15300484D02*
X16680006Y-15290960D01*
X16680006Y-15290960D02*
X16670482Y-15281436D01*
X16851434Y-15100484D02*
X16984768Y-15100484D01*
X16984768Y-15100484D02*
X16899053Y-15300484D01*
X17051434Y-15100484D02*
X17051434Y-15138579D01*
X17127625Y-15100484D02*
X17127625Y-15138579D01*
X17422863Y-15376674D02*
X17413339Y-15367150D01*
X17413339Y-15367150D02*
X17394291Y-15338579D01*
X17394291Y-15338579D02*
X17384768Y-15319531D01*
X17384768Y-15319531D02*
X17375244Y-15290960D01*
X17375244Y-15290960D02*
X17365720Y-15243341D01*
X17365720Y-15243341D02*
X17365720Y-15205246D01*
X17365720Y-15205246D02*
X17375244Y-15157627D01*
X17375244Y-15157627D02*
X17384768Y-15129055D01*
X17384768Y-15129055D02*
X17394291Y-15110008D01*
X17394291Y-15110008D02*
X17413339Y-15081436D01*
X17413339Y-15081436D02*
X17422863Y-15071912D01*
X17527625Y-15186198D02*
X17508577Y-15176674D01*
X17508577Y-15176674D02*
X17499053Y-15167150D01*
X17499053Y-15167150D02*
X17489530Y-15148103D01*
X17489530Y-15148103D02*
X17489530Y-15138579D01*
X17489530Y-15138579D02*
X17499053Y-15119531D01*
X17499053Y-15119531D02*
X17508577Y-15110008D01*
X17508577Y-15110008D02*
X17527625Y-15100484D01*
X17527625Y-15100484D02*
X17565720Y-15100484D01*
X17565720Y-15100484D02*
X17584768Y-15110008D01*
X17584768Y-15110008D02*
X17594291Y-15119531D01*
X17594291Y-15119531D02*
X17603815Y-15138579D01*
X17603815Y-15138579D02*
X17603815Y-15148103D01*
X17603815Y-15148103D02*
X17594291Y-15167150D01*
X17594291Y-15167150D02*
X17584768Y-15176674D01*
X17584768Y-15176674D02*
X17565720Y-15186198D01*
X17565720Y-15186198D02*
X17527625Y-15186198D01*
X17527625Y-15186198D02*
X17508577Y-15195722D01*
X17508577Y-15195722D02*
X17499053Y-15205246D01*
X17499053Y-15205246D02*
X17489530Y-15224293D01*
X17489530Y-15224293D02*
X17489530Y-15262388D01*
X17489530Y-15262388D02*
X17499053Y-15281436D01*
X17499053Y-15281436D02*
X17508577Y-15290960D01*
X17508577Y-15290960D02*
X17527625Y-15300484D01*
X17527625Y-15300484D02*
X17565720Y-15300484D01*
X17565720Y-15300484D02*
X17584768Y-15290960D01*
X17584768Y-15290960D02*
X17594291Y-15281436D01*
X17594291Y-15281436D02*
X17603815Y-15262388D01*
X17603815Y-15262388D02*
X17603815Y-15224293D01*
X17603815Y-15224293D02*
X17594291Y-15205246D01*
X17594291Y-15205246D02*
X17584768Y-15195722D01*
X17584768Y-15195722D02*
X17565720Y-15186198D01*
X17841911Y-15300484D02*
X17841911Y-15100484D01*
X17927625Y-15300484D02*
X17927625Y-15195722D01*
X17927625Y-15195722D02*
X17918101Y-15176674D01*
X17918101Y-15176674D02*
X17899053Y-15167150D01*
X17899053Y-15167150D02*
X17870482Y-15167150D01*
X17870482Y-15167150D02*
X17851434Y-15176674D01*
X17851434Y-15176674D02*
X17841911Y-15186198D01*
X18051434Y-15300484D02*
X18032387Y-15290960D01*
X18032387Y-15290960D02*
X18022863Y-15281436D01*
X18022863Y-15281436D02*
X18013339Y-15262388D01*
X18013339Y-15262388D02*
X18013339Y-15205246D01*
X18013339Y-15205246D02*
X18022863Y-15186198D01*
X18022863Y-15186198D02*
X18032387Y-15176674D01*
X18032387Y-15176674D02*
X18051434Y-15167150D01*
X18051434Y-15167150D02*
X18080006Y-15167150D01*
X18080006Y-15167150D02*
X18099053Y-15176674D01*
X18099053Y-15176674D02*
X18108577Y-15186198D01*
X18108577Y-15186198D02*
X18118101Y-15205246D01*
X18118101Y-15205246D02*
X18118101Y-15262388D01*
X18118101Y-15262388D02*
X18108577Y-15281436D01*
X18108577Y-15281436D02*
X18099053Y-15290960D01*
X18099053Y-15290960D02*
X18080006Y-15300484D01*
X18080006Y-15300484D02*
X18051434Y-15300484D01*
X18232387Y-15300484D02*
X18213339Y-15290960D01*
X18213339Y-15290960D02*
X18203815Y-15271912D01*
X18203815Y-15271912D02*
X18203815Y-15100484D01*
X18384768Y-15290960D02*
X18365720Y-15300484D01*
X18365720Y-15300484D02*
X18327625Y-15300484D01*
X18327625Y-15300484D02*
X18308577Y-15290960D01*
X18308577Y-15290960D02*
X18299053Y-15271912D01*
X18299053Y-15271912D02*
X18299053Y-15195722D01*
X18299053Y-15195722D02*
X18308577Y-15176674D01*
X18308577Y-15176674D02*
X18327625Y-15167150D01*
X18327625Y-15167150D02*
X18365720Y-15167150D01*
X18365720Y-15167150D02*
X18384768Y-15176674D01*
X18384768Y-15176674D02*
X18394292Y-15195722D01*
X18394292Y-15195722D02*
X18394292Y-15214769D01*
X18394292Y-15214769D02*
X18299053Y-15233817D01*
X18470482Y-15290960D02*
X18489530Y-15300484D01*
X18489530Y-15300484D02*
X18527625Y-15300484D01*
X18527625Y-15300484D02*
X18546673Y-15290960D01*
X18546673Y-15290960D02*
X18556196Y-15271912D01*
X18556196Y-15271912D02*
X18556196Y-15262388D01*
X18556196Y-15262388D02*
X18546673Y-15243341D01*
X18546673Y-15243341D02*
X18527625Y-15233817D01*
X18527625Y-15233817D02*
X18499053Y-15233817D01*
X18499053Y-15233817D02*
X18480006Y-15224293D01*
X18480006Y-15224293D02*
X18470482Y-15205246D01*
X18470482Y-15205246D02*
X18470482Y-15195722D01*
X18470482Y-15195722D02*
X18480006Y-15176674D01*
X18480006Y-15176674D02*
X18499053Y-15167150D01*
X18499053Y-15167150D02*
X18527625Y-15167150D01*
X18527625Y-15167150D02*
X18546673Y-15176674D01*
X18622863Y-15376674D02*
X18632387Y-15367150D01*
X18632387Y-15367150D02*
X18651434Y-15338579D01*
X18651434Y-15338579D02*
X18660958Y-15319531D01*
X18660958Y-15319531D02*
X18670482Y-15290960D01*
X18670482Y-15290960D02*
X18680006Y-15243341D01*
X18680006Y-15243341D02*
X18680006Y-15205246D01*
X18680006Y-15205246D02*
X18670482Y-15157627D01*
X18670482Y-15157627D02*
X18660958Y-15129055D01*
X18660958Y-15129055D02*
X18651434Y-15110008D01*
X18651434Y-15110008D02*
X18632387Y-15081436D01*
X18632387Y-15081436D02*
X18622863Y-15071912D01*
D10*
X13847800Y-15473000D02*
G75*
G02*
X13767800Y-15473000I-40000J0D01*
G01*
X13767800Y-15473000D02*
G75*
G02*
X13847800Y-15473000I40000J0D01*
G01*
D11*
X14146672Y-15364484D02*
X14165720Y-15364484D01*
X14165720Y-15364484D02*
X14184767Y-15374008D01*
X14184767Y-15374008D02*
X14194291Y-15383531D01*
X14194291Y-15383531D02*
X14203815Y-15402579D01*
X14203815Y-15402579D02*
X14213339Y-15440674D01*
X14213339Y-15440674D02*
X14213339Y-15488293D01*
X14213339Y-15488293D02*
X14203815Y-15526388D01*
X14203815Y-15526388D02*
X14194291Y-15545436D01*
X14194291Y-15545436D02*
X14184767Y-15554960D01*
X14184767Y-15554960D02*
X14165720Y-15564484D01*
X14165720Y-15564484D02*
X14146672Y-15564484D01*
X14146672Y-15564484D02*
X14127624Y-15554960D01*
X14127624Y-15554960D02*
X14118101Y-15545436D01*
X14118101Y-15545436D02*
X14108577Y-15526388D01*
X14108577Y-15526388D02*
X14099053Y-15488293D01*
X14099053Y-15488293D02*
X14099053Y-15440674D01*
X14099053Y-15440674D02*
X14108577Y-15402579D01*
X14108577Y-15402579D02*
X14118101Y-15383531D01*
X14118101Y-15383531D02*
X14127624Y-15374008D01*
X14127624Y-15374008D02*
X14146672Y-15364484D01*
X14299053Y-15545436D02*
X14308577Y-15554960D01*
X14308577Y-15554960D02*
X14299053Y-15564484D01*
X14299053Y-15564484D02*
X14289529Y-15554960D01*
X14289529Y-15554960D02*
X14299053Y-15545436D01*
X14299053Y-15545436D02*
X14299053Y-15564484D01*
X14422862Y-15450198D02*
X14403815Y-15440674D01*
X14403815Y-15440674D02*
X14394291Y-15431150D01*
X14394291Y-15431150D02*
X14384767Y-15412103D01*
X14384767Y-15412103D02*
X14384767Y-15402579D01*
X14384767Y-15402579D02*
X14394291Y-15383531D01*
X14394291Y-15383531D02*
X14403815Y-15374008D01*
X14403815Y-15374008D02*
X14422862Y-15364484D01*
X14422862Y-15364484D02*
X14460958Y-15364484D01*
X14460958Y-15364484D02*
X14480005Y-15374008D01*
X14480005Y-15374008D02*
X14489529Y-15383531D01*
X14489529Y-15383531D02*
X14499053Y-15402579D01*
X14499053Y-15402579D02*
X14499053Y-15412103D01*
X14499053Y-15412103D02*
X14489529Y-15431150D01*
X14489529Y-15431150D02*
X14480005Y-15440674D01*
X14480005Y-15440674D02*
X14460958Y-15450198D01*
X14460958Y-15450198D02*
X14422862Y-15450198D01*
X14422862Y-15450198D02*
X14403815Y-15459722D01*
X14403815Y-15459722D02*
X14394291Y-15469246D01*
X14394291Y-15469246D02*
X14384767Y-15488293D01*
X14384767Y-15488293D02*
X14384767Y-15526388D01*
X14384767Y-15526388D02*
X14394291Y-15545436D01*
X14394291Y-15545436D02*
X14403815Y-15554960D01*
X14403815Y-15554960D02*
X14422862Y-15564484D01*
X14422862Y-15564484D02*
X14460958Y-15564484D01*
X14460958Y-15564484D02*
X14480005Y-15554960D01*
X14480005Y-15554960D02*
X14489529Y-15545436D01*
X14489529Y-15545436D02*
X14499053Y-15526388D01*
X14499053Y-15526388D02*
X14499053Y-15488293D01*
X14499053Y-15488293D02*
X14489529Y-15469246D01*
X14489529Y-15469246D02*
X14480005Y-15459722D01*
X14480005Y-15459722D02*
X14460958Y-15450198D01*
X14622862Y-15364484D02*
X14641910Y-15364484D01*
X14641910Y-15364484D02*
X14660958Y-15374008D01*
X14660958Y-15374008D02*
X14670482Y-15383531D01*
X14670482Y-15383531D02*
X14680005Y-15402579D01*
X14680005Y-15402579D02*
X14689529Y-15440674D01*
X14689529Y-15440674D02*
X14689529Y-15488293D01*
X14689529Y-15488293D02*
X14680005Y-15526388D01*
X14680005Y-15526388D02*
X14670482Y-15545436D01*
X14670482Y-15545436D02*
X14660958Y-15554960D01*
X14660958Y-15554960D02*
X14641910Y-15564484D01*
X14641910Y-15564484D02*
X14622862Y-15564484D01*
X14622862Y-15564484D02*
X14603815Y-15554960D01*
X14603815Y-15554960D02*
X14594291Y-15545436D01*
X14594291Y-15545436D02*
X14584767Y-15526388D01*
X14584767Y-15526388D02*
X14575243Y-15488293D01*
X14575243Y-15488293D02*
X14575243Y-15440674D01*
X14575243Y-15440674D02*
X14584767Y-15402579D01*
X14584767Y-15402579D02*
X14594291Y-15383531D01*
X14594291Y-15383531D02*
X14603815Y-15374008D01*
X14603815Y-15374008D02*
X14622862Y-15364484D01*
X14813339Y-15364484D02*
X14832386Y-15364484D01*
X14832386Y-15364484D02*
X14851434Y-15374008D01*
X14851434Y-15374008D02*
X14860958Y-15383531D01*
X14860958Y-15383531D02*
X14870482Y-15402579D01*
X14870482Y-15402579D02*
X14880005Y-15440674D01*
X14880005Y-15440674D02*
X14880005Y-15488293D01*
X14880005Y-15488293D02*
X14870482Y-15526388D01*
X14870482Y-15526388D02*
X14860958Y-15545436D01*
X14860958Y-15545436D02*
X14851434Y-15554960D01*
X14851434Y-15554960D02*
X14832386Y-15564484D01*
X14832386Y-15564484D02*
X14813339Y-15564484D01*
X14813339Y-15564484D02*
X14794291Y-15554960D01*
X14794291Y-15554960D02*
X14784767Y-15545436D01*
X14784767Y-15545436D02*
X14775243Y-15526388D01*
X14775243Y-15526388D02*
X14765720Y-15488293D01*
X14765720Y-15488293D02*
X14765720Y-15440674D01*
X14765720Y-15440674D02*
X14775243Y-15402579D01*
X14775243Y-15402579D02*
X14784767Y-15383531D01*
X14784767Y-15383531D02*
X14794291Y-15374008D01*
X14794291Y-15374008D02*
X14813339Y-15364484D01*
X14965720Y-15564484D02*
X14965720Y-15431150D01*
X14965720Y-15450198D02*
X14975243Y-15440674D01*
X14975243Y-15440674D02*
X14994291Y-15431150D01*
X14994291Y-15431150D02*
X15022863Y-15431150D01*
X15022863Y-15431150D02*
X15041910Y-15440674D01*
X15041910Y-15440674D02*
X15051434Y-15459722D01*
X15051434Y-15459722D02*
X15051434Y-15564484D01*
X15051434Y-15459722D02*
X15060958Y-15440674D01*
X15060958Y-15440674D02*
X15080005Y-15431150D01*
X15080005Y-15431150D02*
X15108577Y-15431150D01*
X15108577Y-15431150D02*
X15127624Y-15440674D01*
X15127624Y-15440674D02*
X15137148Y-15459722D01*
X15137148Y-15459722D02*
X15137148Y-15564484D01*
X15232386Y-15564484D02*
X15232386Y-15431150D01*
X15232386Y-15450198D02*
X15241910Y-15440674D01*
X15241910Y-15440674D02*
X15260958Y-15431150D01*
X15260958Y-15431150D02*
X15289529Y-15431150D01*
X15289529Y-15431150D02*
X15308577Y-15440674D01*
X15308577Y-15440674D02*
X15318101Y-15459722D01*
X15318101Y-15459722D02*
X15318101Y-15564484D01*
X15318101Y-15459722D02*
X15327624Y-15440674D01*
X15327624Y-15440674D02*
X15346672Y-15431150D01*
X15346672Y-15431150D02*
X15375243Y-15431150D01*
X15375243Y-15431150D02*
X15394291Y-15440674D01*
X15394291Y-15440674D02*
X15403815Y-15459722D01*
X15403815Y-15459722D02*
X15403815Y-15564484D01*
X15794291Y-15354960D02*
X15622863Y-15612103D01*
X16051434Y-15364484D02*
X16070482Y-15364484D01*
X16070482Y-15364484D02*
X16089529Y-15374008D01*
X16089529Y-15374008D02*
X16099053Y-15383531D01*
X16099053Y-15383531D02*
X16108577Y-15402579D01*
X16108577Y-15402579D02*
X16118101Y-15440674D01*
X16118101Y-15440674D02*
X16118101Y-15488293D01*
X16118101Y-15488293D02*
X16108577Y-15526388D01*
X16108577Y-15526388D02*
X16099053Y-15545436D01*
X16099053Y-15545436D02*
X16089529Y-15554960D01*
X16089529Y-15554960D02*
X16070482Y-15564484D01*
X16070482Y-15564484D02*
X16051434Y-15564484D01*
X16051434Y-15564484D02*
X16032386Y-15554960D01*
X16032386Y-15554960D02*
X16022863Y-15545436D01*
X16022863Y-15545436D02*
X16013339Y-15526388D01*
X16013339Y-15526388D02*
X16003815Y-15488293D01*
X16003815Y-15488293D02*
X16003815Y-15440674D01*
X16003815Y-15440674D02*
X16013339Y-15402579D01*
X16013339Y-15402579D02*
X16022863Y-15383531D01*
X16022863Y-15383531D02*
X16032386Y-15374008D01*
X16032386Y-15374008D02*
X16051434Y-15364484D01*
X16203815Y-15545436D02*
X16213339Y-15554960D01*
X16213339Y-15554960D02*
X16203815Y-15564484D01*
X16203815Y-15564484D02*
X16194291Y-15554960D01*
X16194291Y-15554960D02*
X16203815Y-15545436D01*
X16203815Y-15545436D02*
X16203815Y-15564484D01*
X16337148Y-15364484D02*
X16356196Y-15364484D01*
X16356196Y-15364484D02*
X16375244Y-15374008D01*
X16375244Y-15374008D02*
X16384767Y-15383531D01*
X16384767Y-15383531D02*
X16394291Y-15402579D01*
X16394291Y-15402579D02*
X16403815Y-15440674D01*
X16403815Y-15440674D02*
X16403815Y-15488293D01*
X16403815Y-15488293D02*
X16394291Y-15526388D01*
X16394291Y-15526388D02*
X16384767Y-15545436D01*
X16384767Y-15545436D02*
X16375244Y-15554960D01*
X16375244Y-15554960D02*
X16356196Y-15564484D01*
X16356196Y-15564484D02*
X16337148Y-15564484D01*
X16337148Y-15564484D02*
X16318101Y-15554960D01*
X16318101Y-15554960D02*
X16308577Y-15545436D01*
X16308577Y-15545436D02*
X16299053Y-15526388D01*
X16299053Y-15526388D02*
X16289529Y-15488293D01*
X16289529Y-15488293D02*
X16289529Y-15440674D01*
X16289529Y-15440674D02*
X16299053Y-15402579D01*
X16299053Y-15402579D02*
X16308577Y-15383531D01*
X16308577Y-15383531D02*
X16318101Y-15374008D01*
X16318101Y-15374008D02*
X16337148Y-15364484D01*
X16470482Y-15364484D02*
X16594291Y-15364484D01*
X16594291Y-15364484D02*
X16527625Y-15440674D01*
X16527625Y-15440674D02*
X16556196Y-15440674D01*
X16556196Y-15440674D02*
X16575244Y-15450198D01*
X16575244Y-15450198D02*
X16584767Y-15459722D01*
X16584767Y-15459722D02*
X16594291Y-15478769D01*
X16594291Y-15478769D02*
X16594291Y-15526388D01*
X16594291Y-15526388D02*
X16584767Y-15545436D01*
X16584767Y-15545436D02*
X16575244Y-15554960D01*
X16575244Y-15554960D02*
X16556196Y-15564484D01*
X16556196Y-15564484D02*
X16499053Y-15564484D01*
X16499053Y-15564484D02*
X16480006Y-15554960D01*
X16480006Y-15554960D02*
X16470482Y-15545436D01*
X16784768Y-15564484D02*
X16670482Y-15564484D01*
X16727625Y-15564484D02*
X16727625Y-15364484D01*
X16727625Y-15364484D02*
X16708577Y-15393055D01*
X16708577Y-15393055D02*
X16689529Y-15412103D01*
X16689529Y-15412103D02*
X16670482Y-15421627D01*
X16965720Y-15364484D02*
X16870482Y-15364484D01*
X16870482Y-15364484D02*
X16860958Y-15459722D01*
X16860958Y-15459722D02*
X16870482Y-15450198D01*
X16870482Y-15450198D02*
X16889529Y-15440674D01*
X16889529Y-15440674D02*
X16937149Y-15440674D01*
X16937149Y-15440674D02*
X16956196Y-15450198D01*
X16956196Y-15450198D02*
X16965720Y-15459722D01*
X16965720Y-15459722D02*
X16975244Y-15478769D01*
X16975244Y-15478769D02*
X16975244Y-15526388D01*
X16975244Y-15526388D02*
X16965720Y-15545436D01*
X16965720Y-15545436D02*
X16956196Y-15554960D01*
X16956196Y-15554960D02*
X16937149Y-15564484D01*
X16937149Y-15564484D02*
X16889529Y-15564484D01*
X16889529Y-15564484D02*
X16870482Y-15554960D01*
X16870482Y-15554960D02*
X16860958Y-15545436D01*
X17051434Y-15364484D02*
X17051434Y-15402579D01*
X17127625Y-15364484D02*
X17127625Y-15402579D01*
X17422863Y-15640674D02*
X17413339Y-15631150D01*
X17413339Y-15631150D02*
X17394291Y-15602579D01*
X17394291Y-15602579D02*
X17384768Y-15583531D01*
X17384768Y-15583531D02*
X17375244Y-15554960D01*
X17375244Y-15554960D02*
X17365720Y-15507341D01*
X17365720Y-15507341D02*
X17365720Y-15469246D01*
X17365720Y-15469246D02*
X17375244Y-15421627D01*
X17375244Y-15421627D02*
X17384768Y-15393055D01*
X17384768Y-15393055D02*
X17394291Y-15374008D01*
X17394291Y-15374008D02*
X17413339Y-15345436D01*
X17413339Y-15345436D02*
X17422863Y-15335912D01*
X17480006Y-15364484D02*
X17603815Y-15364484D01*
X17603815Y-15364484D02*
X17537149Y-15440674D01*
X17537149Y-15440674D02*
X17565720Y-15440674D01*
X17565720Y-15440674D02*
X17584768Y-15450198D01*
X17584768Y-15450198D02*
X17594291Y-15459722D01*
X17594291Y-15459722D02*
X17603815Y-15478769D01*
X17603815Y-15478769D02*
X17603815Y-15526388D01*
X17603815Y-15526388D02*
X17594291Y-15545436D01*
X17594291Y-15545436D02*
X17584768Y-15554960D01*
X17584768Y-15554960D02*
X17565720Y-15564484D01*
X17565720Y-15564484D02*
X17508577Y-15564484D01*
X17508577Y-15564484D02*
X17489530Y-15554960D01*
X17489530Y-15554960D02*
X17480006Y-15545436D01*
X17794291Y-15564484D02*
X17680006Y-15564484D01*
X17737149Y-15564484D02*
X17737149Y-15364484D01*
X17737149Y-15364484D02*
X17718101Y-15393055D01*
X17718101Y-15393055D02*
X17699053Y-15412103D01*
X17699053Y-15412103D02*
X17680006Y-15421627D01*
X18032387Y-15564484D02*
X18032387Y-15364484D01*
X18118101Y-15564484D02*
X18118101Y-15459722D01*
X18118101Y-15459722D02*
X18108577Y-15440674D01*
X18108577Y-15440674D02*
X18089530Y-15431150D01*
X18089530Y-15431150D02*
X18060958Y-15431150D01*
X18060958Y-15431150D02*
X18041911Y-15440674D01*
X18041911Y-15440674D02*
X18032387Y-15450198D01*
X18241911Y-15564484D02*
X18222863Y-15554960D01*
X18222863Y-15554960D02*
X18213339Y-15545436D01*
X18213339Y-15545436D02*
X18203815Y-15526388D01*
X18203815Y-15526388D02*
X18203815Y-15469246D01*
X18203815Y-15469246D02*
X18213339Y-15450198D01*
X18213339Y-15450198D02*
X18222863Y-15440674D01*
X18222863Y-15440674D02*
X18241911Y-15431150D01*
X18241911Y-15431150D02*
X18270482Y-15431150D01*
X18270482Y-15431150D02*
X18289530Y-15440674D01*
X18289530Y-15440674D02*
X18299053Y-15450198D01*
X18299053Y-15450198D02*
X18308577Y-15469246D01*
X18308577Y-15469246D02*
X18308577Y-15526388D01*
X18308577Y-15526388D02*
X18299053Y-15545436D01*
X18299053Y-15545436D02*
X18289530Y-15554960D01*
X18289530Y-15554960D02*
X18270482Y-15564484D01*
X18270482Y-15564484D02*
X18241911Y-15564484D01*
X18422863Y-15564484D02*
X18403815Y-15554960D01*
X18403815Y-15554960D02*
X18394292Y-15535912D01*
X18394292Y-15535912D02*
X18394292Y-15364484D01*
X18575244Y-15554960D02*
X18556196Y-15564484D01*
X18556196Y-15564484D02*
X18518101Y-15564484D01*
X18518101Y-15564484D02*
X18499053Y-15554960D01*
X18499053Y-15554960D02*
X18489530Y-15535912D01*
X18489530Y-15535912D02*
X18489530Y-15459722D01*
X18489530Y-15459722D02*
X18499053Y-15440674D01*
X18499053Y-15440674D02*
X18518101Y-15431150D01*
X18518101Y-15431150D02*
X18556196Y-15431150D01*
X18556196Y-15431150D02*
X18575244Y-15440674D01*
X18575244Y-15440674D02*
X18584768Y-15459722D01*
X18584768Y-15459722D02*
X18584768Y-15478769D01*
X18584768Y-15478769D02*
X18489530Y-15497817D01*
X18660958Y-15554960D02*
X18680006Y-15564484D01*
X18680006Y-15564484D02*
X18718101Y-15564484D01*
X18718101Y-15564484D02*
X18737149Y-15554960D01*
X18737149Y-15554960D02*
X18746673Y-15535912D01*
X18746673Y-15535912D02*
X18746673Y-15526388D01*
X18746673Y-15526388D02*
X18737149Y-15507341D01*
X18737149Y-15507341D02*
X18718101Y-15497817D01*
X18718101Y-15497817D02*
X18689530Y-15497817D01*
X18689530Y-15497817D02*
X18670482Y-15488293D01*
X18670482Y-15488293D02*
X18660958Y-15469246D01*
X18660958Y-15469246D02*
X18660958Y-15459722D01*
X18660958Y-15459722D02*
X18670482Y-15440674D01*
X18670482Y-15440674D02*
X18689530Y-15431150D01*
X18689530Y-15431150D02*
X18718101Y-15431150D01*
X18718101Y-15431150D02*
X18737149Y-15440674D01*
X18813339Y-15640674D02*
X18822863Y-15631150D01*
X18822863Y-15631150D02*
X18841911Y-15602579D01*
X18841911Y-15602579D02*
X18851434Y-15583531D01*
X18851434Y-15583531D02*
X18860958Y-15554960D01*
X18860958Y-15554960D02*
X18870482Y-15507341D01*
X18870482Y-15507341D02*
X18870482Y-15469246D01*
X18870482Y-15469246D02*
X18860958Y-15421627D01*
X18860958Y-15421627D02*
X18851434Y-15393055D01*
X18851434Y-15393055D02*
X18841911Y-15374008D01*
X18841911Y-15374008D02*
X18822863Y-15345436D01*
X18822863Y-15345436D02*
X18813339Y-15335912D01*
D10*
X13802800Y-15692000D02*
X13802800Y-15782000D01*
X13757800Y-15737000D02*
X13847800Y-15737000D01*
D11*
X14146672Y-15628484D02*
X14165720Y-15628484D01*
X14165720Y-15628484D02*
X14184767Y-15638008D01*
X14184767Y-15638008D02*
X14194291Y-15647531D01*
X14194291Y-15647531D02*
X14203815Y-15666579D01*
X14203815Y-15666579D02*
X14213339Y-15704674D01*
X14213339Y-15704674D02*
X14213339Y-15752293D01*
X14213339Y-15752293D02*
X14203815Y-15790388D01*
X14203815Y-15790388D02*
X14194291Y-15809436D01*
X14194291Y-15809436D02*
X14184767Y-15818960D01*
X14184767Y-15818960D02*
X14165720Y-15828484D01*
X14165720Y-15828484D02*
X14146672Y-15828484D01*
X14146672Y-15828484D02*
X14127624Y-15818960D01*
X14127624Y-15818960D02*
X14118101Y-15809436D01*
X14118101Y-15809436D02*
X14108577Y-15790388D01*
X14108577Y-15790388D02*
X14099053Y-15752293D01*
X14099053Y-15752293D02*
X14099053Y-15704674D01*
X14099053Y-15704674D02*
X14108577Y-15666579D01*
X14108577Y-15666579D02*
X14118101Y-15647531D01*
X14118101Y-15647531D02*
X14127624Y-15638008D01*
X14127624Y-15638008D02*
X14146672Y-15628484D01*
X14299053Y-15809436D02*
X14308577Y-15818960D01*
X14308577Y-15818960D02*
X14299053Y-15828484D01*
X14299053Y-15828484D02*
X14289529Y-15818960D01*
X14289529Y-15818960D02*
X14299053Y-15809436D01*
X14299053Y-15809436D02*
X14299053Y-15828484D01*
X14403815Y-15828484D02*
X14441910Y-15828484D01*
X14441910Y-15828484D02*
X14460958Y-15818960D01*
X14460958Y-15818960D02*
X14470482Y-15809436D01*
X14470482Y-15809436D02*
X14489529Y-15780865D01*
X14489529Y-15780865D02*
X14499053Y-15742769D01*
X14499053Y-15742769D02*
X14499053Y-15666579D01*
X14499053Y-15666579D02*
X14489529Y-15647531D01*
X14489529Y-15647531D02*
X14480005Y-15638008D01*
X14480005Y-15638008D02*
X14460958Y-15628484D01*
X14460958Y-15628484D02*
X14422862Y-15628484D01*
X14422862Y-15628484D02*
X14403815Y-15638008D01*
X14403815Y-15638008D02*
X14394291Y-15647531D01*
X14394291Y-15647531D02*
X14384767Y-15666579D01*
X14384767Y-15666579D02*
X14384767Y-15714198D01*
X14384767Y-15714198D02*
X14394291Y-15733246D01*
X14394291Y-15733246D02*
X14403815Y-15742769D01*
X14403815Y-15742769D02*
X14422862Y-15752293D01*
X14422862Y-15752293D02*
X14460958Y-15752293D01*
X14460958Y-15752293D02*
X14480005Y-15742769D01*
X14480005Y-15742769D02*
X14489529Y-15733246D01*
X14489529Y-15733246D02*
X14499053Y-15714198D01*
X14622862Y-15628484D02*
X14641910Y-15628484D01*
X14641910Y-15628484D02*
X14660958Y-15638008D01*
X14660958Y-15638008D02*
X14670482Y-15647531D01*
X14670482Y-15647531D02*
X14680005Y-15666579D01*
X14680005Y-15666579D02*
X14689529Y-15704674D01*
X14689529Y-15704674D02*
X14689529Y-15752293D01*
X14689529Y-15752293D02*
X14680005Y-15790388D01*
X14680005Y-15790388D02*
X14670482Y-15809436D01*
X14670482Y-15809436D02*
X14660958Y-15818960D01*
X14660958Y-15818960D02*
X14641910Y-15828484D01*
X14641910Y-15828484D02*
X14622862Y-15828484D01*
X14622862Y-15828484D02*
X14603815Y-15818960D01*
X14603815Y-15818960D02*
X14594291Y-15809436D01*
X14594291Y-15809436D02*
X14584767Y-15790388D01*
X14584767Y-15790388D02*
X14575243Y-15752293D01*
X14575243Y-15752293D02*
X14575243Y-15704674D01*
X14575243Y-15704674D02*
X14584767Y-15666579D01*
X14584767Y-15666579D02*
X14594291Y-15647531D01*
X14594291Y-15647531D02*
X14603815Y-15638008D01*
X14603815Y-15638008D02*
X14622862Y-15628484D01*
X14813339Y-15628484D02*
X14832386Y-15628484D01*
X14832386Y-15628484D02*
X14851434Y-15638008D01*
X14851434Y-15638008D02*
X14860958Y-15647531D01*
X14860958Y-15647531D02*
X14870482Y-15666579D01*
X14870482Y-15666579D02*
X14880005Y-15704674D01*
X14880005Y-15704674D02*
X14880005Y-15752293D01*
X14880005Y-15752293D02*
X14870482Y-15790388D01*
X14870482Y-15790388D02*
X14860958Y-15809436D01*
X14860958Y-15809436D02*
X14851434Y-15818960D01*
X14851434Y-15818960D02*
X14832386Y-15828484D01*
X14832386Y-15828484D02*
X14813339Y-15828484D01*
X14813339Y-15828484D02*
X14794291Y-15818960D01*
X14794291Y-15818960D02*
X14784767Y-15809436D01*
X14784767Y-15809436D02*
X14775243Y-15790388D01*
X14775243Y-15790388D02*
X14765720Y-15752293D01*
X14765720Y-15752293D02*
X14765720Y-15704674D01*
X14765720Y-15704674D02*
X14775243Y-15666579D01*
X14775243Y-15666579D02*
X14784767Y-15647531D01*
X14784767Y-15647531D02*
X14794291Y-15638008D01*
X14794291Y-15638008D02*
X14813339Y-15628484D01*
X14965720Y-15828484D02*
X14965720Y-15695150D01*
X14965720Y-15714198D02*
X14975243Y-15704674D01*
X14975243Y-15704674D02*
X14994291Y-15695150D01*
X14994291Y-15695150D02*
X15022863Y-15695150D01*
X15022863Y-15695150D02*
X15041910Y-15704674D01*
X15041910Y-15704674D02*
X15051434Y-15723722D01*
X15051434Y-15723722D02*
X15051434Y-15828484D01*
X15051434Y-15723722D02*
X15060958Y-15704674D01*
X15060958Y-15704674D02*
X15080005Y-15695150D01*
X15080005Y-15695150D02*
X15108577Y-15695150D01*
X15108577Y-15695150D02*
X15127624Y-15704674D01*
X15127624Y-15704674D02*
X15137148Y-15723722D01*
X15137148Y-15723722D02*
X15137148Y-15828484D01*
X15232386Y-15828484D02*
X15232386Y-15695150D01*
X15232386Y-15714198D02*
X15241910Y-15704674D01*
X15241910Y-15704674D02*
X15260958Y-15695150D01*
X15260958Y-15695150D02*
X15289529Y-15695150D01*
X15289529Y-15695150D02*
X15308577Y-15704674D01*
X15308577Y-15704674D02*
X15318101Y-15723722D01*
X15318101Y-15723722D02*
X15318101Y-15828484D01*
X15318101Y-15723722D02*
X15327624Y-15704674D01*
X15327624Y-15704674D02*
X15346672Y-15695150D01*
X15346672Y-15695150D02*
X15375243Y-15695150D01*
X15375243Y-15695150D02*
X15394291Y-15704674D01*
X15394291Y-15704674D02*
X15403815Y-15723722D01*
X15403815Y-15723722D02*
X15403815Y-15828484D01*
X15794291Y-15618960D02*
X15622863Y-15876103D01*
X16051434Y-15628484D02*
X16070482Y-15628484D01*
X16070482Y-15628484D02*
X16089529Y-15638008D01*
X16089529Y-15638008D02*
X16099053Y-15647531D01*
X16099053Y-15647531D02*
X16108577Y-15666579D01*
X16108577Y-15666579D02*
X16118101Y-15704674D01*
X16118101Y-15704674D02*
X16118101Y-15752293D01*
X16118101Y-15752293D02*
X16108577Y-15790388D01*
X16108577Y-15790388D02*
X16099053Y-15809436D01*
X16099053Y-15809436D02*
X16089529Y-15818960D01*
X16089529Y-15818960D02*
X16070482Y-15828484D01*
X16070482Y-15828484D02*
X16051434Y-15828484D01*
X16051434Y-15828484D02*
X16032386Y-15818960D01*
X16032386Y-15818960D02*
X16022863Y-15809436D01*
X16022863Y-15809436D02*
X16013339Y-15790388D01*
X16013339Y-15790388D02*
X16003815Y-15752293D01*
X16003815Y-15752293D02*
X16003815Y-15704674D01*
X16003815Y-15704674D02*
X16013339Y-15666579D01*
X16013339Y-15666579D02*
X16022863Y-15647531D01*
X16022863Y-15647531D02*
X16032386Y-15638008D01*
X16032386Y-15638008D02*
X16051434Y-15628484D01*
X16203815Y-15809436D02*
X16213339Y-15818960D01*
X16213339Y-15818960D02*
X16203815Y-15828484D01*
X16203815Y-15828484D02*
X16194291Y-15818960D01*
X16194291Y-15818960D02*
X16203815Y-15809436D01*
X16203815Y-15809436D02*
X16203815Y-15828484D01*
X16337148Y-15628484D02*
X16356196Y-15628484D01*
X16356196Y-15628484D02*
X16375244Y-15638008D01*
X16375244Y-15638008D02*
X16384767Y-15647531D01*
X16384767Y-15647531D02*
X16394291Y-15666579D01*
X16394291Y-15666579D02*
X16403815Y-15704674D01*
X16403815Y-15704674D02*
X16403815Y-15752293D01*
X16403815Y-15752293D02*
X16394291Y-15790388D01*
X16394291Y-15790388D02*
X16384767Y-15809436D01*
X16384767Y-15809436D02*
X16375244Y-15818960D01*
X16375244Y-15818960D02*
X16356196Y-15828484D01*
X16356196Y-15828484D02*
X16337148Y-15828484D01*
X16337148Y-15828484D02*
X16318101Y-15818960D01*
X16318101Y-15818960D02*
X16308577Y-15809436D01*
X16308577Y-15809436D02*
X16299053Y-15790388D01*
X16299053Y-15790388D02*
X16289529Y-15752293D01*
X16289529Y-15752293D02*
X16289529Y-15704674D01*
X16289529Y-15704674D02*
X16299053Y-15666579D01*
X16299053Y-15666579D02*
X16308577Y-15647531D01*
X16308577Y-15647531D02*
X16318101Y-15638008D01*
X16318101Y-15638008D02*
X16337148Y-15628484D01*
X16470482Y-15628484D02*
X16594291Y-15628484D01*
X16594291Y-15628484D02*
X16527625Y-15704674D01*
X16527625Y-15704674D02*
X16556196Y-15704674D01*
X16556196Y-15704674D02*
X16575244Y-15714198D01*
X16575244Y-15714198D02*
X16584767Y-15723722D01*
X16584767Y-15723722D02*
X16594291Y-15742769D01*
X16594291Y-15742769D02*
X16594291Y-15790388D01*
X16594291Y-15790388D02*
X16584767Y-15809436D01*
X16584767Y-15809436D02*
X16575244Y-15818960D01*
X16575244Y-15818960D02*
X16556196Y-15828484D01*
X16556196Y-15828484D02*
X16499053Y-15828484D01*
X16499053Y-15828484D02*
X16480006Y-15818960D01*
X16480006Y-15818960D02*
X16470482Y-15809436D01*
X16775244Y-15628484D02*
X16680006Y-15628484D01*
X16680006Y-15628484D02*
X16670482Y-15723722D01*
X16670482Y-15723722D02*
X16680006Y-15714198D01*
X16680006Y-15714198D02*
X16699053Y-15704674D01*
X16699053Y-15704674D02*
X16746672Y-15704674D01*
X16746672Y-15704674D02*
X16765720Y-15714198D01*
X16765720Y-15714198D02*
X16775244Y-15723722D01*
X16775244Y-15723722D02*
X16784768Y-15742769D01*
X16784768Y-15742769D02*
X16784768Y-15790388D01*
X16784768Y-15790388D02*
X16775244Y-15809436D01*
X16775244Y-15809436D02*
X16765720Y-15818960D01*
X16765720Y-15818960D02*
X16746672Y-15828484D01*
X16746672Y-15828484D02*
X16699053Y-15828484D01*
X16699053Y-15828484D02*
X16680006Y-15818960D01*
X16680006Y-15818960D02*
X16670482Y-15809436D01*
X16956196Y-15695150D02*
X16956196Y-15828484D01*
X16908577Y-15618960D02*
X16860958Y-15761817D01*
X16860958Y-15761817D02*
X16984768Y-15761817D01*
X17051434Y-15628484D02*
X17051434Y-15666579D01*
X17127625Y-15628484D02*
X17127625Y-15666579D01*
X17422863Y-15904674D02*
X17413339Y-15895150D01*
X17413339Y-15895150D02*
X17394291Y-15866579D01*
X17394291Y-15866579D02*
X17384768Y-15847531D01*
X17384768Y-15847531D02*
X17375244Y-15818960D01*
X17375244Y-15818960D02*
X17365720Y-15771341D01*
X17365720Y-15771341D02*
X17365720Y-15733246D01*
X17365720Y-15733246D02*
X17375244Y-15685627D01*
X17375244Y-15685627D02*
X17384768Y-15657055D01*
X17384768Y-15657055D02*
X17394291Y-15638008D01*
X17394291Y-15638008D02*
X17413339Y-15609436D01*
X17413339Y-15609436D02*
X17422863Y-15599912D01*
X17603815Y-15828484D02*
X17489530Y-15828484D01*
X17546672Y-15828484D02*
X17546672Y-15628484D01*
X17546672Y-15628484D02*
X17527625Y-15657055D01*
X17527625Y-15657055D02*
X17508577Y-15676103D01*
X17508577Y-15676103D02*
X17489530Y-15685627D01*
X17718101Y-15714198D02*
X17699053Y-15704674D01*
X17699053Y-15704674D02*
X17689530Y-15695150D01*
X17689530Y-15695150D02*
X17680006Y-15676103D01*
X17680006Y-15676103D02*
X17680006Y-15666579D01*
X17680006Y-15666579D02*
X17689530Y-15647531D01*
X17689530Y-15647531D02*
X17699053Y-15638008D01*
X17699053Y-15638008D02*
X17718101Y-15628484D01*
X17718101Y-15628484D02*
X17756196Y-15628484D01*
X17756196Y-15628484D02*
X17775244Y-15638008D01*
X17775244Y-15638008D02*
X17784768Y-15647531D01*
X17784768Y-15647531D02*
X17794291Y-15666579D01*
X17794291Y-15666579D02*
X17794291Y-15676103D01*
X17794291Y-15676103D02*
X17784768Y-15695150D01*
X17784768Y-15695150D02*
X17775244Y-15704674D01*
X17775244Y-15704674D02*
X17756196Y-15714198D01*
X17756196Y-15714198D02*
X17718101Y-15714198D01*
X17718101Y-15714198D02*
X17699053Y-15723722D01*
X17699053Y-15723722D02*
X17689530Y-15733246D01*
X17689530Y-15733246D02*
X17680006Y-15752293D01*
X17680006Y-15752293D02*
X17680006Y-15790388D01*
X17680006Y-15790388D02*
X17689530Y-15809436D01*
X17689530Y-15809436D02*
X17699053Y-15818960D01*
X17699053Y-15818960D02*
X17718101Y-15828484D01*
X17718101Y-15828484D02*
X17756196Y-15828484D01*
X17756196Y-15828484D02*
X17775244Y-15818960D01*
X17775244Y-15818960D02*
X17784768Y-15809436D01*
X17784768Y-15809436D02*
X17794291Y-15790388D01*
X17794291Y-15790388D02*
X17794291Y-15752293D01*
X17794291Y-15752293D02*
X17784768Y-15733246D01*
X17784768Y-15733246D02*
X17775244Y-15723722D01*
X17775244Y-15723722D02*
X17756196Y-15714198D01*
X18032387Y-15828484D02*
X18032387Y-15628484D01*
X18118101Y-15828484D02*
X18118101Y-15723722D01*
X18118101Y-15723722D02*
X18108577Y-15704674D01*
X18108577Y-15704674D02*
X18089530Y-15695150D01*
X18089530Y-15695150D02*
X18060958Y-15695150D01*
X18060958Y-15695150D02*
X18041911Y-15704674D01*
X18041911Y-15704674D02*
X18032387Y-15714198D01*
X18241911Y-15828484D02*
X18222863Y-15818960D01*
X18222863Y-15818960D02*
X18213339Y-15809436D01*
X18213339Y-15809436D02*
X18203815Y-15790388D01*
X18203815Y-15790388D02*
X18203815Y-15733246D01*
X18203815Y-15733246D02*
X18213339Y-15714198D01*
X18213339Y-15714198D02*
X18222863Y-15704674D01*
X18222863Y-15704674D02*
X18241911Y-15695150D01*
X18241911Y-15695150D02*
X18270482Y-15695150D01*
X18270482Y-15695150D02*
X18289530Y-15704674D01*
X18289530Y-15704674D02*
X18299053Y-15714198D01*
X18299053Y-15714198D02*
X18308577Y-15733246D01*
X18308577Y-15733246D02*
X18308577Y-15790388D01*
X18308577Y-15790388D02*
X18299053Y-15809436D01*
X18299053Y-15809436D02*
X18289530Y-15818960D01*
X18289530Y-15818960D02*
X18270482Y-15828484D01*
X18270482Y-15828484D02*
X18241911Y-15828484D01*
X18422863Y-15828484D02*
X18403815Y-15818960D01*
X18403815Y-15818960D02*
X18394292Y-15799912D01*
X18394292Y-15799912D02*
X18394292Y-15628484D01*
X18575244Y-15818960D02*
X18556196Y-15828484D01*
X18556196Y-15828484D02*
X18518101Y-15828484D01*
X18518101Y-15828484D02*
X18499053Y-15818960D01*
X18499053Y-15818960D02*
X18489530Y-15799912D01*
X18489530Y-15799912D02*
X18489530Y-15723722D01*
X18489530Y-15723722D02*
X18499053Y-15704674D01*
X18499053Y-15704674D02*
X18518101Y-15695150D01*
X18518101Y-15695150D02*
X18556196Y-15695150D01*
X18556196Y-15695150D02*
X18575244Y-15704674D01*
X18575244Y-15704674D02*
X18584768Y-15723722D01*
X18584768Y-15723722D02*
X18584768Y-15742769D01*
X18584768Y-15742769D02*
X18489530Y-15761817D01*
X18660958Y-15818960D02*
X18680006Y-15828484D01*
X18680006Y-15828484D02*
X18718101Y-15828484D01*
X18718101Y-15828484D02*
X18737149Y-15818960D01*
X18737149Y-15818960D02*
X18746673Y-15799912D01*
X18746673Y-15799912D02*
X18746673Y-15790388D01*
X18746673Y-15790388D02*
X18737149Y-15771341D01*
X18737149Y-15771341D02*
X18718101Y-15761817D01*
X18718101Y-15761817D02*
X18689530Y-15761817D01*
X18689530Y-15761817D02*
X18670482Y-15752293D01*
X18670482Y-15752293D02*
X18660958Y-15733246D01*
X18660958Y-15733246D02*
X18660958Y-15723722D01*
X18660958Y-15723722D02*
X18670482Y-15704674D01*
X18670482Y-15704674D02*
X18689530Y-15695150D01*
X18689530Y-15695150D02*
X18718101Y-15695150D01*
X18718101Y-15695150D02*
X18737149Y-15704674D01*
X18813339Y-15904674D02*
X18822863Y-15895150D01*
X18822863Y-15895150D02*
X18841911Y-15866579D01*
X18841911Y-15866579D02*
X18851434Y-15847531D01*
X18851434Y-15847531D02*
X18860958Y-15818960D01*
X18860958Y-15818960D02*
X18870482Y-15771341D01*
X18870482Y-15771341D02*
X18870482Y-15733246D01*
X18870482Y-15733246D02*
X18860958Y-15685627D01*
X18860958Y-15685627D02*
X18851434Y-15657055D01*
X18851434Y-15657055D02*
X18841911Y-15638008D01*
X18841911Y-15638008D02*
X18822863Y-15609436D01*
X18822863Y-15609436D02*
X18813339Y-15599912D01*
D10*
X13833156Y-16036356D02*
X13833156Y-15965644D01*
X13762444Y-15965644D01*
X13762444Y-16036356D01*
X13833156Y-16036356D01*
D11*
X14213339Y-16092484D02*
X14099053Y-16092484D01*
X14156196Y-16092484D02*
X14156196Y-15892484D01*
X14156196Y-15892484D02*
X14137148Y-15921055D01*
X14137148Y-15921055D02*
X14118101Y-15940103D01*
X14118101Y-15940103D02*
X14099053Y-15949627D01*
X14299053Y-16073436D02*
X14308577Y-16082960D01*
X14308577Y-16082960D02*
X14299053Y-16092484D01*
X14299053Y-16092484D02*
X14289529Y-16082960D01*
X14289529Y-16082960D02*
X14299053Y-16073436D01*
X14299053Y-16073436D02*
X14299053Y-16092484D01*
X14432386Y-15892484D02*
X14451434Y-15892484D01*
X14451434Y-15892484D02*
X14470482Y-15902008D01*
X14470482Y-15902008D02*
X14480005Y-15911531D01*
X14480005Y-15911531D02*
X14489529Y-15930579D01*
X14489529Y-15930579D02*
X14499053Y-15968674D01*
X14499053Y-15968674D02*
X14499053Y-16016293D01*
X14499053Y-16016293D02*
X14489529Y-16054388D01*
X14489529Y-16054388D02*
X14480005Y-16073436D01*
X14480005Y-16073436D02*
X14470482Y-16082960D01*
X14470482Y-16082960D02*
X14451434Y-16092484D01*
X14451434Y-16092484D02*
X14432386Y-16092484D01*
X14432386Y-16092484D02*
X14413339Y-16082960D01*
X14413339Y-16082960D02*
X14403815Y-16073436D01*
X14403815Y-16073436D02*
X14394291Y-16054388D01*
X14394291Y-16054388D02*
X14384767Y-16016293D01*
X14384767Y-16016293D02*
X14384767Y-15968674D01*
X14384767Y-15968674D02*
X14394291Y-15930579D01*
X14394291Y-15930579D02*
X14403815Y-15911531D01*
X14403815Y-15911531D02*
X14413339Y-15902008D01*
X14413339Y-15902008D02*
X14432386Y-15892484D01*
X14622862Y-15892484D02*
X14641910Y-15892484D01*
X14641910Y-15892484D02*
X14660958Y-15902008D01*
X14660958Y-15902008D02*
X14670482Y-15911531D01*
X14670482Y-15911531D02*
X14680005Y-15930579D01*
X14680005Y-15930579D02*
X14689529Y-15968674D01*
X14689529Y-15968674D02*
X14689529Y-16016293D01*
X14689529Y-16016293D02*
X14680005Y-16054388D01*
X14680005Y-16054388D02*
X14670482Y-16073436D01*
X14670482Y-16073436D02*
X14660958Y-16082960D01*
X14660958Y-16082960D02*
X14641910Y-16092484D01*
X14641910Y-16092484D02*
X14622862Y-16092484D01*
X14622862Y-16092484D02*
X14603815Y-16082960D01*
X14603815Y-16082960D02*
X14594291Y-16073436D01*
X14594291Y-16073436D02*
X14584767Y-16054388D01*
X14584767Y-16054388D02*
X14575243Y-16016293D01*
X14575243Y-16016293D02*
X14575243Y-15968674D01*
X14575243Y-15968674D02*
X14584767Y-15930579D01*
X14584767Y-15930579D02*
X14594291Y-15911531D01*
X14594291Y-15911531D02*
X14603815Y-15902008D01*
X14603815Y-15902008D02*
X14622862Y-15892484D01*
X14813339Y-15892484D02*
X14832386Y-15892484D01*
X14832386Y-15892484D02*
X14851434Y-15902008D01*
X14851434Y-15902008D02*
X14860958Y-15911531D01*
X14860958Y-15911531D02*
X14870482Y-15930579D01*
X14870482Y-15930579D02*
X14880005Y-15968674D01*
X14880005Y-15968674D02*
X14880005Y-16016293D01*
X14880005Y-16016293D02*
X14870482Y-16054388D01*
X14870482Y-16054388D02*
X14860958Y-16073436D01*
X14860958Y-16073436D02*
X14851434Y-16082960D01*
X14851434Y-16082960D02*
X14832386Y-16092484D01*
X14832386Y-16092484D02*
X14813339Y-16092484D01*
X14813339Y-16092484D02*
X14794291Y-16082960D01*
X14794291Y-16082960D02*
X14784767Y-16073436D01*
X14784767Y-16073436D02*
X14775243Y-16054388D01*
X14775243Y-16054388D02*
X14765720Y-16016293D01*
X14765720Y-16016293D02*
X14765720Y-15968674D01*
X14765720Y-15968674D02*
X14775243Y-15930579D01*
X14775243Y-15930579D02*
X14784767Y-15911531D01*
X14784767Y-15911531D02*
X14794291Y-15902008D01*
X14794291Y-15902008D02*
X14813339Y-15892484D01*
X14965720Y-16092484D02*
X14965720Y-15959150D01*
X14965720Y-15978198D02*
X14975243Y-15968674D01*
X14975243Y-15968674D02*
X14994291Y-15959150D01*
X14994291Y-15959150D02*
X15022863Y-15959150D01*
X15022863Y-15959150D02*
X15041910Y-15968674D01*
X15041910Y-15968674D02*
X15051434Y-15987722D01*
X15051434Y-15987722D02*
X15051434Y-16092484D01*
X15051434Y-15987722D02*
X15060958Y-15968674D01*
X15060958Y-15968674D02*
X15080005Y-15959150D01*
X15080005Y-15959150D02*
X15108577Y-15959150D01*
X15108577Y-15959150D02*
X15127624Y-15968674D01*
X15127624Y-15968674D02*
X15137148Y-15987722D01*
X15137148Y-15987722D02*
X15137148Y-16092484D01*
X15232386Y-16092484D02*
X15232386Y-15959150D01*
X15232386Y-15978198D02*
X15241910Y-15968674D01*
X15241910Y-15968674D02*
X15260958Y-15959150D01*
X15260958Y-15959150D02*
X15289529Y-15959150D01*
X15289529Y-15959150D02*
X15308577Y-15968674D01*
X15308577Y-15968674D02*
X15318101Y-15987722D01*
X15318101Y-15987722D02*
X15318101Y-16092484D01*
X15318101Y-15987722D02*
X15327624Y-15968674D01*
X15327624Y-15968674D02*
X15346672Y-15959150D01*
X15346672Y-15959150D02*
X15375243Y-15959150D01*
X15375243Y-15959150D02*
X15394291Y-15968674D01*
X15394291Y-15968674D02*
X15403815Y-15987722D01*
X15403815Y-15987722D02*
X15403815Y-16092484D01*
X15794291Y-15882960D02*
X15622863Y-16140103D01*
X16051434Y-15892484D02*
X16070482Y-15892484D01*
X16070482Y-15892484D02*
X16089529Y-15902008D01*
X16089529Y-15902008D02*
X16099053Y-15911531D01*
X16099053Y-15911531D02*
X16108577Y-15930579D01*
X16108577Y-15930579D02*
X16118101Y-15968674D01*
X16118101Y-15968674D02*
X16118101Y-16016293D01*
X16118101Y-16016293D02*
X16108577Y-16054388D01*
X16108577Y-16054388D02*
X16099053Y-16073436D01*
X16099053Y-16073436D02*
X16089529Y-16082960D01*
X16089529Y-16082960D02*
X16070482Y-16092484D01*
X16070482Y-16092484D02*
X16051434Y-16092484D01*
X16051434Y-16092484D02*
X16032386Y-16082960D01*
X16032386Y-16082960D02*
X16022863Y-16073436D01*
X16022863Y-16073436D02*
X16013339Y-16054388D01*
X16013339Y-16054388D02*
X16003815Y-16016293D01*
X16003815Y-16016293D02*
X16003815Y-15968674D01*
X16003815Y-15968674D02*
X16013339Y-15930579D01*
X16013339Y-15930579D02*
X16022863Y-15911531D01*
X16022863Y-15911531D02*
X16032386Y-15902008D01*
X16032386Y-15902008D02*
X16051434Y-15892484D01*
X16203815Y-16073436D02*
X16213339Y-16082960D01*
X16213339Y-16082960D02*
X16203815Y-16092484D01*
X16203815Y-16092484D02*
X16194291Y-16082960D01*
X16194291Y-16082960D02*
X16203815Y-16073436D01*
X16203815Y-16073436D02*
X16203815Y-16092484D01*
X16337148Y-15892484D02*
X16356196Y-15892484D01*
X16356196Y-15892484D02*
X16375244Y-15902008D01*
X16375244Y-15902008D02*
X16384767Y-15911531D01*
X16384767Y-15911531D02*
X16394291Y-15930579D01*
X16394291Y-15930579D02*
X16403815Y-15968674D01*
X16403815Y-15968674D02*
X16403815Y-16016293D01*
X16403815Y-16016293D02*
X16394291Y-16054388D01*
X16394291Y-16054388D02*
X16384767Y-16073436D01*
X16384767Y-16073436D02*
X16375244Y-16082960D01*
X16375244Y-16082960D02*
X16356196Y-16092484D01*
X16356196Y-16092484D02*
X16337148Y-16092484D01*
X16337148Y-16092484D02*
X16318101Y-16082960D01*
X16318101Y-16082960D02*
X16308577Y-16073436D01*
X16308577Y-16073436D02*
X16299053Y-16054388D01*
X16299053Y-16054388D02*
X16289529Y-16016293D01*
X16289529Y-16016293D02*
X16289529Y-15968674D01*
X16289529Y-15968674D02*
X16299053Y-15930579D01*
X16299053Y-15930579D02*
X16308577Y-15911531D01*
X16308577Y-15911531D02*
X16318101Y-15902008D01*
X16318101Y-15902008D02*
X16337148Y-15892484D01*
X16470482Y-15892484D02*
X16594291Y-15892484D01*
X16594291Y-15892484D02*
X16527625Y-15968674D01*
X16527625Y-15968674D02*
X16556196Y-15968674D01*
X16556196Y-15968674D02*
X16575244Y-15978198D01*
X16575244Y-15978198D02*
X16584767Y-15987722D01*
X16584767Y-15987722D02*
X16594291Y-16006769D01*
X16594291Y-16006769D02*
X16594291Y-16054388D01*
X16594291Y-16054388D02*
X16584767Y-16073436D01*
X16584767Y-16073436D02*
X16575244Y-16082960D01*
X16575244Y-16082960D02*
X16556196Y-16092484D01*
X16556196Y-16092484D02*
X16499053Y-16092484D01*
X16499053Y-16092484D02*
X16480006Y-16082960D01*
X16480006Y-16082960D02*
X16470482Y-16073436D01*
X16689529Y-16092484D02*
X16727625Y-16092484D01*
X16727625Y-16092484D02*
X16746672Y-16082960D01*
X16746672Y-16082960D02*
X16756196Y-16073436D01*
X16756196Y-16073436D02*
X16775244Y-16044865D01*
X16775244Y-16044865D02*
X16784768Y-16006769D01*
X16784768Y-16006769D02*
X16784768Y-15930579D01*
X16784768Y-15930579D02*
X16775244Y-15911531D01*
X16775244Y-15911531D02*
X16765720Y-15902008D01*
X16765720Y-15902008D02*
X16746672Y-15892484D01*
X16746672Y-15892484D02*
X16708577Y-15892484D01*
X16708577Y-15892484D02*
X16689529Y-15902008D01*
X16689529Y-15902008D02*
X16680006Y-15911531D01*
X16680006Y-15911531D02*
X16670482Y-15930579D01*
X16670482Y-15930579D02*
X16670482Y-15978198D01*
X16670482Y-15978198D02*
X16680006Y-15997246D01*
X16680006Y-15997246D02*
X16689529Y-16006769D01*
X16689529Y-16006769D02*
X16708577Y-16016293D01*
X16708577Y-16016293D02*
X16746672Y-16016293D01*
X16746672Y-16016293D02*
X16765720Y-16006769D01*
X16765720Y-16006769D02*
X16775244Y-15997246D01*
X16775244Y-15997246D02*
X16784768Y-15978198D01*
X16956196Y-15959150D02*
X16956196Y-16092484D01*
X16908577Y-15882960D02*
X16860958Y-16025817D01*
X16860958Y-16025817D02*
X16984768Y-16025817D01*
X17051434Y-15892484D02*
X17051434Y-15930579D01*
X17127625Y-15892484D02*
X17127625Y-15930579D01*
X17422863Y-16168674D02*
X17413339Y-16159150D01*
X17413339Y-16159150D02*
X17394291Y-16130579D01*
X17394291Y-16130579D02*
X17384768Y-16111531D01*
X17384768Y-16111531D02*
X17375244Y-16082960D01*
X17375244Y-16082960D02*
X17365720Y-16035341D01*
X17365720Y-16035341D02*
X17365720Y-15997246D01*
X17365720Y-15997246D02*
X17375244Y-15949627D01*
X17375244Y-15949627D02*
X17384768Y-15921055D01*
X17384768Y-15921055D02*
X17394291Y-15902008D01*
X17394291Y-15902008D02*
X17413339Y-15873436D01*
X17413339Y-15873436D02*
X17422863Y-15863912D01*
X17603815Y-16092484D02*
X17489530Y-16092484D01*
X17546672Y-16092484D02*
X17546672Y-15892484D01*
X17546672Y-15892484D02*
X17527625Y-15921055D01*
X17527625Y-15921055D02*
X17508577Y-15940103D01*
X17508577Y-15940103D02*
X17489530Y-15949627D01*
X17775244Y-15959150D02*
X17775244Y-16092484D01*
X17727625Y-15882960D02*
X17680006Y-16025817D01*
X17680006Y-16025817D02*
X17803815Y-16025817D01*
X18032387Y-16092484D02*
X18032387Y-15892484D01*
X18118101Y-16092484D02*
X18118101Y-15987722D01*
X18118101Y-15987722D02*
X18108577Y-15968674D01*
X18108577Y-15968674D02*
X18089530Y-15959150D01*
X18089530Y-15959150D02*
X18060958Y-15959150D01*
X18060958Y-15959150D02*
X18041911Y-15968674D01*
X18041911Y-15968674D02*
X18032387Y-15978198D01*
X18241911Y-16092484D02*
X18222863Y-16082960D01*
X18222863Y-16082960D02*
X18213339Y-16073436D01*
X18213339Y-16073436D02*
X18203815Y-16054388D01*
X18203815Y-16054388D02*
X18203815Y-15997246D01*
X18203815Y-15997246D02*
X18213339Y-15978198D01*
X18213339Y-15978198D02*
X18222863Y-15968674D01*
X18222863Y-15968674D02*
X18241911Y-15959150D01*
X18241911Y-15959150D02*
X18270482Y-15959150D01*
X18270482Y-15959150D02*
X18289530Y-15968674D01*
X18289530Y-15968674D02*
X18299053Y-15978198D01*
X18299053Y-15978198D02*
X18308577Y-15997246D01*
X18308577Y-15997246D02*
X18308577Y-16054388D01*
X18308577Y-16054388D02*
X18299053Y-16073436D01*
X18299053Y-16073436D02*
X18289530Y-16082960D01*
X18289530Y-16082960D02*
X18270482Y-16092484D01*
X18270482Y-16092484D02*
X18241911Y-16092484D01*
X18422863Y-16092484D02*
X18403815Y-16082960D01*
X18403815Y-16082960D02*
X18394292Y-16063912D01*
X18394292Y-16063912D02*
X18394292Y-15892484D01*
X18575244Y-16082960D02*
X18556196Y-16092484D01*
X18556196Y-16092484D02*
X18518101Y-16092484D01*
X18518101Y-16092484D02*
X18499053Y-16082960D01*
X18499053Y-16082960D02*
X18489530Y-16063912D01*
X18489530Y-16063912D02*
X18489530Y-15987722D01*
X18489530Y-15987722D02*
X18499053Y-15968674D01*
X18499053Y-15968674D02*
X18518101Y-15959150D01*
X18518101Y-15959150D02*
X18556196Y-15959150D01*
X18556196Y-15959150D02*
X18575244Y-15968674D01*
X18575244Y-15968674D02*
X18584768Y-15987722D01*
X18584768Y-15987722D02*
X18584768Y-16006769D01*
X18584768Y-16006769D02*
X18489530Y-16025817D01*
X18660958Y-16082960D02*
X18680006Y-16092484D01*
X18680006Y-16092484D02*
X18718101Y-16092484D01*
X18718101Y-16092484D02*
X18737149Y-16082960D01*
X18737149Y-16082960D02*
X18746673Y-16063912D01*
X18746673Y-16063912D02*
X18746673Y-16054388D01*
X18746673Y-16054388D02*
X18737149Y-16035341D01*
X18737149Y-16035341D02*
X18718101Y-16025817D01*
X18718101Y-16025817D02*
X18689530Y-16025817D01*
X18689530Y-16025817D02*
X18670482Y-16016293D01*
X18670482Y-16016293D02*
X18660958Y-15997246D01*
X18660958Y-15997246D02*
X18660958Y-15987722D01*
X18660958Y-15987722D02*
X18670482Y-15968674D01*
X18670482Y-15968674D02*
X18689530Y-15959150D01*
X18689530Y-15959150D02*
X18718101Y-15959150D01*
X18718101Y-15959150D02*
X18737149Y-15968674D01*
X18813339Y-16168674D02*
X18822863Y-16159150D01*
X18822863Y-16159150D02*
X18841911Y-16130579D01*
X18841911Y-16130579D02*
X18851434Y-16111531D01*
X18851434Y-16111531D02*
X18860958Y-16082960D01*
X18860958Y-16082960D02*
X18870482Y-16035341D01*
X18870482Y-16035341D02*
X18870482Y-15997246D01*
X18870482Y-15997246D02*
X18860958Y-15949627D01*
X18860958Y-15949627D02*
X18851434Y-15921055D01*
X18851434Y-15921055D02*
X18841911Y-15902008D01*
X18841911Y-15902008D02*
X18822863Y-15873436D01*
X18822863Y-15873436D02*
X18813339Y-15863912D01*
M02*
