G04 #@! TF.GenerationSoftware,KiCad,Pcbnew,8.0.6*
G04 #@! TF.CreationDate,2024-10-20T17:09:58+01:00*
G04 #@! TF.ProjectId,line-sensor-mini-kes,6c696e65-2d73-4656-9e73-6f722d6d696e,rev?*
G04 #@! TF.SameCoordinates,Original*
G04 #@! TF.FileFunction,Copper,L1,Top*
G04 #@! TF.FilePolarity,Positive*
%FSLAX46Y46*%
G04 Gerber Fmt 4.6, Leading zero omitted, Abs format (unit mm)*
G04 Created by KiCad (PCBNEW 8.0.6) date 2024-10-20 17:09:58*
%MOMM*%
%LPD*%
G01*
G04 APERTURE LIST*
G04 #@! TA.AperFunction,ComponentPad*
%ADD10R,1.800000X1.800000*%
G04 #@! TD*
G04 #@! TA.AperFunction,ComponentPad*
%ADD11C,1.800000*%
G04 #@! TD*
G04 #@! TA.AperFunction,ComponentPad*
%ADD12C,1.600000*%
G04 #@! TD*
G04 #@! TA.AperFunction,ComponentPad*
%ADD13O,1.600000X1.600000*%
G04 #@! TD*
G04 #@! TA.AperFunction,ComponentPad*
%ADD14R,1.600000X1.600000*%
G04 #@! TD*
G04 #@! TA.AperFunction,ComponentPad*
%ADD15R,1.700000X1.700000*%
G04 #@! TD*
G04 #@! TA.AperFunction,ComponentPad*
%ADD16O,1.700000X1.700000*%
G04 #@! TD*
G04 #@! TA.AperFunction,ViaPad*
%ADD17C,0.800000*%
G04 #@! TD*
G04 #@! TA.AperFunction,Conductor*
%ADD18C,0.750000*%
G04 #@! TD*
G04 #@! TA.AperFunction,Conductor*
%ADD19C,0.500000*%
G04 #@! TD*
G04 #@! TA.AperFunction,Conductor*
%ADD20C,0.250000*%
G04 #@! TD*
G04 APERTURE END LIST*
D10*
X152000000Y-130000000D03*
D11*
X152000000Y-127460000D03*
X152000000Y-124920000D03*
D12*
X157000000Y-112000000D03*
D13*
X164620000Y-112000000D03*
D12*
X157000000Y-116000000D03*
D13*
X164620000Y-116000000D03*
D12*
X157000000Y-98000000D03*
D13*
X164620000Y-98000000D03*
D12*
X147000000Y-142000000D03*
D13*
X154620000Y-142000000D03*
D10*
X158000000Y-136000000D03*
D11*
X160540000Y-136000000D03*
D12*
X147000000Y-72000000D03*
D13*
X154620000Y-72000000D03*
D12*
X157000000Y-128000000D03*
D13*
X164620000Y-128000000D03*
D12*
X147000000Y-134000000D03*
D13*
X154620000Y-134000000D03*
D10*
X158000000Y-74000000D03*
D11*
X160540000Y-74000000D03*
D12*
X147000000Y-68000000D03*
D13*
X154620000Y-68000000D03*
D12*
X147000000Y-138000000D03*
D13*
X154620000Y-138000000D03*
D14*
X159400000Y-106788614D03*
X161000000Y-106117677D03*
D12*
X161000000Y-103617677D03*
X162600000Y-102946740D03*
X157000000Y-132000000D03*
D13*
X164620000Y-132000000D03*
D12*
X147000000Y-76000000D03*
D13*
X154620000Y-76000000D03*
D12*
X157000000Y-86000000D03*
D13*
X164620000Y-86000000D03*
D10*
X140750000Y-74000000D03*
D11*
X143290000Y-74000000D03*
D10*
X151030000Y-100000000D03*
D11*
X153570000Y-100000000D03*
D10*
X151425000Y-105000000D03*
D11*
X153965000Y-105000000D03*
D10*
X140730000Y-142000000D03*
D11*
X143270000Y-142000000D03*
D10*
X140750000Y-136000000D03*
D11*
X143290000Y-136000000D03*
D15*
X142000000Y-88490000D03*
D16*
X142000000Y-91030000D03*
X142000000Y-93570000D03*
X142000000Y-96110000D03*
X142000000Y-98650000D03*
X142000000Y-101190000D03*
X142000000Y-103730000D03*
X142000000Y-106270000D03*
X142000000Y-108810000D03*
X142000000Y-111350000D03*
X142000000Y-113890000D03*
X142000000Y-116430000D03*
X142000000Y-118970000D03*
X142000000Y-121510000D03*
D10*
X140730000Y-68000000D03*
D11*
X143270000Y-68000000D03*
D10*
X151130000Y-110000000D03*
D11*
X153670000Y-110000000D03*
D17*
X141000000Y-123600000D03*
X141900000Y-77800000D03*
X150000000Y-94000000D03*
X150000000Y-89000000D03*
X147900000Y-112200000D03*
X150000000Y-112200000D03*
X156200000Y-108900000D03*
X156200000Y-106900000D03*
D18*
X157000000Y-88250000D02*
X154250000Y-91000000D01*
X165144031Y-126044031D02*
X166444031Y-127344031D01*
X154620000Y-72000000D02*
X157532638Y-69087362D01*
X157474500Y-107925500D02*
X157700000Y-107700000D01*
X151130000Y-110000000D02*
X153204500Y-107925500D01*
X166444031Y-127344031D02*
X166444031Y-132321449D01*
X153204500Y-107925500D02*
X157474500Y-107925500D01*
X154015480Y-144750000D02*
X143500000Y-144750000D01*
X159525000Y-101475000D02*
X159625000Y-101575000D01*
X151030000Y-100000000D02*
X152505000Y-101475000D01*
X159750000Y-88250000D02*
X164000000Y-84000000D01*
X165300000Y-84000000D02*
X166444031Y-82855969D01*
X154620000Y-138000000D02*
X157602740Y-140982740D01*
X164000000Y-84000000D02*
X165300000Y-84000000D01*
X157000000Y-88250000D02*
X159650000Y-88250000D01*
X157532638Y-69087362D02*
X157712638Y-69087362D01*
X147000000Y-91000000D02*
X147000000Y-90280000D01*
X154015480Y-144750000D02*
X157782740Y-140982740D01*
X145210000Y-88490000D02*
X142000000Y-88490000D01*
X166444031Y-82855969D02*
X166444031Y-77818756D01*
X161844031Y-114044031D02*
X157700000Y-109900000D01*
X159625000Y-88275000D02*
X159650000Y-88250000D01*
X154250000Y-91000000D02*
X151900000Y-91000000D01*
X147000000Y-90280000D02*
X145210000Y-88490000D01*
X159625000Y-101575000D02*
X159625000Y-88275000D01*
X143500000Y-144750000D02*
X140750000Y-142000000D01*
X153875276Y-65250000D02*
X143500000Y-65250000D01*
X151750000Y-91000000D02*
X147000000Y-91000000D01*
X161844031Y-126044031D02*
X161844031Y-114044031D01*
X151875000Y-90875000D02*
X151750000Y-91000000D01*
X153875276Y-65250000D02*
X157712638Y-69087362D01*
X166444031Y-77818756D02*
X157712638Y-69087362D01*
X159650000Y-88250000D02*
X159750000Y-88250000D01*
X143500000Y-65250000D02*
X140750000Y-68000000D01*
X157000000Y-86000000D02*
X157000000Y-88250000D01*
X140730000Y-68000000D02*
X143480000Y-65250000D01*
X157700000Y-109900000D02*
X157700000Y-107700000D01*
X152505000Y-101475000D02*
X159525000Y-101475000D01*
X166444031Y-132321449D02*
X157782740Y-140982740D01*
X157602740Y-140982740D02*
X157782740Y-140982740D01*
X157700000Y-107700000D02*
X157700000Y-103500000D01*
X157700000Y-103500000D02*
X159625000Y-101575000D01*
X143480000Y-65250000D02*
X153875276Y-65250000D01*
X161844031Y-126044031D02*
X165144031Y-126044031D01*
D19*
X145890242Y-135900000D02*
X143289743Y-133299501D01*
X139800000Y-116090000D02*
X142000000Y-113890000D01*
X157100000Y-138100000D02*
X154900000Y-135900000D01*
X158440000Y-138100000D02*
X157100000Y-138100000D01*
X154900000Y-135900000D02*
X145890242Y-135900000D01*
X142310257Y-133299501D02*
X139800000Y-130789244D01*
X139800000Y-130789244D02*
X139800000Y-116090000D01*
X160540000Y-136000000D02*
X158440000Y-138100000D01*
X143289743Y-133299501D02*
X142310257Y-133299501D01*
X140500000Y-124100000D02*
X140500000Y-130500000D01*
X141000000Y-123600000D02*
X140500000Y-124100000D01*
X159120000Y-133500000D02*
X164620000Y-128000000D01*
X155500000Y-132600000D02*
X156400000Y-133500000D01*
X142600000Y-132600000D02*
X155500000Y-132600000D01*
X140500000Y-130500000D02*
X142600000Y-132600000D01*
X156400000Y-133500000D02*
X159120000Y-133500000D01*
X155200000Y-77400000D02*
X156430000Y-76170000D01*
X156430000Y-76170000D02*
X158370000Y-76170000D01*
X142300000Y-77400000D02*
X155200000Y-77400000D01*
X141900000Y-77800000D02*
X142300000Y-77400000D01*
X158370000Y-76170000D02*
X160540000Y-74000000D01*
D18*
X150000000Y-94000000D02*
X150000000Y-94675000D01*
X148900000Y-113575000D02*
X148900000Y-105000000D01*
X150000000Y-86500000D02*
X149000000Y-85500000D01*
X150325000Y-96650000D02*
X150325000Y-95000000D01*
X142075000Y-84325000D02*
X140750000Y-83000000D01*
X152000000Y-130000000D02*
X147400000Y-125400000D01*
X149000000Y-85500000D02*
X143250000Y-85500000D01*
X147400000Y-118000000D02*
X150325000Y-115075000D01*
X150325000Y-115000000D02*
X148900000Y-113575000D01*
X147400000Y-125400000D02*
X147400000Y-118000000D01*
X140750000Y-83000000D02*
X140750000Y-74000000D01*
X150000000Y-86500000D02*
X150000000Y-89000000D01*
X150000000Y-94675000D02*
X150325000Y-95000000D01*
X151425000Y-105000000D02*
X148900000Y-105000000D01*
X148900000Y-105000000D02*
X148900000Y-98075000D01*
D19*
X142075000Y-84325000D02*
X142350000Y-84600000D01*
D18*
X148900000Y-98075000D02*
X150325000Y-96650000D01*
X143250000Y-85500000D02*
X142075000Y-84325000D01*
D19*
X146000000Y-94500000D02*
X147800000Y-92700000D01*
X147800000Y-92700000D02*
X157900000Y-92700000D01*
X146000000Y-98200000D02*
X146000000Y-94500000D01*
X158700000Y-93500000D02*
X158700000Y-96300000D01*
X145550000Y-98650000D02*
X146000000Y-98200000D01*
X155000000Y-100000000D02*
X157000000Y-98000000D01*
X157900000Y-92700000D02*
X158700000Y-93500000D01*
X158700000Y-96300000D02*
X157000000Y-98000000D01*
X142000000Y-98650000D02*
X145550000Y-98650000D01*
X153570000Y-100000000D02*
X155000000Y-100000000D01*
X146600000Y-110900000D02*
X146600000Y-102500000D01*
X147900000Y-112200000D02*
X146600000Y-110900000D01*
X146600000Y-102500000D02*
X145290000Y-101190000D01*
X155300000Y-111630000D02*
X155300000Y-114300000D01*
X155300000Y-114300000D02*
X157000000Y-116000000D01*
X145290000Y-101190000D02*
X142000000Y-101190000D01*
X150000000Y-112200000D02*
X151470000Y-112200000D01*
X151470000Y-112200000D02*
X153670000Y-110000000D01*
X153670000Y-110000000D02*
X155300000Y-111630000D01*
X139100499Y-137830499D02*
X143270000Y-142000000D01*
X142000000Y-106270000D02*
X139100499Y-109169501D01*
D20*
X139000000Y-109270000D02*
X142000000Y-106270000D01*
D19*
X143270000Y-142000000D02*
X147000000Y-142000000D01*
X139100499Y-109169501D02*
X139100499Y-137830499D01*
D18*
X161000000Y-106117677D02*
X166482323Y-106117677D01*
X166605000Y-111795000D02*
X166605000Y-105995000D01*
X166605000Y-93895000D02*
X166605000Y-87985000D01*
X166482323Y-106117677D02*
X166605000Y-105995000D01*
X166605000Y-118015000D02*
X166605000Y-111795000D01*
X164620000Y-94000000D02*
X166500000Y-94000000D01*
X166400000Y-112000000D02*
X166605000Y-111795000D01*
X166605000Y-105995000D02*
X166605000Y-93895000D01*
X164620000Y-112000000D02*
X166400000Y-112000000D01*
X166500000Y-94000000D02*
X166605000Y-93895000D01*
X166605000Y-87985000D02*
X164620000Y-86000000D01*
D19*
X139150500Y-72139500D02*
X139150500Y-101650500D01*
X142000000Y-103730000D02*
X141230000Y-103730000D01*
X141230000Y-103730000D02*
X140000000Y-102500000D01*
X147000000Y-68000000D02*
X143290000Y-68000000D01*
X139150500Y-101650500D02*
X140250000Y-102750000D01*
X143290000Y-68000000D02*
X139150500Y-72139500D01*
X145000000Y-74000000D02*
X147000000Y-72000000D01*
X143290000Y-74000000D02*
X145000000Y-74000000D01*
X156200001Y-111200001D02*
X156200000Y-108900000D01*
X157000000Y-112000000D02*
X156200001Y-111200001D01*
X154200000Y-105000000D02*
X156100000Y-106900000D01*
X156100000Y-106900000D02*
X156200000Y-106900000D01*
X145290000Y-138000000D02*
X147000000Y-138000000D01*
X143290000Y-136000000D02*
X145290000Y-138000000D01*
X158000000Y-74000000D02*
X156620000Y-74000000D01*
X156620000Y-74000000D02*
X154620000Y-76000000D01*
X154620000Y-134000000D02*
X156620000Y-136000000D01*
X156620000Y-136000000D02*
X158000000Y-136000000D01*
X157000000Y-128000000D02*
X157000000Y-132000000D01*
X156460000Y-127460000D02*
X157000000Y-128000000D01*
X152000000Y-127460000D02*
X156460000Y-127460000D01*
M02*
