%TF.GenerationSoftware,KiCad,Pcbnew,8.0.6*%
%TF.CreationDate,2024-10-20T17:13:29+01:00*%
%TF.ProjectId,line-sensor-mini-kes,6c696e65-2d73-4656-9e73-6f722d6d696e,rev?*%
%TF.SameCoordinates,Original*%
%TF.FileFunction,Drillmap*%
%TF.FilePolarity,Positive*%
%FSLAX45Y45*%
G04 Gerber Fmt 4.5, Leading zero omitted, Abs format (unit mm)*
G04 Created by KiCad (PCBNEW 8.0.6) date 2024-10-20 17:13:29*
%MOMM*%
%LPD*%
G01*
G04 APERTURE LIST*
%ADD10C,0.100000*%
%ADD11C,0.200000*%
%ADD12C,0.320000*%
G04 APERTURE END LIST*
D10*
X15453000Y-6436000D02*
X16723000Y-7706000D01*
X16723000Y-13294000D02*
X15453000Y-14564000D01*
X16723000Y-7706000D02*
X16723000Y-13294000D01*
X15453000Y-14564000D02*
X13852800Y-14564000D01*
X13852800Y-6436000D02*
X15453000Y-6436000D01*
X13852800Y-14564000D02*
X13852800Y-6436000D01*
D11*
D12*
X14277000Y-7927000D02*
X14597000Y-8247000D01*
X14597000Y-7927000D02*
X14277000Y-8247000D01*
X14277000Y-12753000D02*
X14597000Y-13073000D01*
X14597000Y-12753000D02*
X14277000Y-13073000D01*
D11*
X14108577Y-14880484D02*
X14108577Y-14680484D01*
X14108577Y-14680484D02*
X14156196Y-14680484D01*
X14156196Y-14680484D02*
X14184767Y-14690008D01*
X14184767Y-14690008D02*
X14203815Y-14709055D01*
X14203815Y-14709055D02*
X14213339Y-14728103D01*
X14213339Y-14728103D02*
X14222862Y-14766198D01*
X14222862Y-14766198D02*
X14222862Y-14794769D01*
X14222862Y-14794769D02*
X14213339Y-14832865D01*
X14213339Y-14832865D02*
X14203815Y-14851912D01*
X14203815Y-14851912D02*
X14184767Y-14870960D01*
X14184767Y-14870960D02*
X14156196Y-14880484D01*
X14156196Y-14880484D02*
X14108577Y-14880484D01*
X14308577Y-14880484D02*
X14308577Y-14747150D01*
X14308577Y-14785246D02*
X14318101Y-14766198D01*
X14318101Y-14766198D02*
X14327624Y-14756674D01*
X14327624Y-14756674D02*
X14346672Y-14747150D01*
X14346672Y-14747150D02*
X14365720Y-14747150D01*
X14432386Y-14880484D02*
X14432386Y-14747150D01*
X14432386Y-14680484D02*
X14422862Y-14690008D01*
X14422862Y-14690008D02*
X14432386Y-14699531D01*
X14432386Y-14699531D02*
X14441910Y-14690008D01*
X14441910Y-14690008D02*
X14432386Y-14680484D01*
X14432386Y-14680484D02*
X14432386Y-14699531D01*
X14556196Y-14880484D02*
X14537148Y-14870960D01*
X14537148Y-14870960D02*
X14527624Y-14851912D01*
X14527624Y-14851912D02*
X14527624Y-14680484D01*
X14660958Y-14880484D02*
X14641910Y-14870960D01*
X14641910Y-14870960D02*
X14632386Y-14851912D01*
X14632386Y-14851912D02*
X14632386Y-14680484D01*
X14889529Y-14880484D02*
X14889529Y-14680484D01*
X14889529Y-14680484D02*
X14956196Y-14823341D01*
X14956196Y-14823341D02*
X15022862Y-14680484D01*
X15022862Y-14680484D02*
X15022862Y-14880484D01*
X15203815Y-14880484D02*
X15203815Y-14775722D01*
X15203815Y-14775722D02*
X15194291Y-14756674D01*
X15194291Y-14756674D02*
X15175243Y-14747150D01*
X15175243Y-14747150D02*
X15137148Y-14747150D01*
X15137148Y-14747150D02*
X15118101Y-14756674D01*
X15203815Y-14870960D02*
X15184767Y-14880484D01*
X15184767Y-14880484D02*
X15137148Y-14880484D01*
X15137148Y-14880484D02*
X15118101Y-14870960D01*
X15118101Y-14870960D02*
X15108577Y-14851912D01*
X15108577Y-14851912D02*
X15108577Y-14832865D01*
X15108577Y-14832865D02*
X15118101Y-14813817D01*
X15118101Y-14813817D02*
X15137148Y-14804293D01*
X15137148Y-14804293D02*
X15184767Y-14804293D01*
X15184767Y-14804293D02*
X15203815Y-14794769D01*
X15299053Y-14747150D02*
X15299053Y-14947150D01*
X15299053Y-14756674D02*
X15318101Y-14747150D01*
X15318101Y-14747150D02*
X15356196Y-14747150D01*
X15356196Y-14747150D02*
X15375243Y-14756674D01*
X15375243Y-14756674D02*
X15384767Y-14766198D01*
X15384767Y-14766198D02*
X15394291Y-14785246D01*
X15394291Y-14785246D02*
X15394291Y-14842388D01*
X15394291Y-14842388D02*
X15384767Y-14861436D01*
X15384767Y-14861436D02*
X15375243Y-14870960D01*
X15375243Y-14870960D02*
X15356196Y-14880484D01*
X15356196Y-14880484D02*
X15318101Y-14880484D01*
X15318101Y-14880484D02*
X15299053Y-14870960D01*
X15480005Y-14861436D02*
X15489529Y-14870960D01*
X15489529Y-14870960D02*
X15480005Y-14880484D01*
X15480005Y-14880484D02*
X15470482Y-14870960D01*
X15470482Y-14870960D02*
X15480005Y-14861436D01*
X15480005Y-14861436D02*
X15480005Y-14880484D01*
X15480005Y-14756674D02*
X15489529Y-14766198D01*
X15489529Y-14766198D02*
X15480005Y-14775722D01*
X15480005Y-14775722D02*
X15470482Y-14766198D01*
X15470482Y-14766198D02*
X15480005Y-14756674D01*
X15480005Y-14756674D02*
X15480005Y-14775722D01*
X13647800Y-15109000D02*
X13847800Y-15309000D01*
X13847800Y-15109000D02*
X13647800Y-15309000D01*
X14089529Y-15100484D02*
X14213339Y-15100484D01*
X14213339Y-15100484D02*
X14146672Y-15176674D01*
X14146672Y-15176674D02*
X14175243Y-15176674D01*
X14175243Y-15176674D02*
X14194291Y-15186198D01*
X14194291Y-15186198D02*
X14203815Y-15195722D01*
X14203815Y-15195722D02*
X14213339Y-15214769D01*
X14213339Y-15214769D02*
X14213339Y-15262388D01*
X14213339Y-15262388D02*
X14203815Y-15281436D01*
X14203815Y-15281436D02*
X14194291Y-15290960D01*
X14194291Y-15290960D02*
X14175243Y-15300484D01*
X14175243Y-15300484D02*
X14118101Y-15300484D01*
X14118101Y-15300484D02*
X14099053Y-15290960D01*
X14099053Y-15290960D02*
X14089529Y-15281436D01*
X14299053Y-15281436D02*
X14308577Y-15290960D01*
X14308577Y-15290960D02*
X14299053Y-15300484D01*
X14299053Y-15300484D02*
X14289529Y-15290960D01*
X14289529Y-15290960D02*
X14299053Y-15281436D01*
X14299053Y-15281436D02*
X14299053Y-15300484D01*
X14384767Y-15119531D02*
X14394291Y-15110008D01*
X14394291Y-15110008D02*
X14413339Y-15100484D01*
X14413339Y-15100484D02*
X14460958Y-15100484D01*
X14460958Y-15100484D02*
X14480005Y-15110008D01*
X14480005Y-15110008D02*
X14489529Y-15119531D01*
X14489529Y-15119531D02*
X14499053Y-15138579D01*
X14499053Y-15138579D02*
X14499053Y-15157627D01*
X14499053Y-15157627D02*
X14489529Y-15186198D01*
X14489529Y-15186198D02*
X14375243Y-15300484D01*
X14375243Y-15300484D02*
X14499053Y-15300484D01*
X14622862Y-15100484D02*
X14641910Y-15100484D01*
X14641910Y-15100484D02*
X14660958Y-15110008D01*
X14660958Y-15110008D02*
X14670482Y-15119531D01*
X14670482Y-15119531D02*
X14680005Y-15138579D01*
X14680005Y-15138579D02*
X14689529Y-15176674D01*
X14689529Y-15176674D02*
X14689529Y-15224293D01*
X14689529Y-15224293D02*
X14680005Y-15262388D01*
X14680005Y-15262388D02*
X14670482Y-15281436D01*
X14670482Y-15281436D02*
X14660958Y-15290960D01*
X14660958Y-15290960D02*
X14641910Y-15300484D01*
X14641910Y-15300484D02*
X14622862Y-15300484D01*
X14622862Y-15300484D02*
X14603815Y-15290960D01*
X14603815Y-15290960D02*
X14594291Y-15281436D01*
X14594291Y-15281436D02*
X14584767Y-15262388D01*
X14584767Y-15262388D02*
X14575243Y-15224293D01*
X14575243Y-15224293D02*
X14575243Y-15176674D01*
X14575243Y-15176674D02*
X14584767Y-15138579D01*
X14584767Y-15138579D02*
X14594291Y-15119531D01*
X14594291Y-15119531D02*
X14603815Y-15110008D01*
X14603815Y-15110008D02*
X14622862Y-15100484D01*
X14813339Y-15100484D02*
X14832386Y-15100484D01*
X14832386Y-15100484D02*
X14851434Y-15110008D01*
X14851434Y-15110008D02*
X14860958Y-15119531D01*
X14860958Y-15119531D02*
X14870482Y-15138579D01*
X14870482Y-15138579D02*
X14880005Y-15176674D01*
X14880005Y-15176674D02*
X14880005Y-15224293D01*
X14880005Y-15224293D02*
X14870482Y-15262388D01*
X14870482Y-15262388D02*
X14860958Y-15281436D01*
X14860958Y-15281436D02*
X14851434Y-15290960D01*
X14851434Y-15290960D02*
X14832386Y-15300484D01*
X14832386Y-15300484D02*
X14813339Y-15300484D01*
X14813339Y-15300484D02*
X14794291Y-15290960D01*
X14794291Y-15290960D02*
X14784767Y-15281436D01*
X14784767Y-15281436D02*
X14775243Y-15262388D01*
X14775243Y-15262388D02*
X14765720Y-15224293D01*
X14765720Y-15224293D02*
X14765720Y-15176674D01*
X14765720Y-15176674D02*
X14775243Y-15138579D01*
X14775243Y-15138579D02*
X14784767Y-15119531D01*
X14784767Y-15119531D02*
X14794291Y-15110008D01*
X14794291Y-15110008D02*
X14813339Y-15100484D01*
X14965720Y-15300484D02*
X14965720Y-15167150D01*
X14965720Y-15186198D02*
X14975243Y-15176674D01*
X14975243Y-15176674D02*
X14994291Y-15167150D01*
X14994291Y-15167150D02*
X15022863Y-15167150D01*
X15022863Y-15167150D02*
X15041910Y-15176674D01*
X15041910Y-15176674D02*
X15051434Y-15195722D01*
X15051434Y-15195722D02*
X15051434Y-15300484D01*
X15051434Y-15195722D02*
X15060958Y-15176674D01*
X15060958Y-15176674D02*
X15080005Y-15167150D01*
X15080005Y-15167150D02*
X15108577Y-15167150D01*
X15108577Y-15167150D02*
X15127624Y-15176674D01*
X15127624Y-15176674D02*
X15137148Y-15195722D01*
X15137148Y-15195722D02*
X15137148Y-15300484D01*
X15232386Y-15300484D02*
X15232386Y-15167150D01*
X15232386Y-15186198D02*
X15241910Y-15176674D01*
X15241910Y-15176674D02*
X15260958Y-15167150D01*
X15260958Y-15167150D02*
X15289529Y-15167150D01*
X15289529Y-15167150D02*
X15308577Y-15176674D01*
X15308577Y-15176674D02*
X15318101Y-15195722D01*
X15318101Y-15195722D02*
X15318101Y-15300484D01*
X15318101Y-15195722D02*
X15327624Y-15176674D01*
X15327624Y-15176674D02*
X15346672Y-15167150D01*
X15346672Y-15167150D02*
X15375243Y-15167150D01*
X15375243Y-15167150D02*
X15394291Y-15176674D01*
X15394291Y-15176674D02*
X15403815Y-15195722D01*
X15403815Y-15195722D02*
X15403815Y-15300484D01*
X15794291Y-15090960D02*
X15622863Y-15348103D01*
X16051434Y-15100484D02*
X16070482Y-15100484D01*
X16070482Y-15100484D02*
X16089529Y-15110008D01*
X16089529Y-15110008D02*
X16099053Y-15119531D01*
X16099053Y-15119531D02*
X16108577Y-15138579D01*
X16108577Y-15138579D02*
X16118101Y-15176674D01*
X16118101Y-15176674D02*
X16118101Y-15224293D01*
X16118101Y-15224293D02*
X16108577Y-15262388D01*
X16108577Y-15262388D02*
X16099053Y-15281436D01*
X16099053Y-15281436D02*
X16089529Y-15290960D01*
X16089529Y-15290960D02*
X16070482Y-15300484D01*
X16070482Y-15300484D02*
X16051434Y-15300484D01*
X16051434Y-15300484D02*
X16032386Y-15290960D01*
X16032386Y-15290960D02*
X16022863Y-15281436D01*
X16022863Y-15281436D02*
X16013339Y-15262388D01*
X16013339Y-15262388D02*
X16003815Y-15224293D01*
X16003815Y-15224293D02*
X16003815Y-15176674D01*
X16003815Y-15176674D02*
X16013339Y-15138579D01*
X16013339Y-15138579D02*
X16022863Y-15119531D01*
X16022863Y-15119531D02*
X16032386Y-15110008D01*
X16032386Y-15110008D02*
X16051434Y-15100484D01*
X16203815Y-15281436D02*
X16213339Y-15290960D01*
X16213339Y-15290960D02*
X16203815Y-15300484D01*
X16203815Y-15300484D02*
X16194291Y-15290960D01*
X16194291Y-15290960D02*
X16203815Y-15281436D01*
X16203815Y-15281436D02*
X16203815Y-15300484D01*
X16403815Y-15300484D02*
X16289529Y-15300484D01*
X16346672Y-15300484D02*
X16346672Y-15100484D01*
X16346672Y-15100484D02*
X16327625Y-15129055D01*
X16327625Y-15129055D02*
X16308577Y-15148103D01*
X16308577Y-15148103D02*
X16289529Y-15157627D01*
X16480006Y-15119531D02*
X16489529Y-15110008D01*
X16489529Y-15110008D02*
X16508577Y-15100484D01*
X16508577Y-15100484D02*
X16556196Y-15100484D01*
X16556196Y-15100484D02*
X16575244Y-15110008D01*
X16575244Y-15110008D02*
X16584767Y-15119531D01*
X16584767Y-15119531D02*
X16594291Y-15138579D01*
X16594291Y-15138579D02*
X16594291Y-15157627D01*
X16594291Y-15157627D02*
X16584767Y-15186198D01*
X16584767Y-15186198D02*
X16470482Y-15300484D01*
X16470482Y-15300484D02*
X16594291Y-15300484D01*
X16765720Y-15100484D02*
X16727625Y-15100484D01*
X16727625Y-15100484D02*
X16708577Y-15110008D01*
X16708577Y-15110008D02*
X16699053Y-15119531D01*
X16699053Y-15119531D02*
X16680006Y-15148103D01*
X16680006Y-15148103D02*
X16670482Y-15186198D01*
X16670482Y-15186198D02*
X16670482Y-15262388D01*
X16670482Y-15262388D02*
X16680006Y-15281436D01*
X16680006Y-15281436D02*
X16689529Y-15290960D01*
X16689529Y-15290960D02*
X16708577Y-15300484D01*
X16708577Y-15300484D02*
X16746672Y-15300484D01*
X16746672Y-15300484D02*
X16765720Y-15290960D01*
X16765720Y-15290960D02*
X16775244Y-15281436D01*
X16775244Y-15281436D02*
X16784768Y-15262388D01*
X16784768Y-15262388D02*
X16784768Y-15214769D01*
X16784768Y-15214769D02*
X16775244Y-15195722D01*
X16775244Y-15195722D02*
X16765720Y-15186198D01*
X16765720Y-15186198D02*
X16746672Y-15176674D01*
X16746672Y-15176674D02*
X16708577Y-15176674D01*
X16708577Y-15176674D02*
X16689529Y-15186198D01*
X16689529Y-15186198D02*
X16680006Y-15195722D01*
X16680006Y-15195722D02*
X16670482Y-15214769D01*
X16908577Y-15100484D02*
X16927625Y-15100484D01*
X16927625Y-15100484D02*
X16946672Y-15110008D01*
X16946672Y-15110008D02*
X16956196Y-15119531D01*
X16956196Y-15119531D02*
X16965720Y-15138579D01*
X16965720Y-15138579D02*
X16975244Y-15176674D01*
X16975244Y-15176674D02*
X16975244Y-15224293D01*
X16975244Y-15224293D02*
X16965720Y-15262388D01*
X16965720Y-15262388D02*
X16956196Y-15281436D01*
X16956196Y-15281436D02*
X16946672Y-15290960D01*
X16946672Y-15290960D02*
X16927625Y-15300484D01*
X16927625Y-15300484D02*
X16908577Y-15300484D01*
X16908577Y-15300484D02*
X16889529Y-15290960D01*
X16889529Y-15290960D02*
X16880006Y-15281436D01*
X16880006Y-15281436D02*
X16870482Y-15262388D01*
X16870482Y-15262388D02*
X16860958Y-15224293D01*
X16860958Y-15224293D02*
X16860958Y-15176674D01*
X16860958Y-15176674D02*
X16870482Y-15138579D01*
X16870482Y-15138579D02*
X16880006Y-15119531D01*
X16880006Y-15119531D02*
X16889529Y-15110008D01*
X16889529Y-15110008D02*
X16908577Y-15100484D01*
X17051434Y-15100484D02*
X17051434Y-15138579D01*
X17127625Y-15100484D02*
X17127625Y-15138579D01*
X17422863Y-15376674D02*
X17413339Y-15367150D01*
X17413339Y-15367150D02*
X17394291Y-15338579D01*
X17394291Y-15338579D02*
X17384768Y-15319531D01*
X17384768Y-15319531D02*
X17375244Y-15290960D01*
X17375244Y-15290960D02*
X17365720Y-15243341D01*
X17365720Y-15243341D02*
X17365720Y-15205246D01*
X17365720Y-15205246D02*
X17375244Y-15157627D01*
X17375244Y-15157627D02*
X17384768Y-15129055D01*
X17384768Y-15129055D02*
X17394291Y-15110008D01*
X17394291Y-15110008D02*
X17413339Y-15081436D01*
X17413339Y-15081436D02*
X17422863Y-15071912D01*
X17489530Y-15119531D02*
X17499053Y-15110008D01*
X17499053Y-15110008D02*
X17518101Y-15100484D01*
X17518101Y-15100484D02*
X17565720Y-15100484D01*
X17565720Y-15100484D02*
X17584768Y-15110008D01*
X17584768Y-15110008D02*
X17594291Y-15119531D01*
X17594291Y-15119531D02*
X17603815Y-15138579D01*
X17603815Y-15138579D02*
X17603815Y-15157627D01*
X17603815Y-15157627D02*
X17594291Y-15186198D01*
X17594291Y-15186198D02*
X17480006Y-15300484D01*
X17480006Y-15300484D02*
X17603815Y-15300484D01*
X17841911Y-15300484D02*
X17841911Y-15100484D01*
X17927625Y-15300484D02*
X17927625Y-15195722D01*
X17927625Y-15195722D02*
X17918101Y-15176674D01*
X17918101Y-15176674D02*
X17899053Y-15167150D01*
X17899053Y-15167150D02*
X17870482Y-15167150D01*
X17870482Y-15167150D02*
X17851434Y-15176674D01*
X17851434Y-15176674D02*
X17841911Y-15186198D01*
X18051434Y-15300484D02*
X18032387Y-15290960D01*
X18032387Y-15290960D02*
X18022863Y-15281436D01*
X18022863Y-15281436D02*
X18013339Y-15262388D01*
X18013339Y-15262388D02*
X18013339Y-15205246D01*
X18013339Y-15205246D02*
X18022863Y-15186198D01*
X18022863Y-15186198D02*
X18032387Y-15176674D01*
X18032387Y-15176674D02*
X18051434Y-15167150D01*
X18051434Y-15167150D02*
X18080006Y-15167150D01*
X18080006Y-15167150D02*
X18099053Y-15176674D01*
X18099053Y-15176674D02*
X18108577Y-15186198D01*
X18108577Y-15186198D02*
X18118101Y-15205246D01*
X18118101Y-15205246D02*
X18118101Y-15262388D01*
X18118101Y-15262388D02*
X18108577Y-15281436D01*
X18108577Y-15281436D02*
X18099053Y-15290960D01*
X18099053Y-15290960D02*
X18080006Y-15300484D01*
X18080006Y-15300484D02*
X18051434Y-15300484D01*
X18232387Y-15300484D02*
X18213339Y-15290960D01*
X18213339Y-15290960D02*
X18203815Y-15271912D01*
X18203815Y-15271912D02*
X18203815Y-15100484D01*
X18384768Y-15290960D02*
X18365720Y-15300484D01*
X18365720Y-15300484D02*
X18327625Y-15300484D01*
X18327625Y-15300484D02*
X18308577Y-15290960D01*
X18308577Y-15290960D02*
X18299053Y-15271912D01*
X18299053Y-15271912D02*
X18299053Y-15195722D01*
X18299053Y-15195722D02*
X18308577Y-15176674D01*
X18308577Y-15176674D02*
X18327625Y-15167150D01*
X18327625Y-15167150D02*
X18365720Y-15167150D01*
X18365720Y-15167150D02*
X18384768Y-15176674D01*
X18384768Y-15176674D02*
X18394292Y-15195722D01*
X18394292Y-15195722D02*
X18394292Y-15214769D01*
X18394292Y-15214769D02*
X18299053Y-15233817D01*
X18470482Y-15290960D02*
X18489530Y-15300484D01*
X18489530Y-15300484D02*
X18527625Y-15300484D01*
X18527625Y-15300484D02*
X18546673Y-15290960D01*
X18546673Y-15290960D02*
X18556196Y-15271912D01*
X18556196Y-15271912D02*
X18556196Y-15262388D01*
X18556196Y-15262388D02*
X18546673Y-15243341D01*
X18546673Y-15243341D02*
X18527625Y-15233817D01*
X18527625Y-15233817D02*
X18499053Y-15233817D01*
X18499053Y-15233817D02*
X18480006Y-15224293D01*
X18480006Y-15224293D02*
X18470482Y-15205246D01*
X18470482Y-15205246D02*
X18470482Y-15195722D01*
X18470482Y-15195722D02*
X18480006Y-15176674D01*
X18480006Y-15176674D02*
X18499053Y-15167150D01*
X18499053Y-15167150D02*
X18527625Y-15167150D01*
X18527625Y-15167150D02*
X18546673Y-15176674D01*
X18622863Y-15376674D02*
X18632387Y-15367150D01*
X18632387Y-15367150D02*
X18651434Y-15338579D01*
X18651434Y-15338579D02*
X18660958Y-15319531D01*
X18660958Y-15319531D02*
X18670482Y-15290960D01*
X18670482Y-15290960D02*
X18680006Y-15243341D01*
X18680006Y-15243341D02*
X18680006Y-15205246D01*
X18680006Y-15205246D02*
X18670482Y-15157627D01*
X18670482Y-15157627D02*
X18660958Y-15129055D01*
X18660958Y-15129055D02*
X18651434Y-15110008D01*
X18651434Y-15110008D02*
X18632387Y-15081436D01*
X18632387Y-15081436D02*
X18622863Y-15071912D01*
X18984768Y-15376674D02*
X18975244Y-15367150D01*
X18975244Y-15367150D02*
X18956196Y-15338579D01*
X18956196Y-15338579D02*
X18946673Y-15319531D01*
X18946673Y-15319531D02*
X18937149Y-15290960D01*
X18937149Y-15290960D02*
X18927625Y-15243341D01*
X18927625Y-15243341D02*
X18927625Y-15205246D01*
X18927625Y-15205246D02*
X18937149Y-15157627D01*
X18937149Y-15157627D02*
X18946673Y-15129055D01*
X18946673Y-15129055D02*
X18956196Y-15110008D01*
X18956196Y-15110008D02*
X18975244Y-15081436D01*
X18975244Y-15081436D02*
X18984768Y-15071912D01*
X19060958Y-15167150D02*
X19060958Y-15300484D01*
X19060958Y-15186198D02*
X19070482Y-15176674D01*
X19070482Y-15176674D02*
X19089530Y-15167150D01*
X19089530Y-15167150D02*
X19118101Y-15167150D01*
X19118101Y-15167150D02*
X19137149Y-15176674D01*
X19137149Y-15176674D02*
X19146673Y-15195722D01*
X19146673Y-15195722D02*
X19146673Y-15300484D01*
X19270482Y-15300484D02*
X19251434Y-15290960D01*
X19251434Y-15290960D02*
X19241911Y-15281436D01*
X19241911Y-15281436D02*
X19232387Y-15262388D01*
X19232387Y-15262388D02*
X19232387Y-15205246D01*
X19232387Y-15205246D02*
X19241911Y-15186198D01*
X19241911Y-15186198D02*
X19251434Y-15176674D01*
X19251434Y-15176674D02*
X19270482Y-15167150D01*
X19270482Y-15167150D02*
X19299054Y-15167150D01*
X19299054Y-15167150D02*
X19318101Y-15176674D01*
X19318101Y-15176674D02*
X19327625Y-15186198D01*
X19327625Y-15186198D02*
X19337149Y-15205246D01*
X19337149Y-15205246D02*
X19337149Y-15262388D01*
X19337149Y-15262388D02*
X19327625Y-15281436D01*
X19327625Y-15281436D02*
X19318101Y-15290960D01*
X19318101Y-15290960D02*
X19299054Y-15300484D01*
X19299054Y-15300484D02*
X19270482Y-15300484D01*
X19394292Y-15167150D02*
X19470482Y-15167150D01*
X19422863Y-15100484D02*
X19422863Y-15271912D01*
X19422863Y-15271912D02*
X19432387Y-15290960D01*
X19432387Y-15290960D02*
X19451434Y-15300484D01*
X19451434Y-15300484D02*
X19470482Y-15300484D01*
X19689530Y-15167150D02*
X19689530Y-15367150D01*
X19689530Y-15176674D02*
X19708577Y-15167150D01*
X19708577Y-15167150D02*
X19746673Y-15167150D01*
X19746673Y-15167150D02*
X19765720Y-15176674D01*
X19765720Y-15176674D02*
X19775244Y-15186198D01*
X19775244Y-15186198D02*
X19784768Y-15205246D01*
X19784768Y-15205246D02*
X19784768Y-15262388D01*
X19784768Y-15262388D02*
X19775244Y-15281436D01*
X19775244Y-15281436D02*
X19765720Y-15290960D01*
X19765720Y-15290960D02*
X19746673Y-15300484D01*
X19746673Y-15300484D02*
X19708577Y-15300484D01*
X19708577Y-15300484D02*
X19689530Y-15290960D01*
X19899054Y-15300484D02*
X19880006Y-15290960D01*
X19880006Y-15290960D02*
X19870482Y-15271912D01*
X19870482Y-15271912D02*
X19870482Y-15100484D01*
X20060958Y-15300484D02*
X20060958Y-15195722D01*
X20060958Y-15195722D02*
X20051435Y-15176674D01*
X20051435Y-15176674D02*
X20032387Y-15167150D01*
X20032387Y-15167150D02*
X19994292Y-15167150D01*
X19994292Y-15167150D02*
X19975244Y-15176674D01*
X20060958Y-15290960D02*
X20041911Y-15300484D01*
X20041911Y-15300484D02*
X19994292Y-15300484D01*
X19994292Y-15300484D02*
X19975244Y-15290960D01*
X19975244Y-15290960D02*
X19965720Y-15271912D01*
X19965720Y-15271912D02*
X19965720Y-15252865D01*
X19965720Y-15252865D02*
X19975244Y-15233817D01*
X19975244Y-15233817D02*
X19994292Y-15224293D01*
X19994292Y-15224293D02*
X20041911Y-15224293D01*
X20041911Y-15224293D02*
X20060958Y-15214769D01*
X20127625Y-15167150D02*
X20203815Y-15167150D01*
X20156196Y-15100484D02*
X20156196Y-15271912D01*
X20156196Y-15271912D02*
X20165720Y-15290960D01*
X20165720Y-15290960D02*
X20184768Y-15300484D01*
X20184768Y-15300484D02*
X20203815Y-15300484D01*
X20346673Y-15290960D02*
X20327625Y-15300484D01*
X20327625Y-15300484D02*
X20289530Y-15300484D01*
X20289530Y-15300484D02*
X20270482Y-15290960D01*
X20270482Y-15290960D02*
X20260958Y-15271912D01*
X20260958Y-15271912D02*
X20260958Y-15195722D01*
X20260958Y-15195722D02*
X20270482Y-15176674D01*
X20270482Y-15176674D02*
X20289530Y-15167150D01*
X20289530Y-15167150D02*
X20327625Y-15167150D01*
X20327625Y-15167150D02*
X20346673Y-15176674D01*
X20346673Y-15176674D02*
X20356196Y-15195722D01*
X20356196Y-15195722D02*
X20356196Y-15214769D01*
X20356196Y-15214769D02*
X20260958Y-15233817D01*
X20527625Y-15300484D02*
X20527625Y-15100484D01*
X20527625Y-15290960D02*
X20508577Y-15300484D01*
X20508577Y-15300484D02*
X20470482Y-15300484D01*
X20470482Y-15300484D02*
X20451435Y-15290960D01*
X20451435Y-15290960D02*
X20441911Y-15281436D01*
X20441911Y-15281436D02*
X20432387Y-15262388D01*
X20432387Y-15262388D02*
X20432387Y-15205246D01*
X20432387Y-15205246D02*
X20441911Y-15186198D01*
X20441911Y-15186198D02*
X20451435Y-15176674D01*
X20451435Y-15176674D02*
X20470482Y-15167150D01*
X20470482Y-15167150D02*
X20508577Y-15167150D01*
X20508577Y-15167150D02*
X20527625Y-15176674D01*
X20603816Y-15376674D02*
X20613339Y-15367150D01*
X20613339Y-15367150D02*
X20632387Y-15338579D01*
X20632387Y-15338579D02*
X20641911Y-15319531D01*
X20641911Y-15319531D02*
X20651435Y-15290960D01*
X20651435Y-15290960D02*
X20660958Y-15243341D01*
X20660958Y-15243341D02*
X20660958Y-15205246D01*
X20660958Y-15205246D02*
X20651435Y-15157627D01*
X20651435Y-15157627D02*
X20641911Y-15129055D01*
X20641911Y-15129055D02*
X20632387Y-15110008D01*
X20632387Y-15110008D02*
X20613339Y-15081436D01*
X20613339Y-15081436D02*
X20603816Y-15071912D01*
M02*
