  0
SECTION
  2
HEADER
  9
$ACADVER
  1
AC1009
  9
$FILLMODE
 70
1
  9
$EXTMIN
 10
-59.2335
 20
-55.4235
 30
0.0000
  9
$EXTMAX
 10
132.8935
 20
136.7035
 30
0.0000
  0
ENDSEC
  0
SECTION
  2
TABLES
  0
TABLE
  2
LTYPE
 70
1
  0
LTYPE
  2
CONTINUOUS
 70
64
  3
Solid line
 72
65
 73
0
 40
0
  0
ENDTAB
  0
TABLE
  2
LAYER
 70
255
  0
LAYER
  2
17
 70
64
 62
94
  6
CONTINUOUS
  0
LAYER
  2
20
 70
64
 62
178
  6
CONTINUOUS
  0
ENDTAB
  0
ENDSEC
  0
SECTION
  2
BLOCKS
  0
BLOCK
  8
0
  2
RECT
 70
64
 10
0.0000
 20
0.0000
 30
0.0000
  3
RECT
  0
SOLID
  8
0
 10
-0.5000
 20
-0.5000
 30
0.0000
 11
0.5000
 21
-0.5000
 31
0.0000
 12
-0.5000
 22
0.5000
 32
0.0000
 13
0.5000
 23
0.5000
 33
0.0000
  0
ENDBLK
  8
0
  0
BLOCK
  8
0
  2
PIE
 70
64
 10
0.0000
 20
0.0000
 30
0.0000
  3
PIE
  0
POLYLINE
  8
0
 66
1
 10
0.0000
 20
0.0000
 30
0.0000
 40
0.5000
 41
0.5000
 70
0
  0
VERTEX
  8
0
 10
0.0000
 20
-0.2500
 30
0.0000
 42
1.0000
  0
VERTEX
  8
0
 10
0.0000
 20
0.2500
 30
0.0000
 42
1.0000
  0
VERTEX
  8
0
 10
0.0000
 20
-0.2500
 30
0.0000
  0
SEQEND
  8
0
  0
ENDBLK
  8
0
  0
BLOCK
  8
0
  2
OCTAGONP
 70
64
 10
0.0000
 20
0.0000
 30
0.0000
  3
OCTAGONP
  0
POLYLINE
  8
0
 66
1
 10
0.0000
 20
0.0000
 30
0.0000
 40
0.5000
 41
0.5000
 70
0
  0
VERTEX
  8
0
 10
-0.2500
 20
-0.1036
 30
0.0000
  0
VERTEX
  8
0
 10
-0.2500
 20
0.1036
 30
0.0000
  0
VERTEX
  8
0
 10
-0.1036
 20
0.2500
 30
0.0000
  0
VERTEX
  8
0
 10
0.1036
 20
0.2500
 30
0.0000
  0
VERTEX
  8
0
 10
0.2500
 20
0.1036
 30
0.0000
  0
VERTEX
  8
0
 10
0.2500
 20
-0.1036
 30
0.0000
  0
VERTEX
  8
0
 10
0.1036
 20
-0.2500
 30
0.0000
  0
VERTEX
  8
0
 10
-0.1036
 20
-0.2500
 30
0.0000
  0
VERTEX
  8
0
 10
-0.2500
 20
-0.1036
 30
0.0000
  0
VERTEX
  8
0
 10
-0.2500
 20
0.1036
 30
0.0000
  0
SEQEND
  8
0
  0
ENDBLK
  8
0
  0
BLOCK
  8
0
  2
SQUAREP
 70
64
 10
0.0000
 20
0.0000
 30
0.0000
  3
SQUAREP
  0
SOLID
  8
0
 10
-0.5000
 20
-0.5000
 30
0.0000
 11
0.5000
 21
-0.5000
 31
0.0000
 12
-0.5000
 22
0.5000
 32
0.0000
 13
0.5000
 23
0.5000
 33
0.0000
  0
ENDBLK
  8
0
  0
BLOCK
  8
0
  2
ROUNDP
 70
64
 10
0.0000
 20
0.0000
 30
0.0000
  3
ROUNDP
  0
POLYLINE
  8
0
 66
1
 10
0.0000
 20
0.0000
 30
0.0000
 40
0.5000
 41
0.5000
 70
0
  0
VERTEX
  8
0
 10
0.0000
 20
-0.2500
 30
0.0000
 42
1.0000
  0
VERTEX
  8
0
 10
0.0000
 20
0.2500
 30
0.0000
 42
1.0000
  0
VERTEX
  8
0
 10
0.0000
 20
-0.2500
 30
0.0000
  0
SEQEND
  8
0
  0
ENDBLK
  8
0
  0
BLOCK
  8
0
  2
ANNULUSP
 70
64
 10
0.0000
 20
0.0000
 30
0.0000
  3
ANNULUSP
  0
POLYLINE
  8
0
 66
1
 10
0.0000
 20
0.0000
 30
0.0000
 40
0.5000
 41
0.5000
 70
0
  0
VERTEX
  8
0
 10
0.0000
 20
-0.2500
 30
0.0000
 42
1.0000
  0
VERTEX
  8
0
 10
0.0000
 20
0.2500
 30
0.0000
 42
1.0000
  0
VERTEX
  8
0
 10
0.0000
 20
-0.2500
 30
0.0000
  0
SEQEND
  8
0
  0
ENDBLK
  8
0
  0
BLOCK
  8
0
  2
THERMALP
 70
64
 10
0.0000
 20
0.0000
 30
0.0000
  3
THERMALP
  0
POLYLINE
  8
0
 66
1
 10
0.0000
 20
0.0000
 30
0.0000
 40
0.1000
 41
0.1000
 70
0
  0
VERTEX
  8
0
 10
-0.2379
 20
0.4500
 30
0.0000
  0
VERTEX
  8
0
 10
0.2379
 20
0.4500
 30
0.0000
  0
SEQEND
  8
0
  0
POLYLINE
  8
0
 66
1
 10
0.0000
 20
0.0000
 30
0.0000
 40
0.0500
 41
0.0500
 70
0
  0
VERTEX
  8
0
 10
0.2379
 20
0.4250
 30
0.0000
 42
1.0000
  0
VERTEX
  8
0
 10
0.2379
 20
0.4750
 30
0.0000
  0
SEQEND
  8
0
  0
POLYLINE
  8
0
 66
1
 10
0.0000
 20
0.0000
 30
0.0000
 40
0.0500
 41
0.0500
 70
0
  0
VERTEX
  8
0
 10
-0.2379
 20
0.4750
 30
0.0000
 42
1.0000
  0
VERTEX
  8
0
 10
-0.2379
 20
0.4250
 30
0.0000
  0
SEQEND
  8
0
  0
POLYLINE
  8
0
 66
1
 10
0.0000
 20
0.0000
 30
0.0000
 40
0.1000
 41
0.1000
 70
0
  0
VERTEX
  8
0
 10
0.4500
 20
0.2379
 30
0.0000
  0
VERTEX
  8
0
 10
0.4500
 20
-0.2379
 30
0.0000
  0
SEQEND
  8
0
  0
POLYLINE
  8
0
 66
1
 10
0.0000
 20
0.0000
 30
0.0000
 40
0.0500
 41
0.0500
 70
0
  0
VERTEX
  8
0
 10
0.4250
 20
-0.2379
 30
0.0000
 42
1.0000
  0
VERTEX
  8
0
 10
0.4750
 20
-0.2379
 30
0.0000
  0
SEQEND
  8
0
  0
POLYLINE
  8
0
 66
1
 10
0.0000
 20
0.0000
 30
0.0000
 40
0.0500
 41
0.0500
 70
0
  0
VERTEX
  8
0
 10
0.4750
 20
0.2379
 30
0.0000
 42
1.0000
  0
VERTEX
  8
0
 10
0.4250
 20
0.2379
 30
0.0000
  0
SEQEND
  8
0
  0
POLYLINE
  8
0
 66
1
 10
0.0000
 20
0.0000
 30
0.0000
 40
0.1000
 41
0.1000
 70
0
  0
VERTEX
  8
0
 10
0.2379
 20
-0.4500
 30
0.0000
  0
VERTEX
  8
0
 10
-0.2379
 20
-0.4500
 30
0.0000
  0
SEQEND
  8
0
  0
POLYLINE
  8
0
 66
1
 10
0.0000
 20
0.0000
 30
0.0000
 40
0.0500
 41
0.0500
 70
0
  0
VERTEX
  8
0
 10
-0.2379
 20
-0.4250
 30
0.0000
 42
1.0000
  0
VERTEX
  8
0
 10
-0.2379
 20
-0.4750
 30
0.0000
  0
SEQEND
  8
0
  0
POLYLINE
  8
0
 66
1
 10
0.0000
 20
0.0000
 30
0.0000
 40
0.0500
 41
0.0500
 70
0
  0
VERTEX
  8
0
 10
0.2379
 20
-0.4750
 30
0.0000
 42
1.0000
  0
VERTEX
  8
0
 10
0.2379
 20
-0.4250
 30
0.0000
  0
SEQEND
  8
0
  0
POLYLINE
  8
0
 66
1
 10
0.0000
 20
0.0000
 30
0.0000
 40
0.1000
 41
0.1000
 70
0
  0
VERTEX
  8
0
 10
-0.4500
 20
-0.2379
 30
0.0000
  0
VERTEX
  8
0
 10
-0.4500
 20
0.2379
 30
0.0000
  0
SEQEND
  8
0
  0
POLYLINE
  8
0
 66
1
 10
0.0000
 20
0.0000
 30
0.0000
 40
0.0500
 41
0.0500
 70
0
  0
VERTEX
  8
0
 10
-0.4250
 20
0.2379
 30
0.0000
 42
1.0000
  0
VERTEX
  8
0
 10
-0.4750
 20
0.2379
 30
0.0000
  0
SEQEND
  8
0
  0
POLYLINE
  8
0
 66
1
 10
0.0000
 20
0.0000
 30
0.0000
 40
0.0500
 41
0.0500
 70
0
  0
VERTEX
  8
0
 10
-0.4750
 20
-0.2379
 30
0.0000
 42
1.0000
  0
VERTEX
  8
0
 10
-0.4250
 20
-0.2379
 30
0.0000
  0
SEQEND
  8
0
  0
ENDBLK
  8
0
  0
BLOCK
  8
0
  2
OCTAGONV
 70
64
 10
0.0000
 20
0.0000
 30
0.0000
  3
OCTAGONV
  0
POLYLINE
  8
0
 66
1
 10
0.0000
 20
0.0000
 30
0.0000
 40
0.5000
 41
0.5000
 70
0
  0
VERTEX
  8
0
 10
-0.2500
 20
-0.1036
 30
0.0000
  0
VERTEX
  8
0
 10
-0.2500
 20
0.1036
 30
0.0000
  0
VERTEX
  8
0
 10
-0.1036
 20
0.2500
 30
0.0000
  0
VERTEX
  8
0
 10
0.1036
 20
0.2500
 30
0.0000
  0
VERTEX
  8
0
 10
0.2500
 20
0.1036
 30
0.0000
  0
VERTEX
  8
0
 10
0.2500
 20
-0.1036
 30
0.0000
  0
VERTEX
  8
0
 10
0.1036
 20
-0.2500
 30
0.0000
  0
VERTEX
  8
0
 10
-0.1036
 20
-0.2500
 30
0.0000
  0
VERTEX
  8
0
 10
-0.2500
 20
-0.1036
 30
0.0000
  0
VERTEX
  8
0
 10
-0.2500
 20
0.1036
 30
0.0000
  0
SEQEND
  8
0
  0
ENDBLK
  8
0
  0
BLOCK
  8
0
  2
SQUAREV
 70
64
 10
0.0000
 20
0.0000
 30
0.0000
  3
SQUAREV
  0
SOLID
  8
0
 10
-0.5000
 20
-0.5000
 30
0.0000
 11
0.5000
 21
-0.5000
 31
0.0000
 12
-0.5000
 22
0.5000
 32
0.0000
 13
0.5000
 23
0.5000
 33
0.0000
  0
ENDBLK
  8
0
  0
BLOCK
  8
0
  2
ROUNDV
 70
64
 10
0.0000
 20
0.0000
 30
0.0000
  3
ROUNDV
  0
POLYLINE
  8
0
 66
1
 10
0.0000
 20
0.0000
 30
0.0000
 40
0.5000
 41
0.5000
 70
0
  0
VERTEX
  8
0
 10
0.0000
 20
-0.2500
 30
0.0000
 42
1.0000
  0
VERTEX
  8
0
 10
0.0000
 20
0.2500
 30
0.0000
 42
1.0000
  0
VERTEX
  8
0
 10
0.0000
 20
-0.2500
 30
0.0000
  0
SEQEND
  8
0
  0
ENDBLK
  8
0
  0
BLOCK
  8
0
  2
ANNULUSV
 70
64
 10
0.0000
 20
0.0000
 30
0.0000
  3
ANNULUSV
  0
POLYLINE
  8
0
 66
1
 10
0.0000
 20
0.0000
 30
0.0000
 40
0.5000
 41
0.5000
 70
0
  0
VERTEX
  8
0
 10
0.0000
 20
-0.2500
 30
0.0000
 42
1.0000
  0
VERTEX
  8
0
 10
0.0000
 20
0.2500
 30
0.0000
 42
1.0000
  0
VERTEX
  8
0
 10
0.0000
 20
-0.2500
 30
0.0000
  0
SEQEND
  8
0
  0
ENDBLK
  8
0
  0
BLOCK
  8
0
  2
THERMALV
 70
64
 10
0.0000
 20
0.0000
 30
0.0000
  3
THERMALV
  0
POLYLINE
  8
0
 66
1
 10
0.0000
 20
0.0000
 30
0.0000
 40
0.1000
 41
0.1000
 70
0
  0
VERTEX
  8
0
 10
-0.2379
 20
0.4500
 30
0.0000
  0
VERTEX
  8
0
 10
0.2379
 20
0.4500
 30
0.0000
  0
SEQEND
  8
0
  0
POLYLINE
  8
0
 66
1
 10
0.0000
 20
0.0000
 30
0.0000
 40
0.0500
 41
0.0500
 70
0
  0
VERTEX
  8
0
 10
0.2379
 20
0.4250
 30
0.0000
 42
1.0000
  0
VERTEX
  8
0
 10
0.2379
 20
0.4750
 30
0.0000
  0
SEQEND
  8
0
  0
POLYLINE
  8
0
 66
1
 10
0.0000
 20
0.0000
 30
0.0000
 40
0.0500
 41
0.0500
 70
0
  0
VERTEX
  8
0
 10
-0.2379
 20
0.4750
 30
0.0000
 42
1.0000
  0
VERTEX
  8
0
 10
-0.2379
 20
0.4250
 30
0.0000
  0
SEQEND
  8
0
  0
POLYLINE
  8
0
 66
1
 10
0.0000
 20
0.0000
 30
0.0000
 40
0.1000
 41
0.1000
 70
0
  0
VERTEX
  8
0
 10
0.4500
 20
0.2379
 30
0.0000
  0
VERTEX
  8
0
 10
0.4500
 20
-0.2379
 30
0.0000
  0
SEQEND
  8
0
  0
POLYLINE
  8
0
 66
1
 10
0.0000
 20
0.0000
 30
0.0000
 40
0.0500
 41
0.0500
 70
0
  0
VERTEX
  8
0
 10
0.4250
 20
-0.2379
 30
0.0000
 42
1.0000
  0
VERTEX
  8
0
 10
0.4750
 20
-0.2379
 30
0.0000
  0
SEQEND
  8
0
  0
POLYLINE
  8
0
 66
1
 10
0.0000
 20
0.0000
 30
0.0000
 40
0.0500
 41
0.0500
 70
0
  0
VERTEX
  8
0
 10
0.4750
 20
0.2379
 30
0.0000
 42
1.0000
  0
VERTEX
  8
0
 10
0.4250
 20
0.2379
 30
0.0000
  0
SEQEND
  8
0
  0
POLYLINE
  8
0
 66
1
 10
0.0000
 20
0.0000
 30
0.0000
 40
0.1000
 41
0.1000
 70
0
  0
VERTEX
  8
0
 10
0.2379
 20
-0.4500
 30
0.0000
  0
VERTEX
  8
0
 10
-0.2379
 20
-0.4500
 30
0.0000
  0
SEQEND
  8
0
  0
POLYLINE
  8
0
 66
1
 10
0.0000
 20
0.0000
 30
0.0000
 40
0.0500
 41
0.0500
 70
0
  0
VERTEX
  8
0
 10
-0.2379
 20
-0.4250
 30
0.0000
 42
1.0000
  0
VERTEX
  8
0
 10
-0.2379
 20
-0.4750
 30
0.0000
  0
SEQEND
  8
0
  0
POLYLINE
  8
0
 66
1
 10
0.0000
 20
0.0000
 30
0.0000
 40
0.0500
 41
0.0500
 70
0
  0
VERTEX
  8
0
 10
0.2379
 20
-0.4750
 30
0.0000
 42
1.0000
  0
VERTEX
  8
0
 10
0.2379
 20
-0.4250
 30
0.0000
  0
SEQEND
  8
0
  0
POLYLINE
  8
0
 66
1
 10
0.0000
 20
0.0000
 30
0.0000
 40
0.1000
 41
0.1000
 70
0
  0
VERTEX
  8
0
 10
-0.4500
 20
-0.2379
 30
0.0000
  0
VERTEX
  8
0
 10
-0.4500
 20
0.2379
 30
0.0000
  0
SEQEND
  8
0
  0
POLYLINE
  8
0
 66
1
 10
0.0000
 20
0.0000
 30
0.0000
 40
0.0500
 41
0.0500
 70
0
  0
VERTEX
  8
0
 10
-0.4250
 20
0.2379
 30
0.0000
 42
1.0000
  0
VERTEX
  8
0
 10
-0.4750
 20
0.2379
 30
0.0000
  0
SEQEND
  8
0
  0
POLYLINE
  8
0
 66
1
 10
0.0000
 20
0.0000
 30
0.0000
 40
0.0500
 41
0.0500
 70
0
  0
VERTEX
  8
0
 10
-0.4750
 20
-0.2379
 30
0.0000
 42
1.0000
  0
VERTEX
  8
0
 10
-0.4250
 20
-0.2379
 30
0.0000
  0
SEQEND
  8
0
  0
ENDBLK
  8
0
  0
BLOCK
  8
0
  2
LONGP100
 70
64
 10
0.0000
 20
0.0000
 30
0.0000
  3
LONGP100
  0
POLYLINE
  8
0
 66
1
 10
0.0000
 20
0.0000
 30
0.0000
 40
1.0000
 41
1.0000
 70
0
  0
VERTEX
  8
0
 10
-0.5000
 20
0.0000
 30
0.0000
  0
VERTEX
  8
0
 10
0.5000
 20
0.0000
 30
0.0000
  0
SEQEND
  8
0
  0
POLYLINE
  8
0
 66
1
 10
0.0000
 20
0.0000
 30
0.0000
 40
0.5000
 41
0.5000
 70
0
  0
VERTEX
  8
0
 10
0.5000
 20
-0.2500
 30
0.0000
 42
1.0000
  0
VERTEX
  8
0
 10
0.5000
 20
0.2500
 30
0.0000
  0
SEQEND
  8
0
  0
POLYLINE
  8
0
 66
1
 10
0.0000
 20
0.0000
 30
0.0000
 40
0.5000
 41
0.5000
 70
0
  0
VERTEX
  8
0
 10
-0.5000
 20
0.2500
 30
0.0000
 42
1.0000
  0
VERTEX
  8
0
 10
-0.5000
 20
-0.2500
 30
0.0000
  0
SEQEND
  8
0
  0
ENDBLK
  8
0
  0
ENDSEC
  0
SECTION
  2
ENTITIES
  0
LINE
  8
20
 10
2.5400
 20
0.0000
 30
0.0000
 11
20.3200
 21
0.0000
 31
0.0000
  0
LINE
  8
20
 10
20.3200
 20
0.0000
 30
0.0000
 11
20.3200
 21
6.8900
 31
0.0000
  0
ARC
  8
20
 10
22.3200
 20
6.8900
 30
0.0000
 40
2.0000
 50
90.0000
 51
180.0000
  0
LINE
  8
20
 10
22.3200
 20
8.8900
 30
0.0000
 11
51.3400
 21
8.8900
 31
0.0000
  0
ARC
  8
20
 10
51.3400
 20
6.8900
 30
0.0000
 40
2.0000
 50
0.0000
 51
90.0000
  0
LINE
  8
20
 10
53.3400
 20
6.8900
 30
0.0000
 11
53.3400
 21
0.0000
 31
0.0000
  0
LINE
  8
20
 10
53.3400
 20
0.0000
 30
0.0000
 11
86.3600
 21
0.0000
 31
0.0000
  0
LINE
  8
20
 10
86.3600
 20
0.0000
 30
0.0000
 11
99.0600
 21
12.7000
 31
0.0000
  0
LINE
  8
20
 10
99.0600
 20
12.7000
 30
0.0000
 11
99.0600
 21
68.5800
 31
0.0000
  0
LINE
  8
20
 10
99.0600
 20
68.5800
 30
0.0000
 11
86.3600
 21
81.2800
 31
0.0000
  0
LINE
  8
20
 10
86.3600
 20
81.2800
 30
0.0000
 11
53.3400
 21
81.2800
 31
0.0000
  0
LINE
  8
20
 10
53.3400
 20
81.2800
 30
0.0000
 11
53.3400
 21
74.3900
 31
0.0000
  0
ARC
  8
20
 10
51.3400
 20
74.3900
 30
0.0000
 40
2.0000
 50
270.0000
 51
0.0000
  0
LINE
  8
20
 10
51.3400
 20
72.3900
 30
0.0000
 11
22.3200
 21
72.3900
 31
0.0000
  0
ARC
  8
20
 10
22.3200
 20
74.3900
 30
0.0000
 40
2.0000
 50
180.0000
 51
270.0000
  0
LINE
  8
20
 10
20.3200
 20
74.3900
 30
0.0000
 11
20.3200
 21
81.2800
 31
0.0000
  0
LINE
  8
20
 10
20.3200
 20
81.2800
 30
0.0000
 11
2.5400
 21
81.2800
 31
0.0000
  0
LINE
  8
20
 10
2.5400
 20
81.2800
 30
0.0000
 11
0.0000
 21
78.7400
 31
0.0000
  0
LINE
  8
20
 10
0.0000
 20
78.7400
 30
0.0000
 11
0.0000
 21
2.5400
 31
0.0000
  0
LINE
  8
20
 10
0.0000
 20
2.5400
 30
0.0000
 11
2.5400
 21
0.0000
 31
0.0000
  0
CIRCLE
  8
20
 10
86.3600
 20
64.7700
 30
0.0000
 40
1.6000
  0
CIRCLE
  8
20
 10
86.3600
 20
16.5100
 30
0.0000
 40
1.6000
  0
CIRCLE
  8
20
 10
76.2000
 20
16.5100
 30
0.0000
 40
1.6000
  0
CIRCLE
  8
20
 10
76.2000
 20
64.7700
 30
0.0000
 40
1.6000
  0
CIRCLE
  8
20
 10
27.9400
 20
67.9450
 30
0.0000
 40
1.2500
  0
CIRCLE
  8
20
 10
45.7200
 20
67.9450
 30
0.0000
 40
1.2500
  0
CIRCLE
  8
20
 10
27.9400
 20
13.3350
 30
0.0000
 40
1.2500
  0
CIRCLE
  8
20
 10
45.7200
 20
13.3350
 30
0.0000
 40
1.2500
  0
CIRCLE
  8
20
 10
93.9800
 20
40.6400
 30
0.0000
 40
1.6000
  0
CIRCLE
  8
20
 10
7.6200
 20
40.6400
 30
0.0000
 40
1.6000
  0
INSERT
  8
17
  2
SQUAREP
 10
68.5800
 20
34.2900
 30
0.0000
 41
1.6764
 42
1.6764
 43
1.0000
 50
90.0000
  0
INSERT
  8
17
  2
SQUAREP
 10
68.5800
 20
34.2900
 30
0.0000
 41
1.6764
 42
1.6764
 43
1.0000
 50
90.0000
  0
INSERT
  8
17
  2
ROUNDP
 10
68.5800
 20
36.8300
 30
0.0000
 41
1.6764
 42
1.6764
 43
1.0000
 50
90.0000
  0
INSERT
  8
17
  2
ROUNDP
 10
68.5800
 20
36.8300
 30
0.0000
 41
1.6764
 42
1.6764
 43
1.0000
 50
90.0000
  0
INSERT
  8
17
  2
ROUNDP
 10
68.5800
 20
39.3700
 30
0.0000
 41
1.6764
 42
1.6764
 43
1.0000
 50
90.0000
  0
INSERT
  8
17
  2
ROUNDP
 10
68.5800
 20
39.3700
 30
0.0000
 41
1.6764
 42
1.6764
 43
1.0000
 50
90.0000
  0
INSERT
  8
17
  2
ROUNDP
 10
68.5800
 20
41.9100
 30
0.0000
 41
1.6764
 42
1.6764
 43
1.0000
 50
90.0000
  0
INSERT
  8
17
  2
ROUNDP
 10
68.5800
 20
41.9100
 30
0.0000
 41
1.6764
 42
1.6764
 43
1.0000
 50
90.0000
  0
INSERT
  8
17
  2
ROUNDP
 10
68.5800
 20
44.4500
 30
0.0000
 41
1.6764
 42
1.6764
 43
1.0000
 50
90.0000
  0
INSERT
  8
17
  2
ROUNDP
 10
68.5800
 20
44.4500
 30
0.0000
 41
1.6764
 42
1.6764
 43
1.0000
 50
90.0000
  0
INSERT
  8
17
  2
ROUNDP
 10
68.5800
 20
46.9900
 30
0.0000
 41
1.6764
 42
1.6764
 43
1.0000
 50
90.0000
  0
INSERT
  8
17
  2
ROUNDP
 10
68.5800
 20
46.9900
 30
0.0000
 41
1.6764
 42
1.6764
 43
1.0000
 50
90.0000
  0
INSERT
  8
17
  2
ROUNDP
 10
68.5800
 20
49.5300
 30
0.0000
 41
1.6764
 42
1.6764
 43
1.0000
 50
90.0000
  0
INSERT
  8
17
  2
ROUNDP
 10
68.5800
 20
49.5300
 30
0.0000
 41
1.6764
 42
1.6764
 43
1.0000
 50
90.0000
  0
INSERT
  8
17
  2
ROUNDP
 10
68.5800
 20
52.0700
 30
0.0000
 41
1.6764
 42
1.6764
 43
1.0000
 50
90.0000
  0
INSERT
  8
17
  2
ROUNDP
 10
68.5800
 20
52.0700
 30
0.0000
 41
1.6764
 42
1.6764
 43
1.0000
 50
90.0000
  0
INSERT
  8
17
  2
ROUNDP
 10
68.5800
 20
54.6100
 30
0.0000
 41
1.6764
 42
1.6764
 43
1.0000
 50
90.0000
  0
INSERT
  8
17
  2
ROUNDP
 10
68.5800
 20
54.6100
 30
0.0000
 41
1.6764
 42
1.6764
 43
1.0000
 50
90.0000
  0
INSERT
  8
17
  2
ROUNDP
 10
68.5800
 20
57.1500
 30
0.0000
 41
1.6764
 42
1.6764
 43
1.0000
 50
90.0000
  0
INSERT
  8
17
  2
ROUNDP
 10
68.5800
 20
57.1500
 30
0.0000
 41
1.6764
 42
1.6764
 43
1.0000
 50
90.0000
  0
INSERT
  8
17
  2
ROUNDP
 10
68.5800
 20
59.6900
 30
0.0000
 41
1.6764
 42
1.6764
 43
1.0000
 50
90.0000
  0
INSERT
  8
17
  2
ROUNDP
 10
68.5800
 20
59.6900
 30
0.0000
 41
1.6764
 42
1.6764
 43
1.0000
 50
90.0000
  0
INSERT
  8
17
  2
ROUNDP
 10
68.5800
 20
62.2300
 30
0.0000
 41
1.6764
 42
1.6764
 43
1.0000
 50
90.0000
  0
INSERT
  8
17
  2
ROUNDP
 10
68.5800
 20
62.2300
 30
0.0000
 41
1.6764
 42
1.6764
 43
1.0000
 50
90.0000
  0
INSERT
  8
17
  2
ROUNDP
 10
68.5800
 20
64.7700
 30
0.0000
 41
1.6764
 42
1.6764
 43
1.0000
 50
90.0000
  0
INSERT
  8
17
  2
ROUNDP
 10
68.5800
 20
64.7700
 30
0.0000
 41
1.6764
 42
1.6764
 43
1.0000
 50
90.0000
  0
INSERT
  8
17
  2
ROUNDP
 10
68.5800
 20
67.3100
 30
0.0000
 41
1.6764
 42
1.6764
 43
1.0000
 50
90.0000
  0
INSERT
  8
17
  2
ROUNDP
 10
68.5800
 20
67.3100
 30
0.0000
 41
1.6764
 42
1.6764
 43
1.0000
 50
90.0000
  0
INSERT
  8
17
  2
ROUNDP
 10
68.5800
 20
69.8500
 30
0.0000
 41
1.6764
 42
1.6764
 43
1.0000
 50
90.0000
  0
INSERT
  8
17
  2
ROUNDP
 10
68.5800
 20
69.8500
 30
0.0000
 41
1.6764
 42
1.6764
 43
1.0000
 50
90.0000
  0
INSERT
  8
17
  2
ROUNDP
 10
53.3400
 20
69.8500
 30
0.0000
 41
1.6764
 42
1.6764
 43
1.0000
 50
90.0000
  0
INSERT
  8
17
  2
ROUNDP
 10
53.3400
 20
69.8500
 30
0.0000
 41
1.6764
 42
1.6764
 43
1.0000
 50
90.0000
  0
INSERT
  8
17
  2
ROUNDP
 10
53.3400
 20
67.3100
 30
0.0000
 41
1.6764
 42
1.6764
 43
1.0000
 50
90.0000
  0
INSERT
  8
17
  2
ROUNDP
 10
53.3400
 20
67.3100
 30
0.0000
 41
1.6764
 42
1.6764
 43
1.0000
 50
90.0000
  0
INSERT
  8
17
  2
ROUNDP
 10
53.3400
 20
64.7700
 30
0.0000
 41
1.6764
 42
1.6764
 43
1.0000
 50
90.0000
  0
INSERT
  8
17
  2
ROUNDP
 10
53.3400
 20
64.7700
 30
0.0000
 41
1.6764
 42
1.6764
 43
1.0000
 50
90.0000
  0
INSERT
  8
17
  2
ROUNDP
 10
53.3400
 20
62.2300
 30
0.0000
 41
1.6764
 42
1.6764
 43
1.0000
 50
90.0000
  0
INSERT
  8
17
  2
ROUNDP
 10
53.3400
 20
62.2300
 30
0.0000
 41
1.6764
 42
1.6764
 43
1.0000
 50
90.0000
  0
INSERT
  8
17
  2
ROUNDP
 10
53.3400
 20
59.6900
 30
0.0000
 41
1.6764
 42
1.6764
 43
1.0000
 50
90.0000
  0
INSERT
  8
17
  2
ROUNDP
 10
53.3400
 20
59.6900
 30
0.0000
 41
1.6764
 42
1.6764
 43
1.0000
 50
90.0000
  0
INSERT
  8
17
  2
ROUNDP
 10
53.3400
 20
57.1500
 30
0.0000
 41
1.6764
 42
1.6764
 43
1.0000
 50
90.0000
  0
INSERT
  8
17
  2
ROUNDP
 10
53.3400
 20
57.1500
 30
0.0000
 41
1.6764
 42
1.6764
 43
1.0000
 50
90.0000
  0
INSERT
  8
17
  2
ROUNDP
 10
53.3400
 20
54.6100
 30
0.0000
 41
1.6764
 42
1.6764
 43
1.0000
 50
90.0000
  0
INSERT
  8
17
  2
ROUNDP
 10
53.3400
 20
54.6100
 30
0.0000
 41
1.6764
 42
1.6764
 43
1.0000
 50
90.0000
  0
INSERT
  8
17
  2
ROUNDP
 10
53.3400
 20
52.0700
 30
0.0000
 41
1.6764
 42
1.6764
 43
1.0000
 50
90.0000
  0
INSERT
  8
17
  2
ROUNDP
 10
53.3400
 20
52.0700
 30
0.0000
 41
1.6764
 42
1.6764
 43
1.0000
 50
90.0000
  0
INSERT
  8
17
  2
ROUNDP
 10
53.3400
 20
49.5300
 30
0.0000
 41
1.6764
 42
1.6764
 43
1.0000
 50
90.0000
  0
INSERT
  8
17
  2
ROUNDP
 10
53.3400
 20
49.5300
 30
0.0000
 41
1.6764
 42
1.6764
 43
1.0000
 50
90.0000
  0
INSERT
  8
17
  2
ROUNDP
 10
53.3400
 20
46.9900
 30
0.0000
 41
1.6764
 42
1.6764
 43
1.0000
 50
90.0000
  0
INSERT
  8
17
  2
ROUNDP
 10
53.3400
 20
46.9900
 30
0.0000
 41
1.6764
 42
1.6764
 43
1.0000
 50
90.0000
  0
INSERT
  8
17
  2
ROUNDP
 10
53.3400
 20
44.4500
 30
0.0000
 41
1.6764
 42
1.6764
 43
1.0000
 50
90.0000
  0
INSERT
  8
17
  2
ROUNDP
 10
53.3400
 20
44.4500
 30
0.0000
 41
1.6764
 42
1.6764
 43
1.0000
 50
90.0000
  0
INSERT
  8
17
  2
ROUNDP
 10
53.3400
 20
41.9100
 30
0.0000
 41
1.6764
 42
1.6764
 43
1.0000
 50
90.0000
  0
INSERT
  8
17
  2
ROUNDP
 10
53.3400
 20
41.9100
 30
0.0000
 41
1.6764
 42
1.6764
 43
1.0000
 50
90.0000
  0
INSERT
  8
17
  2
ROUNDP
 10
53.3400
 20
39.3700
 30
0.0000
 41
1.6764
 42
1.6764
 43
1.0000
 50
90.0000
  0
INSERT
  8
17
  2
ROUNDP
 10
53.3400
 20
39.3700
 30
0.0000
 41
1.6764
 42
1.6764
 43
1.0000
 50
90.0000
  0
INSERT
  8
17
  2
ROUNDP
 10
53.3400
 20
36.8300
 30
0.0000
 41
1.6764
 42
1.6764
 43
1.0000
 50
90.0000
  0
INSERT
  8
17
  2
ROUNDP
 10
53.3400
 20
36.8300
 30
0.0000
 41
1.6764
 42
1.6764
 43
1.0000
 50
90.0000
  0
INSERT
  8
17
  2
ROUNDP
 10
53.3400
 20
34.2900
 30
0.0000
 41
1.6764
 42
1.6764
 43
1.0000
 50
90.0000
  0
INSERT
  8
17
  2
ROUNDP
 10
53.3400
 20
34.2900
 30
0.0000
 41
1.6764
 42
1.6764
 43
1.0000
 50
90.0000
  0
INSERT
  8
17
  2
OCTAGONP
 10
63.5000
 20
64.7700
 30
0.0000
 41
1.3208
 42
1.3208
 43
1.0000
 50
180.0000
  0
INSERT
  8
17
  2
OCTAGONP
 10
63.5000
 20
64.7700
 30
0.0000
 41
1.3208
 42
1.3208
 43
1.0000
 50
180.0000
  0
INSERT
  8
17
  2
OCTAGONP
 10
60.9600
 20
64.7700
 30
0.0000
 41
1.3208
 42
1.3208
 43
1.0000
 50
180.0000
  0
INSERT
  8
17
  2
OCTAGONP
 10
60.9600
 20
64.7700
 30
0.0000
 41
1.3208
 42
1.3208
 43
1.0000
 50
180.0000
  0
INSERT
  8
17
  2
ROUNDP
 10
45.7200
 20
41.9100
 30
0.0000
 41
1.8796
 42
1.8796
 43
1.0000
 50
270.0000
  0
INSERT
  8
17
  2
ROUNDP
 10
45.7200
 20
41.9100
 30
0.0000
 41
1.8796
 42
1.8796
 43
1.0000
 50
270.0000
  0
INSERT
  8
17
  2
ROUNDP
 10
45.7200
 20
31.7500
 30
0.0000
 41
1.8796
 42
1.8796
 43
1.0000
 50
270.0000
  0
INSERT
  8
17
  2
ROUNDP
 10
45.7200
 20
31.7500
 30
0.0000
 41
1.8796
 42
1.8796
 43
1.0000
 50
270.0000
  0
INSERT
  8
17
  2
ROUNDP
 10
58.4200
 20
62.2300
 30
0.0000
 41
1.5080
 42
1.5080
 43
1.0000
 50
0.0000
  0
INSERT
  8
17
  2
ROUNDP
 10
58.4200
 20
62.2300
 30
0.0000
 41
1.5080
 42
1.5080
 43
1.0000
 50
0.0000
  0
INSERT
  8
17
  2
ROUNDP
 10
58.4200
 20
59.6900
 30
0.0000
 41
1.5080
 42
1.5080
 43
1.0000
 50
0.0000
  0
INSERT
  8
17
  2
ROUNDP
 10
58.4200
 20
59.6900
 30
0.0000
 41
1.5080
 42
1.5080
 43
1.0000
 50
0.0000
  0
INSERT
  8
17
  2
ROUNDP
 10
58.4200
 20
57.1500
 30
0.0000
 41
1.5080
 42
1.5080
 43
1.0000
 50
0.0000
  0
INSERT
  8
17
  2
ROUNDP
 10
58.4200
 20
57.1500
 30
0.0000
 41
1.5080
 42
1.5080
 43
1.0000
 50
0.0000
  0
INSERT
  8
17
  2
ROUNDP
 10
58.4200
 20
54.6100
 30
0.0000
 41
1.5080
 42
1.5080
 43
1.0000
 50
0.0000
  0
INSERT
  8
17
  2
ROUNDP
 10
58.4200
 20
54.6100
 30
0.0000
 41
1.5080
 42
1.5080
 43
1.0000
 50
0.0000
  0
INSERT
  8
17
  2
ROUNDP
 10
58.4200
 20
52.0700
 30
0.0000
 41
1.5080
 42
1.5080
 43
1.0000
 50
0.0000
  0
INSERT
  8
17
  2
ROUNDP
 10
58.4200
 20
52.0700
 30
0.0000
 41
1.5080
 42
1.5080
 43
1.0000
 50
0.0000
  0
INSERT
  8
17
  2
ROUNDP
 10
58.4200
 20
49.5300
 30
0.0000
 41
1.5080
 42
1.5080
 43
1.0000
 50
0.0000
  0
INSERT
  8
17
  2
ROUNDP
 10
58.4200
 20
49.5300
 30
0.0000
 41
1.5080
 42
1.5080
 43
1.0000
 50
0.0000
  0
INSERT
  8
17
  2
ROUNDP
 10
58.4200
 20
46.9900
 30
0.0000
 41
1.5080
 42
1.5080
 43
1.0000
 50
0.0000
  0
INSERT
  8
17
  2
ROUNDP
 10
58.4200
 20
46.9900
 30
0.0000
 41
1.5080
 42
1.5080
 43
1.0000
 50
0.0000
  0
INSERT
  8
17
  2
ROUNDP
 10
66.0400
 20
46.9900
 30
0.0000
 41
1.5080
 42
1.5080
 43
1.0000
 50
0.0000
  0
INSERT
  8
17
  2
ROUNDP
 10
66.0400
 20
46.9900
 30
0.0000
 41
1.5080
 42
1.5080
 43
1.0000
 50
0.0000
  0
INSERT
  8
17
  2
ROUNDP
 10
66.0400
 20
49.5300
 30
0.0000
 41
1.5080
 42
1.5080
 43
1.0000
 50
0.0000
  0
INSERT
  8
17
  2
ROUNDP
 10
66.0400
 20
49.5300
 30
0.0000
 41
1.5080
 42
1.5080
 43
1.0000
 50
0.0000
  0
INSERT
  8
17
  2
ROUNDP
 10
66.0400
 20
52.0700
 30
0.0000
 41
1.5080
 42
1.5080
 43
1.0000
 50
0.0000
  0
INSERT
  8
17
  2
ROUNDP
 10
66.0400
 20
52.0700
 30
0.0000
 41
1.5080
 42
1.5080
 43
1.0000
 50
0.0000
  0
INSERT
  8
17
  2
ROUNDP
 10
66.0400
 20
54.6100
 30
0.0000
 41
1.5080
 42
1.5080
 43
1.0000
 50
0.0000
  0
INSERT
  8
17
  2
ROUNDP
 10
66.0400
 20
54.6100
 30
0.0000
 41
1.5080
 42
1.5080
 43
1.0000
 50
0.0000
  0
INSERT
  8
17
  2
ROUNDP
 10
66.0400
 20
57.1500
 30
0.0000
 41
1.5080
 42
1.5080
 43
1.0000
 50
0.0000
  0
INSERT
  8
17
  2
ROUNDP
 10
66.0400
 20
57.1500
 30
0.0000
 41
1.5080
 42
1.5080
 43
1.0000
 50
0.0000
  0
INSERT
  8
17
  2
ROUNDP
 10
66.0400
 20
59.6900
 30
0.0000
 41
1.5080
 42
1.5080
 43
1.0000
 50
0.0000
  0
INSERT
  8
17
  2
ROUNDP
 10
66.0400
 20
59.6900
 30
0.0000
 41
1.5080
 42
1.5080
 43
1.0000
 50
0.0000
  0
INSERT
  8
17
  2
ROUNDP
 10
66.0400
 20
62.2300
 30
0.0000
 41
1.5080
 42
1.5080
 43
1.0000
 50
0.0000
  0
INSERT
  8
17
  2
ROUNDP
 10
66.0400
 20
62.2300
 30
0.0000
 41
1.5080
 42
1.5080
 43
1.0000
 50
0.0000
  0
INSERT
  8
17
  2
ROUNDP
 10
73.6600
 20
24.1300
 30
0.0000
 41
1.8796
 42
1.8796
 43
1.0000
 50
180.0000
  0
INSERT
  8
17
  2
ROUNDP
 10
73.6600
 20
24.1300
 30
0.0000
 41
1.8796
 42
1.8796
 43
1.0000
 50
180.0000
  0
INSERT
  8
17
  2
ROUNDP
 10
73.6600
 20
26.6700
 30
0.0000
 41
1.8796
 42
1.8796
 43
1.0000
 50
180.0000
  0
INSERT
  8
17
  2
ROUNDP
 10
73.6600
 20
26.6700
 30
0.0000
 41
1.8796
 42
1.8796
 43
1.0000
 50
180.0000
  0
INSERT
  8
17
  2
ROUNDP
 10
73.6600
 20
29.2100
 30
0.0000
 41
1.8796
 42
1.8796
 43
1.0000
 50
180.0000
  0
INSERT
  8
17
  2
ROUNDP
 10
73.6600
 20
29.2100
 30
0.0000
 41
1.8796
 42
1.8796
 43
1.0000
 50
180.0000
  0
INSERT
  8
17
  2
ROUNDP
 10
73.6600
 20
31.7500
 30
0.0000
 41
1.8796
 42
1.8796
 43
1.0000
 50
180.0000
  0
INSERT
  8
17
  2
ROUNDP
 10
73.6600
 20
31.7500
 30
0.0000
 41
1.8796
 42
1.8796
 43
1.0000
 50
180.0000
  0
INSERT
  8
17
  2
ROUNDP
 10
73.6600
 20
34.2900
 30
0.0000
 41
1.8796
 42
1.8796
 43
1.0000
 50
180.0000
  0
INSERT
  8
17
  2
ROUNDP
 10
73.6600
 20
34.2900
 30
0.0000
 41
1.8796
 42
1.8796
 43
1.0000
 50
180.0000
  0
INSERT
  8
17
  2
ROUNDP
 10
73.6600
 20
36.8300
 30
0.0000
 41
1.8796
 42
1.8796
 43
1.0000
 50
180.0000
  0
INSERT
  8
17
  2
ROUNDP
 10
73.6600
 20
36.8300
 30
0.0000
 41
1.8796
 42
1.8796
 43
1.0000
 50
180.0000
  0
INSERT
  8
17
  2
ROUNDP
 10
73.6600
 20
39.3700
 30
0.0000
 41
1.8796
 42
1.8796
 43
1.0000
 50
180.0000
  0
INSERT
  8
17
  2
ROUNDP
 10
73.6600
 20
39.3700
 30
0.0000
 41
1.8796
 42
1.8796
 43
1.0000
 50
180.0000
  0
INSERT
  8
17
  2
ROUNDP
 10
73.6600
 20
41.9100
 30
0.0000
 41
1.8796
 42
1.8796
 43
1.0000
 50
180.0000
  0
INSERT
  8
17
  2
ROUNDP
 10
73.6600
 20
41.9100
 30
0.0000
 41
1.8796
 42
1.8796
 43
1.0000
 50
180.0000
  0
INSERT
  8
17
  2
ROUNDP
 10
73.6600
 20
44.4500
 30
0.0000
 41
1.8796
 42
1.8796
 43
1.0000
 50
180.0000
  0
INSERT
  8
17
  2
ROUNDP
 10
73.6600
 20
44.4500
 30
0.0000
 41
1.8796
 42
1.8796
 43
1.0000
 50
180.0000
  0
INSERT
  8
17
  2
ROUNDP
 10
73.6600
 20
46.9900
 30
0.0000
 41
1.8796
 42
1.8796
 43
1.0000
 50
180.0000
  0
INSERT
  8
17
  2
ROUNDP
 10
73.6600
 20
46.9900
 30
0.0000
 41
1.8796
 42
1.8796
 43
1.0000
 50
180.0000
  0
INSERT
  8
17
  2
ROUNDP
 10
73.6600
 20
49.5300
 30
0.0000
 41
1.8796
 42
1.8796
 43
1.0000
 50
180.0000
  0
INSERT
  8
17
  2
ROUNDP
 10
73.6600
 20
49.5300
 30
0.0000
 41
1.8796
 42
1.8796
 43
1.0000
 50
180.0000
  0
INSERT
  8
17
  2
ROUNDP
 10
73.6600
 20
52.0700
 30
0.0000
 41
1.8796
 42
1.8796
 43
1.0000
 50
180.0000
  0
INSERT
  8
17
  2
ROUNDP
 10
73.6600
 20
52.0700
 30
0.0000
 41
1.8796
 42
1.8796
 43
1.0000
 50
180.0000
  0
INSERT
  8
17
  2
ROUNDP
 10
73.6600
 20
54.6100
 30
0.0000
 41
1.8796
 42
1.8796
 43
1.0000
 50
180.0000
  0
INSERT
  8
17
  2
ROUNDP
 10
73.6600
 20
54.6100
 30
0.0000
 41
1.8796
 42
1.8796
 43
1.0000
 50
180.0000
  0
INSERT
  8
17
  2
ROUNDP
 10
73.6600
 20
57.1500
 30
0.0000
 41
1.8796
 42
1.8796
 43
1.0000
 50
180.0000
  0
INSERT
  8
17
  2
ROUNDP
 10
73.6600
 20
57.1500
 30
0.0000
 41
1.8796
 42
1.8796
 43
1.0000
 50
180.0000
  0
INSERT
  8
17
  2
ROUNDP
 10
25.4000
 20
36.8300
 30
0.0000
 41
1.6764
 42
1.6764
 43
1.0000
 50
0.0000
  0
INSERT
  8
17
  2
ROUNDP
 10
25.4000
 20
36.8300
 30
0.0000
 41
1.6764
 42
1.6764
 43
1.0000
 50
0.0000
  0
INSERT
  8
17
  2
ROUNDP
 10
25.4000
 20
34.2900
 30
0.0000
 41
1.6764
 42
1.6764
 43
1.0000
 50
0.0000
  0
INSERT
  8
17
  2
ROUNDP
 10
25.4000
 20
34.2900
 30
0.0000
 41
1.6764
 42
1.6764
 43
1.0000
 50
0.0000
  0
INSERT
  8
17
  2
ROUNDP
 10
25.4000
 20
31.7500
 30
0.0000
 41
1.6764
 42
1.6764
 43
1.0000
 50
0.0000
  0
INSERT
  8
17
  2
ROUNDP
 10
25.4000
 20
31.7500
 30
0.0000
 41
1.6764
 42
1.6764
 43
1.0000
 50
0.0000
  0
INSERT
  8
17
  2
ROUNDP
 10
25.4000
 20
29.2100
 30
0.0000
 41
1.6764
 42
1.6764
 43
1.0000
 50
0.0000
  0
INSERT
  8
17
  2
ROUNDP
 10
25.4000
 20
29.2100
 30
0.0000
 41
1.6764
 42
1.6764
 43
1.0000
 50
0.0000
  0
INSERT
  8
17
  2
ROUNDP
 10
25.4000
 20
26.6700
 30
0.0000
 41
1.6764
 42
1.6764
 43
1.0000
 50
0.0000
  0
INSERT
  8
17
  2
ROUNDP
 10
25.4000
 20
26.6700
 30
0.0000
 41
1.6764
 42
1.6764
 43
1.0000
 50
0.0000
  0
INSERT
  8
17
  2
ROUNDP
 10
25.4000
 20
24.1300
 30
0.0000
 41
1.6764
 42
1.6764
 43
1.0000
 50
0.0000
  0
INSERT
  8
17
  2
ROUNDP
 10
25.4000
 20
24.1300
 30
0.0000
 41
1.6764
 42
1.6764
 43
1.0000
 50
0.0000
  0
INSERT
  8
17
  2
ROUNDP
 10
25.4000
 20
57.1500
 30
0.0000
 41
1.6764
 42
1.6764
 43
1.0000
 50
0.0000
  0
INSERT
  8
17
  2
ROUNDP
 10
25.4000
 20
57.1500
 30
0.0000
 41
1.6764
 42
1.6764
 43
1.0000
 50
0.0000
  0
INSERT
  8
17
  2
ROUNDP
 10
25.4000
 20
54.6100
 30
0.0000
 41
1.6764
 42
1.6764
 43
1.0000
 50
0.0000
  0
INSERT
  8
17
  2
ROUNDP
 10
25.4000
 20
54.6100
 30
0.0000
 41
1.6764
 42
1.6764
 43
1.0000
 50
0.0000
  0
INSERT
  8
17
  2
ROUNDP
 10
25.4000
 20
52.0700
 30
0.0000
 41
1.6764
 42
1.6764
 43
1.0000
 50
0.0000
  0
INSERT
  8
17
  2
ROUNDP
 10
25.4000
 20
52.0700
 30
0.0000
 41
1.6764
 42
1.6764
 43
1.0000
 50
0.0000
  0
INSERT
  8
17
  2
ROUNDP
 10
25.4000
 20
49.5300
 30
0.0000
 41
1.6764
 42
1.6764
 43
1.0000
 50
0.0000
  0
INSERT
  8
17
  2
ROUNDP
 10
25.4000
 20
49.5300
 30
0.0000
 41
1.6764
 42
1.6764
 43
1.0000
 50
0.0000
  0
INSERT
  8
17
  2
ROUNDP
 10
25.4000
 20
46.9900
 30
0.0000
 41
1.6764
 42
1.6764
 43
1.0000
 50
0.0000
  0
INSERT
  8
17
  2
ROUNDP
 10
25.4000
 20
46.9900
 30
0.0000
 41
1.6764
 42
1.6764
 43
1.0000
 50
0.0000
  0
INSERT
  8
17
  2
ROUNDP
 10
25.4000
 20
44.4500
 30
0.0000
 41
1.6764
 42
1.6764
 43
1.0000
 50
0.0000
  0
INSERT
  8
17
  2
ROUNDP
 10
25.4000
 20
44.4500
 30
0.0000
 41
1.6764
 42
1.6764
 43
1.0000
 50
0.0000
  0
INSERT
  8
17
  2
ROUNDP
 10
15.2400
 20
12.0650
 30
0.0000
 41
1.8796
 42
1.8796
 43
1.0000
 50
270.0000
  0
INSERT
  8
17
  2
ROUNDP
 10
15.2400
 20
12.0650
 30
0.0000
 41
1.8796
 42
1.8796
 43
1.0000
 50
270.0000
  0
INSERT
  8
17
  2
ROUNDP
 10
12.7000
 20
12.0650
 30
0.0000
 41
1.8796
 42
1.8796
 43
1.0000
 50
270.0000
  0
INSERT
  8
17
  2
ROUNDP
 10
12.7000
 20
12.0650
 30
0.0000
 41
1.8796
 42
1.8796
 43
1.0000
 50
270.0000
  0
INSERT
  8
17
  2
ROUNDP
 10
10.1600
 20
12.0650
 30
0.0000
 41
1.8796
 42
1.8796
 43
1.0000
 50
270.0000
  0
INSERT
  8
17
  2
ROUNDP
 10
10.1600
 20
12.0650
 30
0.0000
 41
1.8796
 42
1.8796
 43
1.0000
 50
270.0000
  0
INSERT
  8
17
  2
ROUNDP
 10
68.5800
 20
6.3500
 30
0.0000
 41
1.5080
 42
1.5080
 43
1.0000
 50
180.0000
  0
INSERT
  8
17
  2
ROUNDP
 10
68.5800
 20
6.3500
 30
0.0000
 41
1.5080
 42
1.5080
 43
1.0000
 50
180.0000
  0
INSERT
  8
17
  2
ROUNDP
 10
66.0400
 20
6.3500
 30
0.0000
 41
1.5080
 42
1.5080
 43
1.0000
 50
180.0000
  0
INSERT
  8
17
  2
ROUNDP
 10
66.0400
 20
6.3500
 30
0.0000
 41
1.5080
 42
1.5080
 43
1.0000
 50
180.0000
  0
INSERT
  8
17
  2
ROUNDP
 10
2.5400
 20
60.9600
 30
0.0000
 41
1.5080
 42
1.5080
 43
1.0000
 50
90.0000
  0
INSERT
  8
17
  2
ROUNDP
 10
2.5400
 20
60.9600
 30
0.0000
 41
1.5080
 42
1.5080
 43
1.0000
 50
90.0000
  0
INSERT
  8
17
  2
ROUNDP
 10
2.5400
 20
68.5800
 30
0.0000
 41
1.5080
 42
1.5080
 43
1.0000
 50
90.0000
  0
INSERT
  8
17
  2
ROUNDP
 10
2.5400
 20
68.5800
 30
0.0000
 41
1.5080
 42
1.5080
 43
1.0000
 50
90.0000
  0
INSERT
  8
17
  2
ROUNDP
 10
2.5400
 20
51.4350
 30
0.0000
 41
1.5080
 42
1.5080
 43
1.0000
 50
90.0000
  0
INSERT
  8
17
  2
ROUNDP
 10
2.5400
 20
51.4350
 30
0.0000
 41
1.5080
 42
1.5080
 43
1.0000
 50
90.0000
  0
INSERT
  8
17
  2
ROUNDP
 10
2.5400
 20
59.0550
 30
0.0000
 41
1.5080
 42
1.5080
 43
1.0000
 50
90.0000
  0
INSERT
  8
17
  2
ROUNDP
 10
2.5400
 20
59.0550
 30
0.0000
 41
1.5080
 42
1.5080
 43
1.0000
 50
90.0000
  0
INSERT
  8
17
  2
ROUNDP
 10
2.5400
 20
41.9100
 30
0.0000
 41
1.5080
 42
1.5080
 43
1.0000
 50
90.0000
  0
INSERT
  8
17
  2
ROUNDP
 10
2.5400
 20
41.9100
 30
0.0000
 41
1.5080
 42
1.5080
 43
1.0000
 50
90.0000
  0
INSERT
  8
17
  2
ROUNDP
 10
2.5400
 20
49.5300
 30
0.0000
 41
1.5080
 42
1.5080
 43
1.0000
 50
90.0000
  0
INSERT
  8
17
  2
ROUNDP
 10
2.5400
 20
49.5300
 30
0.0000
 41
1.5080
 42
1.5080
 43
1.0000
 50
90.0000
  0
INSERT
  8
17
  2
ROUNDP
 10
2.5400
 20
31.7500
 30
0.0000
 41
1.5080
 42
1.5080
 43
1.0000
 50
90.0000
  0
INSERT
  8
17
  2
ROUNDP
 10
2.5400
 20
31.7500
 30
0.0000
 41
1.5080
 42
1.5080
 43
1.0000
 50
90.0000
  0
INSERT
  8
17
  2
ROUNDP
 10
2.5400
 20
39.3700
 30
0.0000
 41
1.5080
 42
1.5080
 43
1.0000
 50
90.0000
  0
INSERT
  8
17
  2
ROUNDP
 10
2.5400
 20
39.3700
 30
0.0000
 41
1.5080
 42
1.5080
 43
1.0000
 50
90.0000
  0
INSERT
  8
17
  2
ROUNDP
 10
2.5400
 20
22.2250
 30
0.0000
 41
1.5080
 42
1.5080
 43
1.0000
 50
90.0000
  0
INSERT
  8
17
  2
ROUNDP
 10
2.5400
 20
22.2250
 30
0.0000
 41
1.5080
 42
1.5080
 43
1.0000
 50
90.0000
  0
INSERT
  8
17
  2
ROUNDP
 10
2.5400
 20
29.8450
 30
0.0000
 41
1.5080
 42
1.5080
 43
1.0000
 50
90.0000
  0
INSERT
  8
17
  2
ROUNDP
 10
2.5400
 20
29.8450
 30
0.0000
 41
1.5080
 42
1.5080
 43
1.0000
 50
90.0000
  0
INSERT
  8
17
  2
ROUNDP
 10
2.5400
 20
12.7000
 30
0.0000
 41
1.5080
 42
1.5080
 43
1.0000
 50
90.0000
  0
INSERT
  8
17
  2
ROUNDP
 10
2.5400
 20
12.7000
 30
0.0000
 41
1.5080
 42
1.5080
 43
1.0000
 50
90.0000
  0
INSERT
  8
17
  2
ROUNDP
 10
2.5400
 20
20.3200
 30
0.0000
 41
1.5080
 42
1.5080
 43
1.0000
 50
90.0000
  0
INSERT
  8
17
  2
ROUNDP
 10
2.5400
 20
20.3200
 30
0.0000
 41
1.5080
 42
1.5080
 43
1.0000
 50
90.0000
  0
INSERT
  8
17
  2
ROUNDP
 10
58.4200
 20
69.8500
 30
0.0000
 41
1.5080
 42
1.5080
 43
1.0000
 50
0.0000
  0
INSERT
  8
17
  2
ROUNDP
 10
58.4200
 20
69.8500
 30
0.0000
 41
1.5080
 42
1.5080
 43
1.0000
 50
0.0000
  0
INSERT
  8
17
  2
ROUNDP
 10
66.0400
 20
69.8500
 30
0.0000
 41
1.5080
 42
1.5080
 43
1.0000
 50
0.0000
  0
INSERT
  8
17
  2
ROUNDP
 10
66.0400
 20
69.8500
 30
0.0000
 41
1.5080
 42
1.5080
 43
1.0000
 50
0.0000
  0
INSERT
  8
17
  2
ROUNDP
 10
66.0400
 20
67.3100
 30
0.0000
 41
1.5080
 42
1.5080
 43
1.0000
 50
180.0000
  0
INSERT
  8
17
  2
ROUNDP
 10
66.0400
 20
67.3100
 30
0.0000
 41
1.5080
 42
1.5080
 43
1.0000
 50
180.0000
  0
INSERT
  8
17
  2
ROUNDP
 10
58.4200
 20
67.3100
 30
0.0000
 41
1.5080
 42
1.5080
 43
1.0000
 50
180.0000
  0
INSERT
  8
17
  2
ROUNDP
 10
58.4200
 20
67.3100
 30
0.0000
 41
1.5080
 42
1.5080
 43
1.0000
 50
180.0000
  0
INSERT
  8
17
  2
ROUNDP
 10
55.8800
 20
6.3500
 30
0.0000
 41
1.5080
 42
1.5080
 43
1.0000
 50
0.0000
  0
INSERT
  8
17
  2
ROUNDP
 10
55.8800
 20
6.3500
 30
0.0000
 41
1.5080
 42
1.5080
 43
1.0000
 50
0.0000
  0
INSERT
  8
17
  2
ROUNDP
 10
63.5000
 20
6.3500
 30
0.0000
 41
1.5080
 42
1.5080
 43
1.0000
 50
0.0000
  0
INSERT
  8
17
  2
ROUNDP
 10
63.5000
 20
6.3500
 30
0.0000
 41
1.5080
 42
1.5080
 43
1.0000
 50
0.0000
  0
INSERT
  8
17
  2
ROUNDP
 10
7.4422
 20
6.3500
 30
0.0000
 41
1.8796
 42
1.8796
 43
1.0000
 50
90.0000
  0
INSERT
  8
17
  2
ROUNDP
 10
7.4422
 20
6.3500
 30
0.0000
 41
1.8796
 42
1.8796
 43
1.0000
 50
90.0000
  0
INSERT
  8
17
  2
ROUNDP
 10
10.1600
 20
6.3500
 30
0.0000
 41
1.8796
 42
1.8796
 43
1.0000
 50
90.0000
  0
INSERT
  8
17
  2
ROUNDP
 10
10.1600
 20
6.3500
 30
0.0000
 41
1.8796
 42
1.8796
 43
1.0000
 50
90.0000
  0
INSERT
  8
17
  2
ROUNDP
 10
12.8778
 20
6.3500
 30
0.0000
 41
1.8796
 42
1.8796
 43
1.0000
 50
90.0000
  0
INSERT
  8
17
  2
ROUNDP
 10
12.8778
 20
6.3500
 30
0.0000
 41
1.8796
 42
1.8796
 43
1.0000
 50
90.0000
  0
INSERT
  8
17
  2
ROUNDP
 10
7.0106
 20
77.5012
 30
0.0000
 41
1.8796
 42
1.8796
 43
1.0000
 50
270.0000
  0
INSERT
  8
17
  2
ROUNDP
 10
7.0106
 20
77.5012
 30
0.0000
 41
1.8796
 42
1.8796
 43
1.0000
 50
270.0000
  0
INSERT
  8
17
  2
ROUNDP
 10
7.0106
 20
70.9988
 30
0.0000
 41
1.8796
 42
1.8796
 43
1.0000
 50
270.0000
  0
INSERT
  8
17
  2
ROUNDP
 10
7.0106
 20
70.9988
 30
0.0000
 41
1.8796
 42
1.8796
 43
1.0000
 50
270.0000
  0
INSERT
  8
17
  2
ROUNDP
 10
2.4894
 20
77.5012
 30
0.0000
 41
1.8796
 42
1.8796
 43
1.0000
 50
270.0000
  0
INSERT
  8
17
  2
ROUNDP
 10
2.4894
 20
77.5012
 30
0.0000
 41
1.8796
 42
1.8796
 43
1.0000
 50
270.0000
  0
INSERT
  8
17
  2
ROUNDP
 10
2.4894
 20
70.9988
 30
0.0000
 41
1.8796
 42
1.8796
 43
1.0000
 50
270.0000
  0
INSERT
  8
17
  2
ROUNDP
 10
2.4894
 20
70.9988
 30
0.0000
 41
1.8796
 42
1.8796
 43
1.0000
 50
270.0000
  0
INSERT
  8
17
  2
LONGP100
 10
10.1600
 20
77.4700
 30
0.0000
 41
1.5080
 42
1.5080
 43
1.0000
 50
0.0000
  0
INSERT
  8
17
  2
LONGP100
 10
10.1600
 20
77.4700
 30
0.0000
 41
1.5080
 42
1.5080
 43
1.0000
 50
0.0000
  0
INSERT
  8
17
  2
LONGP100
 10
10.1600
 20
74.9300
 30
0.0000
 41
1.5080
 42
1.5080
 43
1.0000
 50
0.0000
  0
INSERT
  8
17
  2
LONGP100
 10
10.1600
 20
74.9300
 30
0.0000
 41
1.5080
 42
1.5080
 43
1.0000
 50
0.0000
  0
INSERT
  8
17
  2
LONGP100
 10
10.1600
 20
72.3900
 30
0.0000
 41
1.5080
 42
1.5080
 43
1.0000
 50
0.0000
  0
INSERT
  8
17
  2
LONGP100
 10
10.1600
 20
72.3900
 30
0.0000
 41
1.5080
 42
1.5080
 43
1.0000
 50
0.0000
  0
INSERT
  8
17
  2
LONGP100
 10
10.1600
 20
69.8500
 30
0.0000
 41
1.5080
 42
1.5080
 43
1.0000
 50
0.0000
  0
INSERT
  8
17
  2
LONGP100
 10
10.1600
 20
69.8500
 30
0.0000
 41
1.5080
 42
1.5080
 43
1.0000
 50
0.0000
  0
INSERT
  8
17
  2
LONGP100
 10
17.7800
 20
69.8500
 30
0.0000
 41
1.5080
 42
1.5080
 43
1.0000
 50
0.0000
  0
INSERT
  8
17
  2
LONGP100
 10
17.7800
 20
69.8500
 30
0.0000
 41
1.5080
 42
1.5080
 43
1.0000
 50
0.0000
  0
INSERT
  8
17
  2
LONGP100
 10
17.7800
 20
72.3900
 30
0.0000
 41
1.5080
 42
1.5080
 43
1.0000
 50
0.0000
  0
INSERT
  8
17
  2
LONGP100
 10
17.7800
 20
72.3900
 30
0.0000
 41
1.5080
 42
1.5080
 43
1.0000
 50
0.0000
  0
INSERT
  8
17
  2
LONGP100
 10
17.7800
 20
74.9300
 30
0.0000
 41
1.5080
 42
1.5080
 43
1.0000
 50
0.0000
  0
INSERT
  8
17
  2
LONGP100
 10
17.7800
 20
74.9300
 30
0.0000
 41
1.5080
 42
1.5080
 43
1.0000
 50
0.0000
  0
INSERT
  8
17
  2
LONGP100
 10
17.7800
 20
77.4700
 30
0.0000
 41
1.5080
 42
1.5080
 43
1.0000
 50
0.0000
  0
INSERT
  8
17
  2
LONGP100
 10
17.7800
 20
77.4700
 30
0.0000
 41
1.5080
 42
1.5080
 43
1.0000
 50
0.0000
  0
INSERT
  8
17
  2
ROUNDP
 10
68.5800
 20
76.2000
 30
0.0000
 41
1.8796
 42
1.8796
 43
1.0000
 50
270.0000
  0
INSERT
  8
17
  2
ROUNDP
 10
68.5800
 20
76.2000
 30
0.0000
 41
1.8796
 42
1.8796
 43
1.0000
 50
270.0000
  0
INSERT
  8
17
  2
ROUNDP
 10
66.0400
 20
76.2000
 30
0.0000
 41
1.8796
 42
1.8796
 43
1.0000
 50
270.0000
  0
INSERT
  8
17
  2
ROUNDP
 10
66.0400
 20
76.2000
 30
0.0000
 41
1.8796
 42
1.8796
 43
1.0000
 50
270.0000
  0
INSERT
  8
17
  2
ROUNDP
 10
63.5000
 20
76.2000
 30
0.0000
 41
1.8796
 42
1.8796
 43
1.0000
 50
270.0000
  0
INSERT
  8
17
  2
ROUNDP
 10
63.5000
 20
76.2000
 30
0.0000
 41
1.8796
 42
1.8796
 43
1.0000
 50
270.0000
  0
INSERT
  8
17
  2
ROUNDP
 10
60.9600
 20
76.2000
 30
0.0000
 41
1.8796
 42
1.8796
 43
1.0000
 50
270.0000
  0
INSERT
  8
17
  2
ROUNDP
 10
60.9600
 20
76.2000
 30
0.0000
 41
1.8796
 42
1.8796
 43
1.0000
 50
270.0000
  0
INSERT
  8
17
  2
ROUNDP
 10
68.5800
 20
21.5900
 30
0.0000
 41
1.6764
 42
1.6764
 43
1.0000
 50
0.0000
  0
INSERT
  8
17
  2
ROUNDP
 10
68.5800
 20
21.5900
 30
0.0000
 41
1.6764
 42
1.6764
 43
1.0000
 50
0.0000
  0
INSERT
  8
17
  2
ROUNDP
 10
53.3400
 20
21.5900
 30
0.0000
 41
1.6764
 42
1.6764
 43
1.0000
 50
0.0000
  0
INSERT
  8
17
  2
ROUNDP
 10
53.3400
 20
21.5900
 30
0.0000
 41
1.6764
 42
1.6764
 43
1.0000
 50
0.0000
  0
INSERT
  8
17
  2
ROUNDP
 10
53.3400
 20
19.0500
 30
0.0000
 41
1.6764
 42
1.6764
 43
1.0000
 50
0.0000
  0
INSERT
  8
17
  2
ROUNDP
 10
53.3400
 20
19.0500
 30
0.0000
 41
1.6764
 42
1.6764
 43
1.0000
 50
0.0000
  0
INSERT
  8
17
  2
ROUNDP
 10
68.5800
 20
24.1300
 30
0.0000
 41
1.6764
 42
1.6764
 43
1.0000
 50
0.0000
  0
INSERT
  8
17
  2
ROUNDP
 10
68.5800
 20
24.1300
 30
0.0000
 41
1.6764
 42
1.6764
 43
1.0000
 50
0.0000
  0
INSERT
  8
17
  2
ROUNDP
 10
68.5800
 20
26.6700
 30
0.0000
 41
1.6764
 42
1.6764
 43
1.0000
 50
0.0000
  0
INSERT
  8
17
  2
ROUNDP
 10
68.5800
 20
26.6700
 30
0.0000
 41
1.6764
 42
1.6764
 43
1.0000
 50
0.0000
  0
INSERT
  8
17
  2
ROUNDP
 10
53.3400
 20
13.9700
 30
0.0000
 41
1.6764
 42
1.6764
 43
1.0000
 50
0.0000
  0
INSERT
  8
17
  2
ROUNDP
 10
53.3400
 20
13.9700
 30
0.0000
 41
1.6764
 42
1.6764
 43
1.0000
 50
0.0000
  0
INSERT
  8
17
  2
ROUNDP
 10
53.3400
 20
16.5100
 30
0.0000
 41
1.6764
 42
1.6764
 43
1.0000
 50
0.0000
  0
INSERT
  8
17
  2
ROUNDP
 10
53.3400
 20
16.5100
 30
0.0000
 41
1.6764
 42
1.6764
 43
1.0000
 50
0.0000
  0
INSERT
  8
17
  2
ROUNDP
 10
68.5800
 20
19.0500
 30
0.0000
 41
1.6764
 42
1.6764
 43
1.0000
 50
0.0000
  0
INSERT
  8
17
  2
ROUNDP
 10
68.5800
 20
19.0500
 30
0.0000
 41
1.6764
 42
1.6764
 43
1.0000
 50
0.0000
  0
INSERT
  8
17
  2
ROUNDP
 10
68.5800
 20
16.5100
 30
0.0000
 41
1.6764
 42
1.6764
 43
1.0000
 50
0.0000
  0
INSERT
  8
17
  2
ROUNDP
 10
68.5800
 20
16.5100
 30
0.0000
 41
1.6764
 42
1.6764
 43
1.0000
 50
0.0000
  0
INSERT
  8
17
  2
ROUNDP
 10
53.3400
 20
24.1300
 30
0.0000
 41
1.6764
 42
1.6764
 43
1.0000
 50
0.0000
  0
INSERT
  8
17
  2
ROUNDP
 10
53.3400
 20
24.1300
 30
0.0000
 41
1.6764
 42
1.6764
 43
1.0000
 50
0.0000
  0
INSERT
  8
17
  2
ROUNDP
 10
53.3400
 20
11.4300
 30
0.0000
 41
1.6764
 42
1.6764
 43
1.0000
 50
0.0000
  0
INSERT
  8
17
  2
ROUNDP
 10
53.3400
 20
11.4300
 30
0.0000
 41
1.6764
 42
1.6764
 43
1.0000
 50
0.0000
  0
INSERT
  8
17
  2
ROUNDP
 10
68.5800
 20
11.4300
 30
0.0000
 41
1.6764
 42
1.6764
 43
1.0000
 50
0.0000
  0
INSERT
  8
17
  2
ROUNDP
 10
68.5800
 20
11.4300
 30
0.0000
 41
1.6764
 42
1.6764
 43
1.0000
 50
0.0000
  0
INSERT
  8
17
  2
ROUNDP
 10
68.5800
 20
29.2100
 30
0.0000
 41
1.6764
 42
1.6764
 43
1.0000
 50
0.0000
  0
INSERT
  8
17
  2
ROUNDP
 10
68.5800
 20
29.2100
 30
0.0000
 41
1.6764
 42
1.6764
 43
1.0000
 50
0.0000
  0
INSERT
  8
17
  2
ROUNDP
 10
68.5800
 20
13.9700
 30
0.0000
 41
1.6764
 42
1.6764
 43
1.0000
 50
0.0000
  0
INSERT
  8
17
  2
ROUNDP
 10
68.5800
 20
13.9700
 30
0.0000
 41
1.6764
 42
1.6764
 43
1.0000
 50
0.0000
  0
INSERT
  8
17
  2
ROUNDP
 10
53.3400
 20
26.6700
 30
0.0000
 41
1.6764
 42
1.6764
 43
1.0000
 50
0.0000
  0
INSERT
  8
17
  2
ROUNDP
 10
53.3400
 20
26.6700
 30
0.0000
 41
1.6764
 42
1.6764
 43
1.0000
 50
0.0000
  0
INSERT
  8
17
  2
ROUNDP
 10
53.3400
 20
29.2100
 30
0.0000
 41
1.6764
 42
1.6764
 43
1.0000
 50
0.0000
  0
INSERT
  8
17
  2
ROUNDP
 10
53.3400
 20
29.2100
 30
0.0000
 41
1.6764
 42
1.6764
 43
1.0000
 50
0.0000
  0
ENDSEC
  0
EOF
