%
M48
M72
T01C0.02000
T02C0.03200
T03C0.03937
T04C0.12598
%
T01
X85100Y75100
X132600Y60100
T02
X215100Y30100
X215100Y40100
X215100Y50100
T03
X50100Y55100
X95100Y55100
X117600Y45100
X117600Y35100
X95100Y25100
X75100Y27600
X65100Y27600
X50100Y25100
X142600Y25100
X185100Y25100
X200100Y25100
X232600Y25100
X255100Y27600
X265100Y27600
X280100Y25100
X170100Y47600
X160100Y47600
X142600Y55100
X160100Y59569
X170100Y59569
X185100Y55100
X200100Y55100
X232600Y55100
X280100Y55100
X279765Y74520
X270100Y80770
X284765Y83180
X275100Y89430
X280100Y100100
X290100Y100100
X320100Y100100
X250100Y100100
X230100Y77600
X220100Y77600
X210100Y77600
X200100Y77600
X190100Y77600
X180100Y77600
X170100Y77600
X160100Y77600
X150100Y77600
X140100Y77600
X130100Y77600
X120100Y77600
X110100Y77600
X100100Y77600
X60100Y80770
X50100Y75770
X45100Y84430
X55100Y89430
X50100Y100100
X40100Y100100
X10100Y100100
X80100Y100100
T04
X70100Y55100
X260100Y55100
M30
