G75*
%MOIN*%
%OFA0B0*%
%FSLAX25Y25*%
%IPPOS*%
%LPD*%
%AMOC8*
5,1,8,0,0,1.08239X$1,22.5*
%
%ADD10C,0.00000*%
%ADD11C,0.01000*%
%ADD12OC8,0.07400*%
%ADD13C,0.07400*%
%ADD14C,0.05200*%
%ADD15C,0.05937*%
%ADD16C,0.01600*%
%ADD17C,0.04000*%
%ADD18C,0.03200*%
D10*
X0063801Y0055100D02*
X0063803Y0055258D01*
X0063809Y0055416D01*
X0063819Y0055574D01*
X0063833Y0055732D01*
X0063851Y0055889D01*
X0063872Y0056046D01*
X0063898Y0056202D01*
X0063928Y0056358D01*
X0063961Y0056513D01*
X0063999Y0056666D01*
X0064040Y0056819D01*
X0064085Y0056971D01*
X0064134Y0057122D01*
X0064187Y0057271D01*
X0064243Y0057419D01*
X0064303Y0057565D01*
X0064367Y0057710D01*
X0064435Y0057853D01*
X0064506Y0057995D01*
X0064580Y0058135D01*
X0064658Y0058272D01*
X0064740Y0058408D01*
X0064824Y0058542D01*
X0064913Y0058673D01*
X0065004Y0058802D01*
X0065099Y0058929D01*
X0065196Y0059054D01*
X0065297Y0059176D01*
X0065401Y0059295D01*
X0065508Y0059412D01*
X0065618Y0059526D01*
X0065731Y0059637D01*
X0065846Y0059746D01*
X0065964Y0059851D01*
X0066085Y0059953D01*
X0066208Y0060053D01*
X0066334Y0060149D01*
X0066462Y0060242D01*
X0066592Y0060332D01*
X0066725Y0060418D01*
X0066860Y0060502D01*
X0066996Y0060581D01*
X0067135Y0060658D01*
X0067276Y0060730D01*
X0067418Y0060800D01*
X0067562Y0060865D01*
X0067708Y0060927D01*
X0067855Y0060985D01*
X0068004Y0061040D01*
X0068154Y0061091D01*
X0068305Y0061138D01*
X0068457Y0061181D01*
X0068610Y0061220D01*
X0068765Y0061256D01*
X0068920Y0061287D01*
X0069076Y0061315D01*
X0069232Y0061339D01*
X0069389Y0061359D01*
X0069547Y0061375D01*
X0069704Y0061387D01*
X0069863Y0061395D01*
X0070021Y0061399D01*
X0070179Y0061399D01*
X0070337Y0061395D01*
X0070496Y0061387D01*
X0070653Y0061375D01*
X0070811Y0061359D01*
X0070968Y0061339D01*
X0071124Y0061315D01*
X0071280Y0061287D01*
X0071435Y0061256D01*
X0071590Y0061220D01*
X0071743Y0061181D01*
X0071895Y0061138D01*
X0072046Y0061091D01*
X0072196Y0061040D01*
X0072345Y0060985D01*
X0072492Y0060927D01*
X0072638Y0060865D01*
X0072782Y0060800D01*
X0072924Y0060730D01*
X0073065Y0060658D01*
X0073204Y0060581D01*
X0073340Y0060502D01*
X0073475Y0060418D01*
X0073608Y0060332D01*
X0073738Y0060242D01*
X0073866Y0060149D01*
X0073992Y0060053D01*
X0074115Y0059953D01*
X0074236Y0059851D01*
X0074354Y0059746D01*
X0074469Y0059637D01*
X0074582Y0059526D01*
X0074692Y0059412D01*
X0074799Y0059295D01*
X0074903Y0059176D01*
X0075004Y0059054D01*
X0075101Y0058929D01*
X0075196Y0058802D01*
X0075287Y0058673D01*
X0075376Y0058542D01*
X0075460Y0058408D01*
X0075542Y0058272D01*
X0075620Y0058135D01*
X0075694Y0057995D01*
X0075765Y0057853D01*
X0075833Y0057710D01*
X0075897Y0057565D01*
X0075957Y0057419D01*
X0076013Y0057271D01*
X0076066Y0057122D01*
X0076115Y0056971D01*
X0076160Y0056819D01*
X0076201Y0056666D01*
X0076239Y0056513D01*
X0076272Y0056358D01*
X0076302Y0056202D01*
X0076328Y0056046D01*
X0076349Y0055889D01*
X0076367Y0055732D01*
X0076381Y0055574D01*
X0076391Y0055416D01*
X0076397Y0055258D01*
X0076399Y0055100D01*
X0076397Y0054942D01*
X0076391Y0054784D01*
X0076381Y0054626D01*
X0076367Y0054468D01*
X0076349Y0054311D01*
X0076328Y0054154D01*
X0076302Y0053998D01*
X0076272Y0053842D01*
X0076239Y0053687D01*
X0076201Y0053534D01*
X0076160Y0053381D01*
X0076115Y0053229D01*
X0076066Y0053078D01*
X0076013Y0052929D01*
X0075957Y0052781D01*
X0075897Y0052635D01*
X0075833Y0052490D01*
X0075765Y0052347D01*
X0075694Y0052205D01*
X0075620Y0052065D01*
X0075542Y0051928D01*
X0075460Y0051792D01*
X0075376Y0051658D01*
X0075287Y0051527D01*
X0075196Y0051398D01*
X0075101Y0051271D01*
X0075004Y0051146D01*
X0074903Y0051024D01*
X0074799Y0050905D01*
X0074692Y0050788D01*
X0074582Y0050674D01*
X0074469Y0050563D01*
X0074354Y0050454D01*
X0074236Y0050349D01*
X0074115Y0050247D01*
X0073992Y0050147D01*
X0073866Y0050051D01*
X0073738Y0049958D01*
X0073608Y0049868D01*
X0073475Y0049782D01*
X0073340Y0049698D01*
X0073204Y0049619D01*
X0073065Y0049542D01*
X0072924Y0049470D01*
X0072782Y0049400D01*
X0072638Y0049335D01*
X0072492Y0049273D01*
X0072345Y0049215D01*
X0072196Y0049160D01*
X0072046Y0049109D01*
X0071895Y0049062D01*
X0071743Y0049019D01*
X0071590Y0048980D01*
X0071435Y0048944D01*
X0071280Y0048913D01*
X0071124Y0048885D01*
X0070968Y0048861D01*
X0070811Y0048841D01*
X0070653Y0048825D01*
X0070496Y0048813D01*
X0070337Y0048805D01*
X0070179Y0048801D01*
X0070021Y0048801D01*
X0069863Y0048805D01*
X0069704Y0048813D01*
X0069547Y0048825D01*
X0069389Y0048841D01*
X0069232Y0048861D01*
X0069076Y0048885D01*
X0068920Y0048913D01*
X0068765Y0048944D01*
X0068610Y0048980D01*
X0068457Y0049019D01*
X0068305Y0049062D01*
X0068154Y0049109D01*
X0068004Y0049160D01*
X0067855Y0049215D01*
X0067708Y0049273D01*
X0067562Y0049335D01*
X0067418Y0049400D01*
X0067276Y0049470D01*
X0067135Y0049542D01*
X0066996Y0049619D01*
X0066860Y0049698D01*
X0066725Y0049782D01*
X0066592Y0049868D01*
X0066462Y0049958D01*
X0066334Y0050051D01*
X0066208Y0050147D01*
X0066085Y0050247D01*
X0065964Y0050349D01*
X0065846Y0050454D01*
X0065731Y0050563D01*
X0065618Y0050674D01*
X0065508Y0050788D01*
X0065401Y0050905D01*
X0065297Y0051024D01*
X0065196Y0051146D01*
X0065099Y0051271D01*
X0065004Y0051398D01*
X0064913Y0051527D01*
X0064824Y0051658D01*
X0064740Y0051792D01*
X0064658Y0051928D01*
X0064580Y0052065D01*
X0064506Y0052205D01*
X0064435Y0052347D01*
X0064367Y0052490D01*
X0064303Y0052635D01*
X0064243Y0052781D01*
X0064187Y0052929D01*
X0064134Y0053078D01*
X0064085Y0053229D01*
X0064040Y0053381D01*
X0063999Y0053534D01*
X0063961Y0053687D01*
X0063928Y0053842D01*
X0063898Y0053998D01*
X0063872Y0054154D01*
X0063851Y0054311D01*
X0063833Y0054468D01*
X0063819Y0054626D01*
X0063809Y0054784D01*
X0063803Y0054942D01*
X0063801Y0055100D01*
X0253801Y0055100D02*
X0253803Y0055258D01*
X0253809Y0055416D01*
X0253819Y0055574D01*
X0253833Y0055732D01*
X0253851Y0055889D01*
X0253872Y0056046D01*
X0253898Y0056202D01*
X0253928Y0056358D01*
X0253961Y0056513D01*
X0253999Y0056666D01*
X0254040Y0056819D01*
X0254085Y0056971D01*
X0254134Y0057122D01*
X0254187Y0057271D01*
X0254243Y0057419D01*
X0254303Y0057565D01*
X0254367Y0057710D01*
X0254435Y0057853D01*
X0254506Y0057995D01*
X0254580Y0058135D01*
X0254658Y0058272D01*
X0254740Y0058408D01*
X0254824Y0058542D01*
X0254913Y0058673D01*
X0255004Y0058802D01*
X0255099Y0058929D01*
X0255196Y0059054D01*
X0255297Y0059176D01*
X0255401Y0059295D01*
X0255508Y0059412D01*
X0255618Y0059526D01*
X0255731Y0059637D01*
X0255846Y0059746D01*
X0255964Y0059851D01*
X0256085Y0059953D01*
X0256208Y0060053D01*
X0256334Y0060149D01*
X0256462Y0060242D01*
X0256592Y0060332D01*
X0256725Y0060418D01*
X0256860Y0060502D01*
X0256996Y0060581D01*
X0257135Y0060658D01*
X0257276Y0060730D01*
X0257418Y0060800D01*
X0257562Y0060865D01*
X0257708Y0060927D01*
X0257855Y0060985D01*
X0258004Y0061040D01*
X0258154Y0061091D01*
X0258305Y0061138D01*
X0258457Y0061181D01*
X0258610Y0061220D01*
X0258765Y0061256D01*
X0258920Y0061287D01*
X0259076Y0061315D01*
X0259232Y0061339D01*
X0259389Y0061359D01*
X0259547Y0061375D01*
X0259704Y0061387D01*
X0259863Y0061395D01*
X0260021Y0061399D01*
X0260179Y0061399D01*
X0260337Y0061395D01*
X0260496Y0061387D01*
X0260653Y0061375D01*
X0260811Y0061359D01*
X0260968Y0061339D01*
X0261124Y0061315D01*
X0261280Y0061287D01*
X0261435Y0061256D01*
X0261590Y0061220D01*
X0261743Y0061181D01*
X0261895Y0061138D01*
X0262046Y0061091D01*
X0262196Y0061040D01*
X0262345Y0060985D01*
X0262492Y0060927D01*
X0262638Y0060865D01*
X0262782Y0060800D01*
X0262924Y0060730D01*
X0263065Y0060658D01*
X0263204Y0060581D01*
X0263340Y0060502D01*
X0263475Y0060418D01*
X0263608Y0060332D01*
X0263738Y0060242D01*
X0263866Y0060149D01*
X0263992Y0060053D01*
X0264115Y0059953D01*
X0264236Y0059851D01*
X0264354Y0059746D01*
X0264469Y0059637D01*
X0264582Y0059526D01*
X0264692Y0059412D01*
X0264799Y0059295D01*
X0264903Y0059176D01*
X0265004Y0059054D01*
X0265101Y0058929D01*
X0265196Y0058802D01*
X0265287Y0058673D01*
X0265376Y0058542D01*
X0265460Y0058408D01*
X0265542Y0058272D01*
X0265620Y0058135D01*
X0265694Y0057995D01*
X0265765Y0057853D01*
X0265833Y0057710D01*
X0265897Y0057565D01*
X0265957Y0057419D01*
X0266013Y0057271D01*
X0266066Y0057122D01*
X0266115Y0056971D01*
X0266160Y0056819D01*
X0266201Y0056666D01*
X0266239Y0056513D01*
X0266272Y0056358D01*
X0266302Y0056202D01*
X0266328Y0056046D01*
X0266349Y0055889D01*
X0266367Y0055732D01*
X0266381Y0055574D01*
X0266391Y0055416D01*
X0266397Y0055258D01*
X0266399Y0055100D01*
X0266397Y0054942D01*
X0266391Y0054784D01*
X0266381Y0054626D01*
X0266367Y0054468D01*
X0266349Y0054311D01*
X0266328Y0054154D01*
X0266302Y0053998D01*
X0266272Y0053842D01*
X0266239Y0053687D01*
X0266201Y0053534D01*
X0266160Y0053381D01*
X0266115Y0053229D01*
X0266066Y0053078D01*
X0266013Y0052929D01*
X0265957Y0052781D01*
X0265897Y0052635D01*
X0265833Y0052490D01*
X0265765Y0052347D01*
X0265694Y0052205D01*
X0265620Y0052065D01*
X0265542Y0051928D01*
X0265460Y0051792D01*
X0265376Y0051658D01*
X0265287Y0051527D01*
X0265196Y0051398D01*
X0265101Y0051271D01*
X0265004Y0051146D01*
X0264903Y0051024D01*
X0264799Y0050905D01*
X0264692Y0050788D01*
X0264582Y0050674D01*
X0264469Y0050563D01*
X0264354Y0050454D01*
X0264236Y0050349D01*
X0264115Y0050247D01*
X0263992Y0050147D01*
X0263866Y0050051D01*
X0263738Y0049958D01*
X0263608Y0049868D01*
X0263475Y0049782D01*
X0263340Y0049698D01*
X0263204Y0049619D01*
X0263065Y0049542D01*
X0262924Y0049470D01*
X0262782Y0049400D01*
X0262638Y0049335D01*
X0262492Y0049273D01*
X0262345Y0049215D01*
X0262196Y0049160D01*
X0262046Y0049109D01*
X0261895Y0049062D01*
X0261743Y0049019D01*
X0261590Y0048980D01*
X0261435Y0048944D01*
X0261280Y0048913D01*
X0261124Y0048885D01*
X0260968Y0048861D01*
X0260811Y0048841D01*
X0260653Y0048825D01*
X0260496Y0048813D01*
X0260337Y0048805D01*
X0260179Y0048801D01*
X0260021Y0048801D01*
X0259863Y0048805D01*
X0259704Y0048813D01*
X0259547Y0048825D01*
X0259389Y0048841D01*
X0259232Y0048861D01*
X0259076Y0048885D01*
X0258920Y0048913D01*
X0258765Y0048944D01*
X0258610Y0048980D01*
X0258457Y0049019D01*
X0258305Y0049062D01*
X0258154Y0049109D01*
X0258004Y0049160D01*
X0257855Y0049215D01*
X0257708Y0049273D01*
X0257562Y0049335D01*
X0257418Y0049400D01*
X0257276Y0049470D01*
X0257135Y0049542D01*
X0256996Y0049619D01*
X0256860Y0049698D01*
X0256725Y0049782D01*
X0256592Y0049868D01*
X0256462Y0049958D01*
X0256334Y0050051D01*
X0256208Y0050147D01*
X0256085Y0050247D01*
X0255964Y0050349D01*
X0255846Y0050454D01*
X0255731Y0050563D01*
X0255618Y0050674D01*
X0255508Y0050788D01*
X0255401Y0050905D01*
X0255297Y0051024D01*
X0255196Y0051146D01*
X0255099Y0051271D01*
X0255004Y0051398D01*
X0254913Y0051527D01*
X0254824Y0051658D01*
X0254740Y0051792D01*
X0254658Y0051928D01*
X0254580Y0052065D01*
X0254506Y0052205D01*
X0254435Y0052347D01*
X0254367Y0052490D01*
X0254303Y0052635D01*
X0254243Y0052781D01*
X0254187Y0052929D01*
X0254134Y0053078D01*
X0254085Y0053229D01*
X0254040Y0053381D01*
X0253999Y0053534D01*
X0253961Y0053687D01*
X0253928Y0053842D01*
X0253898Y0053998D01*
X0253872Y0054154D01*
X0253851Y0054311D01*
X0253833Y0054468D01*
X0253819Y0054626D01*
X0253809Y0054784D01*
X0253803Y0054942D01*
X0253801Y0055100D01*
D11*
X0053370Y0006830D02*
X0006830Y0053370D01*
X0005100Y0057546D02*
X0005100Y0109194D01*
X0005102Y0109346D01*
X0005108Y0109498D01*
X0005118Y0109650D01*
X0005131Y0109801D01*
X0005149Y0109952D01*
X0005170Y0110103D01*
X0005196Y0110253D01*
X0005225Y0110402D01*
X0005258Y0110551D01*
X0005295Y0110698D01*
X0005335Y0110845D01*
X0005380Y0110990D01*
X0005428Y0111134D01*
X0005480Y0111277D01*
X0005535Y0111419D01*
X0005594Y0111559D01*
X0005657Y0111698D01*
X0005723Y0111835D01*
X0005793Y0111970D01*
X0005866Y0112103D01*
X0005943Y0112234D01*
X0006023Y0112364D01*
X0006106Y0112491D01*
X0006192Y0112616D01*
X0006282Y0112739D01*
X0006375Y0112859D01*
X0006471Y0112977D01*
X0006570Y0113093D01*
X0006672Y0113206D01*
X0006776Y0113316D01*
X0006884Y0113424D01*
X0006994Y0113528D01*
X0007107Y0113630D01*
X0007223Y0113729D01*
X0007341Y0113825D01*
X0007461Y0113918D01*
X0007584Y0114008D01*
X0007709Y0114094D01*
X0007836Y0114177D01*
X0007966Y0114257D01*
X0008097Y0114334D01*
X0008230Y0114407D01*
X0008365Y0114477D01*
X0008502Y0114543D01*
X0008641Y0114606D01*
X0008781Y0114665D01*
X0008923Y0114720D01*
X0009066Y0114772D01*
X0009210Y0114820D01*
X0009355Y0114865D01*
X0009502Y0114905D01*
X0009649Y0114942D01*
X0009798Y0114975D01*
X0009947Y0115004D01*
X0010097Y0115030D01*
X0010248Y0115051D01*
X0010399Y0115069D01*
X0010550Y0115082D01*
X0010702Y0115092D01*
X0010854Y0115098D01*
X0011006Y0115100D01*
X0079194Y0115100D01*
X0079346Y0115098D01*
X0079498Y0115092D01*
X0079650Y0115082D01*
X0079801Y0115069D01*
X0079952Y0115051D01*
X0080103Y0115030D01*
X0080253Y0115004D01*
X0080402Y0114975D01*
X0080551Y0114942D01*
X0080698Y0114905D01*
X0080845Y0114865D01*
X0080990Y0114820D01*
X0081134Y0114772D01*
X0081277Y0114720D01*
X0081419Y0114665D01*
X0081559Y0114606D01*
X0081698Y0114543D01*
X0081835Y0114477D01*
X0081970Y0114407D01*
X0082103Y0114334D01*
X0082234Y0114257D01*
X0082364Y0114177D01*
X0082491Y0114094D01*
X0082616Y0114008D01*
X0082739Y0113918D01*
X0082859Y0113825D01*
X0082977Y0113729D01*
X0083093Y0113630D01*
X0083206Y0113528D01*
X0083316Y0113424D01*
X0083424Y0113316D01*
X0083528Y0113206D01*
X0083630Y0113093D01*
X0083729Y0112977D01*
X0083825Y0112859D01*
X0083918Y0112739D01*
X0084008Y0112616D01*
X0084094Y0112491D01*
X0084177Y0112364D01*
X0084257Y0112234D01*
X0084334Y0112103D01*
X0084407Y0111970D01*
X0084477Y0111835D01*
X0084543Y0111698D01*
X0084606Y0111559D01*
X0084665Y0111419D01*
X0084720Y0111277D01*
X0084772Y0111134D01*
X0084820Y0110990D01*
X0084865Y0110845D01*
X0084905Y0110698D01*
X0084942Y0110551D01*
X0084975Y0110402D01*
X0085004Y0110253D01*
X0085030Y0110103D01*
X0085051Y0109952D01*
X0085069Y0109801D01*
X0085082Y0109650D01*
X0085092Y0109498D01*
X0085098Y0109346D01*
X0085100Y0109194D01*
X0085100Y0096006D01*
X0085102Y0095854D01*
X0085108Y0095702D01*
X0085118Y0095550D01*
X0085131Y0095399D01*
X0085149Y0095248D01*
X0085170Y0095097D01*
X0085196Y0094947D01*
X0085225Y0094798D01*
X0085258Y0094649D01*
X0085295Y0094502D01*
X0085335Y0094355D01*
X0085380Y0094210D01*
X0085428Y0094066D01*
X0085480Y0093923D01*
X0085535Y0093781D01*
X0085594Y0093641D01*
X0085657Y0093502D01*
X0085723Y0093365D01*
X0085793Y0093230D01*
X0085866Y0093097D01*
X0085943Y0092966D01*
X0086023Y0092836D01*
X0086106Y0092709D01*
X0086192Y0092584D01*
X0086282Y0092461D01*
X0086375Y0092341D01*
X0086471Y0092223D01*
X0086570Y0092107D01*
X0086672Y0091994D01*
X0086776Y0091884D01*
X0086884Y0091776D01*
X0086994Y0091672D01*
X0087107Y0091570D01*
X0087223Y0091471D01*
X0087341Y0091375D01*
X0087461Y0091282D01*
X0087584Y0091192D01*
X0087709Y0091106D01*
X0087836Y0091023D01*
X0087966Y0090943D01*
X0088097Y0090866D01*
X0088230Y0090793D01*
X0088365Y0090723D01*
X0088502Y0090657D01*
X0088641Y0090594D01*
X0088781Y0090535D01*
X0088923Y0090480D01*
X0089066Y0090428D01*
X0089210Y0090380D01*
X0089355Y0090335D01*
X0089502Y0090295D01*
X0089649Y0090258D01*
X0089798Y0090225D01*
X0089947Y0090196D01*
X0090097Y0090170D01*
X0090248Y0090149D01*
X0090399Y0090131D01*
X0090550Y0090118D01*
X0090702Y0090108D01*
X0090854Y0090102D01*
X0091006Y0090100D01*
X0239194Y0090100D01*
X0239346Y0090102D01*
X0239498Y0090108D01*
X0239650Y0090118D01*
X0239801Y0090131D01*
X0239952Y0090149D01*
X0240103Y0090170D01*
X0240253Y0090196D01*
X0240402Y0090225D01*
X0240551Y0090258D01*
X0240698Y0090295D01*
X0240845Y0090335D01*
X0240990Y0090380D01*
X0241134Y0090428D01*
X0241277Y0090480D01*
X0241419Y0090535D01*
X0241559Y0090594D01*
X0241698Y0090657D01*
X0241835Y0090723D01*
X0241970Y0090793D01*
X0242103Y0090866D01*
X0242234Y0090943D01*
X0242364Y0091023D01*
X0242491Y0091106D01*
X0242616Y0091192D01*
X0242739Y0091282D01*
X0242859Y0091375D01*
X0242977Y0091471D01*
X0243093Y0091570D01*
X0243206Y0091672D01*
X0243316Y0091776D01*
X0243424Y0091884D01*
X0243528Y0091994D01*
X0243630Y0092107D01*
X0243729Y0092223D01*
X0243825Y0092341D01*
X0243918Y0092461D01*
X0244008Y0092584D01*
X0244094Y0092709D01*
X0244177Y0092836D01*
X0244257Y0092966D01*
X0244334Y0093097D01*
X0244407Y0093230D01*
X0244477Y0093365D01*
X0244543Y0093502D01*
X0244606Y0093641D01*
X0244665Y0093781D01*
X0244720Y0093923D01*
X0244772Y0094066D01*
X0244820Y0094210D01*
X0244865Y0094355D01*
X0244905Y0094502D01*
X0244942Y0094649D01*
X0244975Y0094798D01*
X0245004Y0094947D01*
X0245030Y0095097D01*
X0245051Y0095248D01*
X0245069Y0095399D01*
X0245082Y0095550D01*
X0245092Y0095702D01*
X0245098Y0095854D01*
X0245100Y0096006D01*
X0245100Y0109194D01*
X0245102Y0109346D01*
X0245108Y0109498D01*
X0245118Y0109650D01*
X0245131Y0109801D01*
X0245149Y0109952D01*
X0245170Y0110103D01*
X0245196Y0110253D01*
X0245225Y0110402D01*
X0245258Y0110551D01*
X0245295Y0110698D01*
X0245335Y0110845D01*
X0245380Y0110990D01*
X0245428Y0111134D01*
X0245480Y0111277D01*
X0245535Y0111419D01*
X0245594Y0111559D01*
X0245657Y0111698D01*
X0245723Y0111835D01*
X0245793Y0111970D01*
X0245866Y0112103D01*
X0245943Y0112234D01*
X0246023Y0112364D01*
X0246106Y0112491D01*
X0246192Y0112616D01*
X0246282Y0112739D01*
X0246375Y0112859D01*
X0246471Y0112977D01*
X0246570Y0113093D01*
X0246672Y0113206D01*
X0246776Y0113316D01*
X0246884Y0113424D01*
X0246994Y0113528D01*
X0247107Y0113630D01*
X0247223Y0113729D01*
X0247341Y0113825D01*
X0247461Y0113918D01*
X0247584Y0114008D01*
X0247709Y0114094D01*
X0247836Y0114177D01*
X0247966Y0114257D01*
X0248097Y0114334D01*
X0248230Y0114407D01*
X0248365Y0114477D01*
X0248502Y0114543D01*
X0248641Y0114606D01*
X0248781Y0114665D01*
X0248923Y0114720D01*
X0249066Y0114772D01*
X0249210Y0114820D01*
X0249355Y0114865D01*
X0249502Y0114905D01*
X0249649Y0114942D01*
X0249798Y0114975D01*
X0249947Y0115004D01*
X0250097Y0115030D01*
X0250248Y0115051D01*
X0250399Y0115069D01*
X0250550Y0115082D01*
X0250702Y0115092D01*
X0250854Y0115098D01*
X0251006Y0115100D01*
X0319194Y0115100D01*
X0319346Y0115098D01*
X0319498Y0115092D01*
X0319650Y0115082D01*
X0319801Y0115069D01*
X0319952Y0115051D01*
X0320103Y0115030D01*
X0320253Y0115004D01*
X0320402Y0114975D01*
X0320551Y0114942D01*
X0320698Y0114905D01*
X0320845Y0114865D01*
X0320990Y0114820D01*
X0321134Y0114772D01*
X0321277Y0114720D01*
X0321419Y0114665D01*
X0321559Y0114606D01*
X0321698Y0114543D01*
X0321835Y0114477D01*
X0321970Y0114407D01*
X0322103Y0114334D01*
X0322234Y0114257D01*
X0322364Y0114177D01*
X0322491Y0114094D01*
X0322616Y0114008D01*
X0322739Y0113918D01*
X0322859Y0113825D01*
X0322977Y0113729D01*
X0323093Y0113630D01*
X0323206Y0113528D01*
X0323316Y0113424D01*
X0323424Y0113316D01*
X0323528Y0113206D01*
X0323630Y0113093D01*
X0323729Y0112977D01*
X0323825Y0112859D01*
X0323918Y0112739D01*
X0324008Y0112616D01*
X0324094Y0112491D01*
X0324177Y0112364D01*
X0324257Y0112234D01*
X0324334Y0112103D01*
X0324407Y0111970D01*
X0324477Y0111835D01*
X0324543Y0111698D01*
X0324606Y0111559D01*
X0324665Y0111419D01*
X0324720Y0111277D01*
X0324772Y0111134D01*
X0324820Y0110990D01*
X0324865Y0110845D01*
X0324905Y0110698D01*
X0324942Y0110551D01*
X0324975Y0110402D01*
X0325004Y0110253D01*
X0325030Y0110103D01*
X0325051Y0109952D01*
X0325069Y0109801D01*
X0325082Y0109650D01*
X0325092Y0109498D01*
X0325098Y0109346D01*
X0325100Y0109194D01*
X0325100Y0057546D01*
X0325098Y0057396D01*
X0325092Y0057247D01*
X0325083Y0057098D01*
X0325070Y0056949D01*
X0325053Y0056800D01*
X0325032Y0056652D01*
X0325007Y0056504D01*
X0324979Y0056357D01*
X0324947Y0056211D01*
X0324911Y0056066D01*
X0324872Y0055921D01*
X0324829Y0055778D01*
X0324783Y0055636D01*
X0324732Y0055495D01*
X0324679Y0055355D01*
X0324621Y0055217D01*
X0324561Y0055080D01*
X0324496Y0054945D01*
X0324429Y0054812D01*
X0324358Y0054680D01*
X0324284Y0054550D01*
X0324206Y0054422D01*
X0324125Y0054296D01*
X0324041Y0054172D01*
X0323954Y0054050D01*
X0323864Y0053931D01*
X0323771Y0053814D01*
X0323675Y0053699D01*
X0323576Y0053587D01*
X0323475Y0053477D01*
X0323370Y0053370D01*
X0276830Y0006830D01*
X0272654Y0005100D02*
X0057546Y0005100D01*
X0057396Y0005102D01*
X0057247Y0005108D01*
X0057098Y0005117D01*
X0056949Y0005130D01*
X0056800Y0005147D01*
X0056652Y0005168D01*
X0056504Y0005193D01*
X0056357Y0005221D01*
X0056211Y0005253D01*
X0056066Y0005289D01*
X0055921Y0005328D01*
X0055778Y0005371D01*
X0055636Y0005417D01*
X0055495Y0005468D01*
X0055355Y0005521D01*
X0055217Y0005579D01*
X0055080Y0005639D01*
X0054945Y0005704D01*
X0054812Y0005771D01*
X0054680Y0005842D01*
X0054550Y0005916D01*
X0054422Y0005994D01*
X0054296Y0006075D01*
X0054172Y0006159D01*
X0054050Y0006246D01*
X0053931Y0006336D01*
X0053814Y0006429D01*
X0053699Y0006525D01*
X0053587Y0006624D01*
X0053477Y0006725D01*
X0053370Y0006830D01*
X0006829Y0053370D02*
X0006724Y0053477D01*
X0006623Y0053587D01*
X0006524Y0053699D01*
X0006428Y0053814D01*
X0006335Y0053931D01*
X0006245Y0054050D01*
X0006158Y0054172D01*
X0006074Y0054296D01*
X0005993Y0054422D01*
X0005915Y0054550D01*
X0005841Y0054680D01*
X0005770Y0054812D01*
X0005703Y0054945D01*
X0005638Y0055080D01*
X0005578Y0055217D01*
X0005520Y0055355D01*
X0005467Y0055495D01*
X0005416Y0055636D01*
X0005370Y0055778D01*
X0005327Y0055921D01*
X0005288Y0056066D01*
X0005252Y0056211D01*
X0005220Y0056357D01*
X0005192Y0056504D01*
X0005167Y0056652D01*
X0005146Y0056800D01*
X0005129Y0056949D01*
X0005116Y0057098D01*
X0005107Y0057247D01*
X0005101Y0057396D01*
X0005099Y0057546D01*
X0272654Y0005099D02*
X0272804Y0005101D01*
X0272953Y0005107D01*
X0273102Y0005116D01*
X0273251Y0005129D01*
X0273400Y0005146D01*
X0273548Y0005167D01*
X0273696Y0005192D01*
X0273843Y0005220D01*
X0273989Y0005252D01*
X0274134Y0005288D01*
X0274279Y0005327D01*
X0274422Y0005370D01*
X0274564Y0005416D01*
X0274705Y0005467D01*
X0274845Y0005520D01*
X0274983Y0005578D01*
X0275120Y0005638D01*
X0275255Y0005703D01*
X0275388Y0005770D01*
X0275520Y0005841D01*
X0275650Y0005915D01*
X0275778Y0005993D01*
X0275904Y0006074D01*
X0276028Y0006158D01*
X0276150Y0006245D01*
X0276269Y0006335D01*
X0276386Y0006428D01*
X0276501Y0006524D01*
X0276613Y0006623D01*
X0276723Y0006724D01*
X0276830Y0006829D01*
D12*
X0117600Y0045100D03*
D13*
X0117600Y0035100D03*
X0095100Y0025100D03*
X0075100Y0027600D03*
X0065100Y0027600D03*
X0050100Y0025100D03*
X0050100Y0055100D03*
X0095100Y0055100D03*
X0142600Y0055100D03*
X0160100Y0047600D03*
X0170100Y0047600D03*
X0185100Y0055100D03*
X0200100Y0055100D03*
X0232600Y0055100D03*
X0280100Y0055100D03*
X0279765Y0074520D03*
X0284765Y0083180D03*
X0280100Y0100100D03*
X0290100Y0100100D03*
X0320100Y0100100D03*
X0250100Y0100100D03*
X0230100Y0077600D03*
X0220100Y0077600D03*
X0210100Y0077600D03*
X0200100Y0077600D03*
X0190100Y0077600D03*
X0180100Y0077600D03*
X0170100Y0077600D03*
X0160100Y0077600D03*
X0150100Y0077600D03*
X0140100Y0077600D03*
X0130100Y0077600D03*
X0120100Y0077600D03*
X0110100Y0077600D03*
X0100100Y0077600D03*
X0050100Y0075770D03*
X0045100Y0084430D03*
X0040100Y0100100D03*
X0050100Y0100100D03*
X0080100Y0100100D03*
X0010100Y0100100D03*
X0142600Y0025100D03*
X0185100Y0025100D03*
X0200100Y0025100D03*
X0232600Y0025100D03*
X0255100Y0027600D03*
X0265100Y0027600D03*
X0280100Y0025100D03*
D14*
X0217700Y0030100D02*
X0212500Y0030100D01*
X0212500Y0040100D02*
X0217700Y0040100D01*
X0217700Y0050100D02*
X0212500Y0050100D01*
D15*
X0170100Y0059569D03*
X0160100Y0059569D03*
X0060100Y0080770D03*
X0055100Y0089430D03*
X0270100Y0080770D03*
X0275100Y0089430D03*
D16*
X0264430Y0080770D02*
X0260100Y0085100D01*
X0260100Y0095100D01*
X0255100Y0100100D01*
X0250100Y0100100D01*
X0250100Y0090100D01*
X0247600Y0087600D01*
X0182600Y0087600D01*
X0180100Y0085100D01*
X0180100Y0077600D01*
X0160100Y0077600D02*
X0160100Y0085100D01*
X0157600Y0087600D01*
X0082600Y0087600D01*
X0080100Y0090100D01*
X0080100Y0100100D01*
X0040100Y0100100D02*
X0035100Y0100100D01*
X0032600Y0097600D01*
X0032600Y0077600D01*
X0035100Y0075100D01*
X0049430Y0075100D01*
X0050100Y0075770D01*
X0085100Y0075100D02*
X0093850Y0083850D01*
X0127600Y0083850D01*
X0130100Y0081350D01*
X0130100Y0077600D01*
X0132600Y0060100D02*
X0132600Y0047600D01*
X0138584Y0041616D01*
X0189116Y0041616D01*
X0200100Y0052600D01*
X0200100Y0055100D01*
X0160100Y0059569D02*
X0155631Y0055100D01*
X0142600Y0055100D01*
X0264430Y0080770D02*
X0270100Y0080770D01*
D17*
X0132600Y0060100D03*
X0085100Y0075100D03*
D18*
X0080670Y0073775D02*
X0055876Y0073775D01*
X0056200Y0074556D02*
X0055271Y0072314D01*
X0053555Y0070599D01*
X0051313Y0069670D01*
X0048887Y0069670D01*
X0046645Y0070599D01*
X0045543Y0071700D01*
X0034424Y0071700D01*
X0033174Y0072218D01*
X0032218Y0073174D01*
X0029718Y0075674D01*
X0029200Y0076924D01*
X0029200Y0098276D01*
X0029718Y0099526D01*
X0030674Y0100482D01*
X0033174Y0102982D01*
X0034424Y0103500D01*
X0034906Y0103500D01*
X0034929Y0103555D01*
X0036645Y0105271D01*
X0038887Y0106200D01*
X0041313Y0106200D01*
X0043555Y0105271D01*
X0045012Y0103815D01*
X0045295Y0104204D01*
X0045996Y0104905D01*
X0046798Y0105488D01*
X0047682Y0105938D01*
X0048625Y0106245D01*
X0049604Y0106400D01*
X0050100Y0106400D01*
X0050596Y0106400D01*
X0051575Y0106245D01*
X0052518Y0105938D01*
X0053402Y0105488D01*
X0054204Y0104905D01*
X0054905Y0104204D01*
X0055488Y0103402D01*
X0055938Y0102518D01*
X0056245Y0101575D01*
X0056400Y0100596D01*
X0056400Y0100100D01*
X0050100Y0100100D01*
X0065100Y0100100D01*
X0070100Y0095100D01*
X0070100Y0070100D01*
X0057600Y0070100D01*
X0050100Y0062600D01*
X0050100Y0055100D01*
X0050100Y0055100D01*
X0050100Y0061400D01*
X0050596Y0061400D01*
X0051575Y0061245D01*
X0052518Y0060938D01*
X0053402Y0060488D01*
X0054204Y0059905D01*
X0054905Y0059204D01*
X0055488Y0058402D01*
X0055896Y0057601D01*
X0056215Y0059612D01*
X0056215Y0059612D01*
X0058288Y0063682D01*
X0058288Y0063682D01*
X0061518Y0066912D01*
X0061518Y0066912D01*
X0065588Y0068985D01*
X0065588Y0068985D01*
X0070100Y0069700D01*
X0070100Y0069700D01*
X0074612Y0068985D01*
X0074612Y0068985D01*
X0078682Y0066912D01*
X0078682Y0066912D01*
X0081912Y0063682D01*
X0081912Y0063682D01*
X0083985Y0059612D01*
X0083985Y0059612D01*
X0084700Y0055100D01*
X0084700Y0055100D01*
X0083985Y0050588D01*
X0081912Y0046518D01*
X0078682Y0043288D01*
X0078682Y0043288D01*
X0078682Y0043288D01*
X0074612Y0041215D01*
X0074612Y0041215D01*
X0070100Y0040500D01*
X0070100Y0040500D01*
X0065588Y0041215D01*
X0065588Y0041215D01*
X0061518Y0043288D01*
X0061518Y0043288D01*
X0058288Y0046518D01*
X0058288Y0046518D01*
X0056215Y0050588D01*
X0056215Y0050588D01*
X0055896Y0052599D01*
X0055488Y0051798D01*
X0054905Y0050996D01*
X0054204Y0050295D01*
X0053402Y0049712D01*
X0052518Y0049262D01*
X0051575Y0048955D01*
X0050596Y0048800D01*
X0050100Y0048800D01*
X0050100Y0055100D01*
X0050100Y0055100D01*
X0043800Y0055100D01*
X0043800Y0055596D01*
X0043955Y0056575D01*
X0044262Y0057518D01*
X0044712Y0058402D01*
X0045295Y0059204D01*
X0045996Y0059905D01*
X0046798Y0060488D01*
X0047682Y0060938D01*
X0048625Y0061245D01*
X0049604Y0061400D01*
X0050100Y0061400D01*
X0050100Y0055100D01*
X0050100Y0055100D01*
X0043800Y0055100D01*
X0043800Y0054604D01*
X0043955Y0053625D01*
X0044262Y0052682D01*
X0044712Y0051798D01*
X0045295Y0050996D01*
X0045996Y0050295D01*
X0046798Y0049712D01*
X0047682Y0049262D01*
X0048625Y0048955D01*
X0049604Y0048800D01*
X0050100Y0048800D01*
X0050100Y0055100D01*
X0050100Y0054584D02*
X0050100Y0054584D01*
X0043803Y0054584D02*
X0016556Y0054584D01*
X0014300Y0056840D02*
X0014300Y0095673D01*
X0015271Y0096645D01*
X0016200Y0098887D01*
X0016200Y0101313D01*
X0015271Y0103555D01*
X0013555Y0105271D01*
X0011313Y0106200D01*
X0008887Y0106200D01*
X0008000Y0105833D01*
X0008000Y0109194D01*
X0008058Y0109781D01*
X0008507Y0110864D01*
X0009336Y0111693D01*
X0010419Y0112142D01*
X0011005Y0112200D01*
X0079194Y0112200D01*
X0079781Y0112142D01*
X0080864Y0111693D01*
X0081693Y0110864D01*
X0082142Y0109781D01*
X0082200Y0109194D01*
X0082200Y0105833D01*
X0081313Y0106200D01*
X0078887Y0106200D01*
X0076645Y0105271D01*
X0074929Y0103555D01*
X0074000Y0101313D01*
X0074000Y0098887D01*
X0074929Y0096645D01*
X0076645Y0094929D01*
X0076700Y0094906D01*
X0076700Y0089424D01*
X0077218Y0088174D01*
X0079718Y0085674D01*
X0080674Y0084718D01*
X0081924Y0084200D01*
X0089392Y0084200D01*
X0084892Y0079700D01*
X0084185Y0079700D01*
X0082494Y0079000D01*
X0081200Y0077706D01*
X0080500Y0076015D01*
X0080500Y0074185D01*
X0081200Y0072494D01*
X0082494Y0071200D01*
X0084185Y0070500D01*
X0086015Y0070500D01*
X0087706Y0071200D01*
X0089000Y0072494D01*
X0089700Y0074185D01*
X0089700Y0074892D01*
X0094268Y0079459D01*
X0094000Y0078813D01*
X0094000Y0076387D01*
X0094929Y0074145D01*
X0096645Y0072429D01*
X0098887Y0071500D01*
X0101313Y0071500D01*
X0103555Y0072429D01*
X0105100Y0073973D01*
X0106645Y0072429D01*
X0108887Y0071500D01*
X0111313Y0071500D01*
X0113555Y0072429D01*
X0115012Y0073885D01*
X0115295Y0073496D01*
X0115996Y0072795D01*
X0116798Y0072212D01*
X0117682Y0071762D01*
X0118625Y0071455D01*
X0119604Y0071300D01*
X0120100Y0071300D01*
X0120596Y0071300D01*
X0121575Y0071455D01*
X0122518Y0071762D01*
X0123402Y0072212D01*
X0124204Y0072795D01*
X0124905Y0073496D01*
X0125188Y0073885D01*
X0126645Y0072429D01*
X0128887Y0071500D01*
X0131313Y0071500D01*
X0133555Y0072429D01*
X0135100Y0073973D01*
X0136645Y0072429D01*
X0138887Y0071500D01*
X0141313Y0071500D01*
X0143555Y0072429D01*
X0145100Y0073973D01*
X0146645Y0072429D01*
X0148887Y0071500D01*
X0151313Y0071500D01*
X0153555Y0072429D01*
X0155100Y0073973D01*
X0156645Y0072429D01*
X0158887Y0071500D01*
X0161313Y0071500D01*
X0163555Y0072429D01*
X0165100Y0073973D01*
X0166645Y0072429D01*
X0168887Y0071500D01*
X0171313Y0071500D01*
X0173555Y0072429D01*
X0175100Y0073973D01*
X0176645Y0072429D01*
X0178887Y0071500D01*
X0181313Y0071500D01*
X0183555Y0072429D01*
X0185100Y0073973D01*
X0186645Y0072429D01*
X0188887Y0071500D01*
X0191313Y0071500D01*
X0193555Y0072429D01*
X0195100Y0073973D01*
X0196645Y0072429D01*
X0198887Y0071500D01*
X0201313Y0071500D01*
X0203555Y0072429D01*
X0205100Y0073973D01*
X0206645Y0072429D01*
X0208887Y0071500D01*
X0211313Y0071500D01*
X0213555Y0072429D01*
X0215012Y0073885D01*
X0215295Y0073496D01*
X0215996Y0072795D01*
X0216798Y0072212D01*
X0217682Y0071762D01*
X0218625Y0071455D01*
X0219604Y0071300D01*
X0220100Y0071300D01*
X0220596Y0071300D01*
X0221575Y0071455D01*
X0222518Y0071762D01*
X0223402Y0072212D01*
X0224204Y0072795D01*
X0224905Y0073496D01*
X0225188Y0073885D01*
X0226645Y0072429D01*
X0228887Y0071500D01*
X0231313Y0071500D01*
X0233555Y0072429D01*
X0235271Y0074145D01*
X0236200Y0076387D01*
X0236200Y0078813D01*
X0235271Y0081055D01*
X0233555Y0082771D01*
X0231313Y0083700D01*
X0228887Y0083700D01*
X0226645Y0082771D01*
X0225188Y0081315D01*
X0224905Y0081704D01*
X0224204Y0082405D01*
X0223402Y0082988D01*
X0222518Y0083438D01*
X0221575Y0083745D01*
X0220596Y0083900D01*
X0220100Y0083900D01*
X0220100Y0077600D01*
X0220100Y0070100D01*
X0215100Y0070100D01*
X0215100Y0050100D01*
X0215100Y0050100D01*
X0215100Y0055300D01*
X0218109Y0055300D01*
X0218918Y0055172D01*
X0219696Y0054919D01*
X0220425Y0054547D01*
X0221088Y0054066D01*
X0221666Y0053488D01*
X0222147Y0052825D01*
X0222519Y0052096D01*
X0222772Y0051318D01*
X0222900Y0050509D01*
X0222900Y0050100D01*
X0215100Y0050100D01*
X0215100Y0050100D01*
X0215100Y0050100D01*
X0207300Y0050100D01*
X0207300Y0050509D01*
X0207428Y0051318D01*
X0207681Y0052096D01*
X0208053Y0052825D01*
X0208534Y0053488D01*
X0209112Y0054066D01*
X0209775Y0054547D01*
X0210504Y0054919D01*
X0211282Y0055172D01*
X0212091Y0055300D01*
X0215100Y0055300D01*
X0215100Y0050100D01*
X0222900Y0050100D01*
X0222900Y0049691D01*
X0222772Y0048882D01*
X0222519Y0048104D01*
X0222147Y0047375D01*
X0221666Y0046712D01*
X0221088Y0046134D01*
X0220425Y0045653D01*
X0219696Y0045281D01*
X0218918Y0045028D01*
X0218882Y0045022D01*
X0220532Y0044339D01*
X0221939Y0042932D01*
X0222700Y0041095D01*
X0222700Y0039105D01*
X0221939Y0037268D01*
X0220532Y0035861D01*
X0218695Y0035100D01*
X0211505Y0035100D01*
X0209668Y0035861D01*
X0208261Y0037268D01*
X0207500Y0039105D01*
X0207500Y0041095D01*
X0208261Y0042932D01*
X0209668Y0044339D01*
X0211318Y0045022D01*
X0211282Y0045028D01*
X0210504Y0045281D01*
X0209775Y0045653D01*
X0209112Y0046134D01*
X0208534Y0046712D01*
X0208053Y0047375D01*
X0207681Y0048104D01*
X0207428Y0048882D01*
X0207300Y0049691D01*
X0207300Y0050100D01*
X0215100Y0050100D01*
X0215100Y0051385D02*
X0215100Y0051385D01*
X0222750Y0051385D02*
X0227512Y0051385D01*
X0227795Y0050996D02*
X0228496Y0050295D01*
X0229298Y0049712D01*
X0230182Y0049262D01*
X0231125Y0048955D01*
X0232104Y0048800D01*
X0232600Y0048800D01*
X0233096Y0048800D01*
X0234075Y0048955D01*
X0235018Y0049262D01*
X0235902Y0049712D01*
X0236704Y0050295D01*
X0237405Y0050996D01*
X0237988Y0051798D01*
X0238438Y0052682D01*
X0238745Y0053625D01*
X0238900Y0054604D01*
X0238900Y0055100D01*
X0238900Y0055596D01*
X0238745Y0056575D01*
X0238438Y0057518D01*
X0237988Y0058402D01*
X0237405Y0059204D01*
X0236704Y0059905D01*
X0235902Y0060488D01*
X0235018Y0060938D01*
X0234075Y0061245D01*
X0233096Y0061400D01*
X0232600Y0061400D01*
X0232600Y0055100D01*
X0232600Y0070100D01*
X0260100Y0070100D01*
X0272600Y0070100D01*
X0280100Y0062600D01*
X0287600Y0062600D01*
X0290100Y0065100D01*
X0295100Y0070100D01*
X0295100Y0087600D01*
X0290100Y0092600D01*
X0285100Y0092600D01*
X0280100Y0097600D01*
X0280100Y0100100D01*
X0280100Y0100100D01*
X0280100Y0106400D01*
X0280596Y0106400D01*
X0281575Y0106245D01*
X0282518Y0105938D01*
X0283402Y0105488D01*
X0284204Y0104905D01*
X0284905Y0104204D01*
X0285188Y0103815D01*
X0286645Y0105271D01*
X0288887Y0106200D01*
X0291313Y0106200D01*
X0293555Y0105271D01*
X0295271Y0103555D01*
X0296200Y0101313D01*
X0296200Y0098887D01*
X0295271Y0096645D01*
X0293555Y0094929D01*
X0291313Y0094000D01*
X0288887Y0094000D01*
X0286645Y0094929D01*
X0285188Y0096385D01*
X0284905Y0095996D01*
X0284204Y0095295D01*
X0283402Y0094712D01*
X0282518Y0094262D01*
X0281575Y0093955D01*
X0280596Y0093800D01*
X0280100Y0093800D01*
X0280100Y0100100D01*
X0280100Y0106400D01*
X0279604Y0106400D01*
X0278625Y0106245D01*
X0277682Y0105938D01*
X0276798Y0105488D01*
X0275996Y0104905D01*
X0275295Y0104204D01*
X0274712Y0103402D01*
X0274262Y0102518D01*
X0273955Y0101575D01*
X0273800Y0100596D01*
X0273800Y0100100D01*
X0280100Y0100100D01*
X0280100Y0100100D01*
X0280100Y0100100D01*
X0280100Y0093800D01*
X0279604Y0093800D01*
X0278625Y0093955D01*
X0277682Y0094262D01*
X0276798Y0094712D01*
X0275996Y0095295D01*
X0275295Y0095996D01*
X0274712Y0096798D01*
X0274262Y0097682D01*
X0273955Y0098625D01*
X0273800Y0099604D01*
X0273800Y0100100D01*
X0280100Y0100100D01*
X0280100Y0099363D02*
X0280100Y0099363D01*
X0280100Y0096165D02*
X0280100Y0096165D01*
X0275172Y0096165D02*
X0263339Y0096165D01*
X0263500Y0095776D02*
X0262982Y0097026D01*
X0257982Y0102026D01*
X0257026Y0102982D01*
X0255776Y0103500D01*
X0255294Y0103500D01*
X0255271Y0103555D01*
X0253555Y0105271D01*
X0251313Y0106200D01*
X0248887Y0106200D01*
X0248000Y0105833D01*
X0248000Y0109195D01*
X0248058Y0109781D01*
X0248507Y0110864D01*
X0249336Y0111693D01*
X0250419Y0112142D01*
X0251006Y0112200D01*
X0319194Y0112200D01*
X0319781Y0112142D01*
X0320864Y0111693D01*
X0321693Y0110864D01*
X0322142Y0109781D01*
X0322200Y0109194D01*
X0322200Y0105833D01*
X0321313Y0106200D01*
X0318887Y0106200D01*
X0316645Y0105271D01*
X0314929Y0103555D01*
X0314000Y0101313D01*
X0314000Y0098887D01*
X0314929Y0096645D01*
X0315900Y0095673D01*
X0315900Y0056840D01*
X0285958Y0026898D01*
X0285271Y0028555D01*
X0283555Y0030271D01*
X0281313Y0031200D01*
X0278887Y0031200D01*
X0276645Y0030271D01*
X0274929Y0028555D01*
X0274000Y0026313D01*
X0274000Y0023887D01*
X0274929Y0021645D01*
X0276645Y0019929D01*
X0278302Y0019242D01*
X0273360Y0014300D01*
X0189300Y0014300D01*
X0189300Y0020673D01*
X0190271Y0021645D01*
X0191200Y0023887D01*
X0191200Y0026313D01*
X0190271Y0028555D01*
X0188555Y0030271D01*
X0186313Y0031200D01*
X0183887Y0031200D01*
X0181645Y0030271D01*
X0179929Y0028555D01*
X0179000Y0026313D01*
X0179000Y0023887D01*
X0179929Y0021645D01*
X0180900Y0020673D01*
X0180900Y0014300D01*
X0121800Y0014300D01*
X0121800Y0030673D01*
X0122771Y0031645D01*
X0123700Y0033887D01*
X0123700Y0036313D01*
X0122771Y0038555D01*
X0121368Y0039959D01*
X0123900Y0042490D01*
X0123900Y0045100D01*
X0123900Y0047710D01*
X0120210Y0051400D01*
X0117600Y0051400D01*
X0117600Y0045100D01*
X0137600Y0025100D01*
X0142600Y0025100D01*
X0142600Y0025100D01*
X0142600Y0031400D01*
X0143096Y0031400D01*
X0144075Y0031245D01*
X0145018Y0030938D01*
X0145902Y0030488D01*
X0146704Y0029905D01*
X0147405Y0029204D01*
X0147988Y0028402D01*
X0148438Y0027518D01*
X0148745Y0026575D01*
X0148900Y0025596D01*
X0148900Y0025100D01*
X0142600Y0025100D01*
X0142600Y0025100D01*
X0142600Y0025100D01*
X0136300Y0025100D01*
X0136300Y0025596D01*
X0136455Y0026575D01*
X0136762Y0027518D01*
X0137212Y0028402D01*
X0137795Y0029204D01*
X0138496Y0029905D01*
X0139298Y0030488D01*
X0140182Y0030938D01*
X0141125Y0031245D01*
X0142104Y0031400D01*
X0142600Y0031400D01*
X0142600Y0025100D01*
X0148900Y0025100D01*
X0148900Y0024604D01*
X0148745Y0023625D01*
X0148438Y0022682D01*
X0147988Y0021798D01*
X0147405Y0020996D01*
X0146704Y0020295D01*
X0145902Y0019712D01*
X0145018Y0019262D01*
X0144075Y0018955D01*
X0143096Y0018800D01*
X0142600Y0018800D01*
X0142600Y0025100D01*
X0142600Y0025100D01*
X0136300Y0025100D01*
X0136300Y0024604D01*
X0136455Y0023625D01*
X0136762Y0022682D01*
X0137212Y0021798D01*
X0137795Y0020996D01*
X0138496Y0020295D01*
X0139298Y0019712D01*
X0140182Y0019262D01*
X0141125Y0018955D01*
X0142104Y0018800D01*
X0142600Y0018800D01*
X0142600Y0025100D01*
X0142600Y0025797D02*
X0142600Y0025797D01*
X0136332Y0025797D02*
X0121800Y0025797D01*
X0113400Y0025797D02*
X0101200Y0025797D01*
X0101200Y0026313D02*
X0100271Y0028555D01*
X0098555Y0030271D01*
X0096313Y0031200D01*
X0093887Y0031200D01*
X0091645Y0030271D01*
X0089929Y0028555D01*
X0089000Y0026313D01*
X0089000Y0023887D01*
X0089929Y0021645D01*
X0090900Y0020673D01*
X0090900Y0014300D01*
X0056840Y0014300D01*
X0051898Y0019242D01*
X0053555Y0019929D01*
X0055271Y0021645D01*
X0056200Y0023887D01*
X0056200Y0026313D01*
X0055271Y0028555D01*
X0053555Y0030271D01*
X0051313Y0031200D01*
X0048887Y0031200D01*
X0046645Y0030271D01*
X0044929Y0028555D01*
X0044242Y0026898D01*
X0014300Y0056840D01*
X0014300Y0057782D02*
X0044396Y0057782D01*
X0047812Y0060981D02*
X0014300Y0060981D01*
X0014300Y0064179D02*
X0058786Y0064179D01*
X0056912Y0060981D02*
X0052388Y0060981D01*
X0050100Y0060981D02*
X0050100Y0060981D01*
X0050100Y0057782D02*
X0050100Y0057782D01*
X0055804Y0057782D02*
X0055925Y0057782D01*
X0056088Y0051385D02*
X0055188Y0051385D01*
X0050100Y0051385D02*
X0050100Y0051385D01*
X0045012Y0051385D02*
X0019754Y0051385D01*
X0022953Y0048187D02*
X0057438Y0048187D01*
X0059818Y0044988D02*
X0026151Y0044988D01*
X0029350Y0041790D02*
X0064459Y0041790D01*
X0075741Y0041790D02*
X0112001Y0041790D01*
X0111300Y0042490D02*
X0113832Y0039959D01*
X0112429Y0038555D01*
X0111500Y0036313D01*
X0111500Y0033887D01*
X0112429Y0031645D01*
X0113400Y0030673D01*
X0113400Y0014300D01*
X0099300Y0014300D01*
X0099300Y0020673D01*
X0100271Y0021645D01*
X0101200Y0023887D01*
X0101200Y0026313D01*
X0095100Y0025100D02*
X0095100Y0010100D01*
X0117600Y0010100D01*
X0117600Y0035100D01*
X0123700Y0035393D02*
X0210799Y0035393D01*
X0211505Y0035100D02*
X0209668Y0034339D01*
X0208261Y0032932D01*
X0207500Y0031095D01*
X0207500Y0029105D01*
X0208261Y0027268D01*
X0209668Y0025861D01*
X0211505Y0025100D01*
X0218695Y0025100D01*
X0220532Y0025861D01*
X0221939Y0027268D01*
X0222700Y0029105D01*
X0222700Y0031095D01*
X0221939Y0032932D01*
X0220532Y0034339D01*
X0218695Y0035100D01*
X0211505Y0035100D01*
X0219401Y0035393D02*
X0294453Y0035393D01*
X0297652Y0038591D02*
X0222487Y0038591D01*
X0222412Y0041790D02*
X0254459Y0041790D01*
X0255588Y0041215D02*
X0255588Y0041215D01*
X0260100Y0040500D01*
X0264612Y0041215D01*
X0268682Y0043288D01*
X0271912Y0046518D01*
X0271912Y0046518D01*
X0273985Y0050588D01*
X0274304Y0052599D01*
X0274712Y0051798D01*
X0275295Y0050996D01*
X0275996Y0050295D01*
X0276798Y0049712D01*
X0277682Y0049262D01*
X0278625Y0048955D01*
X0279604Y0048800D01*
X0280100Y0048800D01*
X0280596Y0048800D01*
X0281575Y0048955D01*
X0282518Y0049262D01*
X0283402Y0049712D01*
X0284204Y0050295D01*
X0284905Y0050996D01*
X0285488Y0051798D01*
X0285938Y0052682D01*
X0286245Y0053625D01*
X0286400Y0054604D01*
X0286400Y0055100D01*
X0286400Y0055596D01*
X0286245Y0056575D01*
X0285938Y0057518D01*
X0285488Y0058402D01*
X0284905Y0059204D01*
X0284204Y0059905D01*
X0283402Y0060488D01*
X0282518Y0060938D01*
X0281575Y0061245D01*
X0280596Y0061400D01*
X0280100Y0061400D01*
X0280100Y0055100D01*
X0280100Y0062600D01*
X0280100Y0061400D02*
X0279604Y0061400D01*
X0278625Y0061245D01*
X0277682Y0060938D01*
X0276798Y0060488D01*
X0275996Y0059905D01*
X0275295Y0059204D01*
X0274712Y0058402D01*
X0274304Y0057601D01*
X0273985Y0059612D01*
X0271912Y0063682D01*
X0271912Y0063682D01*
X0268682Y0066912D01*
X0264612Y0068985D01*
X0260100Y0069700D01*
X0255588Y0068985D01*
X0251518Y0066912D01*
X0248288Y0063682D01*
X0248288Y0063682D01*
X0246215Y0059612D01*
X0246215Y0059612D01*
X0245500Y0055100D01*
X0245500Y0055100D01*
X0246215Y0050588D01*
X0248288Y0046518D01*
X0251518Y0043288D01*
X0251518Y0043288D01*
X0255588Y0041215D01*
X0260100Y0040500D02*
X0260100Y0040500D01*
X0264612Y0041215D02*
X0264612Y0041215D01*
X0265741Y0041790D02*
X0300850Y0041790D01*
X0304049Y0044988D02*
X0270382Y0044988D01*
X0268682Y0043288D02*
X0268682Y0043288D01*
X0272762Y0048187D02*
X0307247Y0048187D01*
X0310446Y0051385D02*
X0285188Y0051385D01*
X0280100Y0051385D02*
X0280100Y0051385D01*
X0275012Y0051385D02*
X0274112Y0051385D01*
X0273985Y0050588D02*
X0273985Y0050588D01*
X0280100Y0048800D02*
X0280100Y0055100D01*
X0286400Y0055100D01*
X0280100Y0055100D01*
X0280100Y0055100D01*
X0280100Y0055100D01*
X0280100Y0048800D01*
X0280100Y0054584D02*
X0280100Y0054584D01*
X0280100Y0055100D02*
X0280100Y0055100D01*
X0280100Y0061400D01*
X0280100Y0060981D02*
X0280100Y0060981D01*
X0277812Y0060981D02*
X0273288Y0060981D01*
X0273985Y0059612D02*
X0273985Y0059612D01*
X0274275Y0057782D02*
X0274396Y0057782D01*
X0280100Y0057782D02*
X0280100Y0057782D01*
X0282388Y0060981D02*
X0315900Y0060981D01*
X0315900Y0057782D02*
X0285804Y0057782D01*
X0286397Y0054584D02*
X0313644Y0054584D01*
X0320100Y0055100D02*
X0275100Y0010100D01*
X0185100Y0010100D01*
X0185100Y0025100D01*
X0191200Y0025797D02*
X0194000Y0025797D01*
X0194000Y0026313D02*
X0194000Y0023887D01*
X0194929Y0021645D01*
X0196645Y0019929D01*
X0198887Y0019000D01*
X0201313Y0019000D01*
X0203555Y0019929D01*
X0205271Y0021645D01*
X0206200Y0023887D01*
X0206200Y0026313D01*
X0205271Y0028555D01*
X0203555Y0030271D01*
X0201313Y0031200D01*
X0198887Y0031200D01*
X0196645Y0030271D01*
X0194929Y0028555D01*
X0194000Y0026313D01*
X0195369Y0028996D02*
X0189831Y0028996D01*
X0180369Y0028996D02*
X0147557Y0028996D01*
X0142600Y0028996D02*
X0142600Y0028996D01*
X0137643Y0028996D02*
X0121800Y0028996D01*
X0122999Y0032194D02*
X0207956Y0032194D01*
X0207545Y0028996D02*
X0204831Y0028996D01*
X0206200Y0025797D02*
X0209822Y0025797D01*
X0205667Y0022599D02*
X0227033Y0022599D01*
X0227429Y0021645D02*
X0229145Y0019929D01*
X0231387Y0019000D01*
X0233813Y0019000D01*
X0236055Y0019929D01*
X0237771Y0021645D01*
X0238700Y0023887D01*
X0238700Y0026313D01*
X0237771Y0028555D01*
X0236055Y0030271D01*
X0233813Y0031200D01*
X0231387Y0031200D01*
X0229145Y0030271D01*
X0227429Y0028555D01*
X0226500Y0026313D01*
X0226500Y0023887D01*
X0227429Y0021645D01*
X0230420Y0019400D02*
X0202280Y0019400D01*
X0197920Y0019400D02*
X0189300Y0019400D01*
X0190667Y0022599D02*
X0194533Y0022599D01*
X0180900Y0019400D02*
X0145291Y0019400D01*
X0142600Y0019400D02*
X0142600Y0019400D01*
X0139909Y0019400D02*
X0121800Y0019400D01*
X0121800Y0022599D02*
X0136804Y0022599D01*
X0142600Y0022599D02*
X0142600Y0022599D01*
X0148396Y0022599D02*
X0179533Y0022599D01*
X0179000Y0025797D02*
X0148868Y0025797D01*
X0121800Y0016202D02*
X0180900Y0016202D01*
X0189300Y0016202D02*
X0275262Y0016202D01*
X0277920Y0019400D02*
X0234780Y0019400D01*
X0238167Y0022599D02*
X0251475Y0022599D01*
X0251645Y0022429D02*
X0253887Y0021500D01*
X0256313Y0021500D01*
X0258555Y0022429D01*
X0260100Y0023973D01*
X0261645Y0022429D01*
X0263887Y0021500D01*
X0266313Y0021500D01*
X0268555Y0022429D01*
X0270271Y0024145D01*
X0271200Y0026387D01*
X0271200Y0028813D01*
X0270271Y0031055D01*
X0268555Y0032771D01*
X0266313Y0033700D01*
X0263887Y0033700D01*
X0261645Y0032771D01*
X0260100Y0031227D01*
X0258555Y0032771D01*
X0256313Y0033700D01*
X0253887Y0033700D01*
X0251645Y0032771D01*
X0249929Y0031055D01*
X0249000Y0028813D01*
X0249000Y0026387D01*
X0249929Y0024145D01*
X0251645Y0022429D01*
X0258725Y0022599D02*
X0261475Y0022599D01*
X0268725Y0022599D02*
X0274533Y0022599D01*
X0274000Y0025797D02*
X0270956Y0025797D01*
X0271124Y0028996D02*
X0275369Y0028996D01*
X0269132Y0032194D02*
X0291255Y0032194D01*
X0288056Y0028996D02*
X0284831Y0028996D01*
X0261068Y0032194D02*
X0259132Y0032194D01*
X0251068Y0032194D02*
X0222244Y0032194D01*
X0222655Y0028996D02*
X0227869Y0028996D01*
X0237331Y0028996D02*
X0249076Y0028996D01*
X0249244Y0025797D02*
X0238700Y0025797D01*
X0226500Y0025797D02*
X0220378Y0025797D01*
X0191042Y0038733D02*
X0189792Y0038216D01*
X0137908Y0038216D01*
X0136658Y0038733D01*
X0129718Y0045674D01*
X0129200Y0046924D01*
X0129200Y0056995D01*
X0128700Y0057494D01*
X0128000Y0059185D01*
X0128000Y0061015D01*
X0128700Y0062706D01*
X0129994Y0064000D01*
X0131685Y0064700D01*
X0133515Y0064700D01*
X0135206Y0064000D01*
X0136500Y0062706D01*
X0137200Y0061015D01*
X0137200Y0059185D01*
X0136500Y0057494D01*
X0136000Y0056995D01*
X0136000Y0049008D01*
X0139993Y0045016D01*
X0154568Y0045016D01*
X0154000Y0046387D01*
X0154000Y0048813D01*
X0154929Y0051055D01*
X0155573Y0051700D01*
X0147794Y0051700D01*
X0147771Y0051645D01*
X0146055Y0049929D01*
X0143813Y0049000D01*
X0141387Y0049000D01*
X0139145Y0049929D01*
X0137429Y0051645D01*
X0136500Y0053887D01*
X0136500Y0056313D01*
X0137429Y0058555D01*
X0139145Y0060271D01*
X0141387Y0061200D01*
X0143813Y0061200D01*
X0146055Y0060271D01*
X0147771Y0058555D01*
X0147794Y0058500D01*
X0154223Y0058500D01*
X0154731Y0059008D01*
X0154731Y0060636D01*
X0155549Y0062610D01*
X0157059Y0064120D01*
X0159032Y0064937D01*
X0161168Y0064937D01*
X0163141Y0064120D01*
X0164651Y0062610D01*
X0165100Y0061526D01*
X0165549Y0062610D01*
X0167059Y0064120D01*
X0169032Y0064937D01*
X0171168Y0064937D01*
X0173141Y0064120D01*
X0174651Y0062610D01*
X0175468Y0060636D01*
X0175468Y0058501D01*
X0174651Y0056527D01*
X0173141Y0055017D01*
X0171168Y0054200D01*
X0169032Y0054200D01*
X0167059Y0055017D01*
X0165549Y0056527D01*
X0165100Y0057611D01*
X0164651Y0056527D01*
X0163141Y0055017D01*
X0161168Y0054200D01*
X0159540Y0054200D01*
X0159040Y0053700D01*
X0161313Y0053700D01*
X0163555Y0052771D01*
X0165100Y0051227D01*
X0166645Y0052771D01*
X0168887Y0053700D01*
X0171313Y0053700D01*
X0173555Y0052771D01*
X0175271Y0051055D01*
X0176200Y0048813D01*
X0176200Y0046387D01*
X0175632Y0045016D01*
X0187707Y0045016D01*
X0194755Y0052063D01*
X0194000Y0053887D01*
X0194000Y0056313D01*
X0194929Y0058555D01*
X0196645Y0060271D01*
X0198887Y0061200D01*
X0201313Y0061200D01*
X0203555Y0060271D01*
X0205271Y0058555D01*
X0206200Y0056313D01*
X0206200Y0053887D01*
X0205271Y0051645D01*
X0203555Y0049929D01*
X0201313Y0049000D01*
X0201308Y0049000D01*
X0191998Y0039690D01*
X0191998Y0039690D01*
X0191042Y0038733D01*
X0190699Y0038591D02*
X0207713Y0038591D01*
X0207788Y0041790D02*
X0194098Y0041790D01*
X0197297Y0044988D02*
X0211236Y0044988D01*
X0207654Y0048187D02*
X0200495Y0048187D01*
X0205012Y0051385D02*
X0207450Y0051385D01*
X0206200Y0054584D02*
X0209846Y0054584D01*
X0215100Y0054584D02*
X0215100Y0054584D01*
X0220354Y0054584D02*
X0226303Y0054584D01*
X0226300Y0054604D02*
X0226455Y0053625D01*
X0226762Y0052682D01*
X0227212Y0051798D01*
X0227795Y0050996D01*
X0232600Y0051385D02*
X0232600Y0051385D01*
X0237688Y0051385D02*
X0246088Y0051385D01*
X0246215Y0050588D02*
X0246215Y0050588D01*
X0247438Y0048187D02*
X0222546Y0048187D01*
X0218964Y0044988D02*
X0249818Y0044988D01*
X0248288Y0046518D02*
X0248288Y0046518D01*
X0232600Y0048800D02*
X0232600Y0055100D01*
X0232600Y0055100D01*
X0238900Y0055100D01*
X0232600Y0055100D01*
X0232600Y0055100D01*
X0232600Y0055100D01*
X0226300Y0055100D01*
X0226300Y0055596D01*
X0226455Y0056575D01*
X0226762Y0057518D01*
X0227212Y0058402D01*
X0227795Y0059204D01*
X0228496Y0059905D01*
X0229298Y0060488D01*
X0230182Y0060938D01*
X0231125Y0061245D01*
X0232104Y0061400D01*
X0232600Y0061400D01*
X0232600Y0055100D01*
X0232600Y0055100D01*
X0226300Y0055100D01*
X0226300Y0054604D01*
X0232600Y0054584D02*
X0232600Y0054584D01*
X0232600Y0055100D02*
X0232600Y0048800D01*
X0238897Y0054584D02*
X0245582Y0054584D01*
X0245925Y0057782D02*
X0238304Y0057782D01*
X0234888Y0060981D02*
X0246912Y0060981D01*
X0248786Y0064179D02*
X0172997Y0064179D01*
X0167203Y0064179D02*
X0162997Y0064179D01*
X0157203Y0064179D02*
X0134772Y0064179D01*
X0130428Y0064179D02*
X0081414Y0064179D01*
X0083288Y0060981D02*
X0093358Y0060981D01*
X0093887Y0061200D02*
X0091645Y0060271D01*
X0089929Y0058555D01*
X0089000Y0056313D01*
X0089000Y0053887D01*
X0089929Y0051645D01*
X0091645Y0049929D01*
X0093887Y0049000D01*
X0096313Y0049000D01*
X0098555Y0049929D01*
X0100271Y0051645D01*
X0101200Y0053887D01*
X0101200Y0056313D01*
X0100271Y0058555D01*
X0098555Y0060271D01*
X0096313Y0061200D01*
X0093887Y0061200D01*
X0096842Y0060981D02*
X0128000Y0060981D01*
X0128581Y0057782D02*
X0100591Y0057782D01*
X0101200Y0054584D02*
X0129200Y0054584D01*
X0136000Y0054584D02*
X0136500Y0054584D01*
X0136619Y0057782D02*
X0137109Y0057782D01*
X0137200Y0060981D02*
X0140858Y0060981D01*
X0144342Y0060981D02*
X0154874Y0060981D01*
X0162095Y0054584D02*
X0168105Y0054584D01*
X0172095Y0054584D02*
X0179000Y0054584D01*
X0179000Y0053887D02*
X0179929Y0051645D01*
X0181645Y0049929D01*
X0183887Y0049000D01*
X0186313Y0049000D01*
X0188555Y0049929D01*
X0190271Y0051645D01*
X0191200Y0053887D01*
X0191200Y0056313D01*
X0190271Y0058555D01*
X0188555Y0060271D01*
X0186313Y0061200D01*
X0183887Y0061200D01*
X0181645Y0060271D01*
X0179929Y0058555D01*
X0179000Y0056313D01*
X0179000Y0053887D01*
X0180188Y0051385D02*
X0174941Y0051385D01*
X0176200Y0048187D02*
X0190879Y0048187D01*
X0190012Y0051385D02*
X0194077Y0051385D01*
X0194000Y0054584D02*
X0191200Y0054584D01*
X0190591Y0057782D02*
X0194609Y0057782D01*
X0198358Y0060981D02*
X0186842Y0060981D01*
X0183358Y0060981D02*
X0175326Y0060981D01*
X0175171Y0057782D02*
X0179609Y0057782D01*
X0165259Y0051385D02*
X0164941Y0051385D01*
X0155259Y0051385D02*
X0147512Y0051385D01*
X0154000Y0048187D02*
X0136821Y0048187D01*
X0136000Y0051385D02*
X0137688Y0051385D01*
X0129200Y0051385D02*
X0120224Y0051385D01*
X0117600Y0051385D02*
X0117600Y0051385D01*
X0117600Y0051400D02*
X0114990Y0051400D01*
X0111300Y0047710D01*
X0111300Y0045100D01*
X0117600Y0045100D01*
X0117600Y0070100D01*
X0070100Y0070100D01*
X0077767Y0067378D02*
X0252433Y0067378D01*
X0251518Y0066912D02*
X0251518Y0066912D01*
X0255588Y0068985D02*
X0255588Y0068985D01*
X0260100Y0069700D02*
X0260100Y0069700D01*
X0267766Y0067378D02*
X0315900Y0067378D01*
X0315900Y0070576D02*
X0284448Y0070576D01*
X0284936Y0071064D02*
X0283220Y0069349D01*
X0280978Y0068420D01*
X0278552Y0068420D01*
X0276310Y0069349D01*
X0274594Y0071064D01*
X0273665Y0073306D01*
X0273665Y0075733D01*
X0274379Y0077457D01*
X0273141Y0076219D01*
X0271168Y0075401D01*
X0269032Y0075401D01*
X0267059Y0076219D01*
X0265908Y0077370D01*
X0263754Y0077370D01*
X0262504Y0077887D01*
X0258174Y0082218D01*
X0257218Y0083174D01*
X0256700Y0084424D01*
X0256700Y0093692D01*
X0254509Y0095882D01*
X0253555Y0094929D01*
X0253500Y0094906D01*
X0253500Y0089424D01*
X0252982Y0088174D01*
X0252026Y0087218D01*
X0249526Y0084718D01*
X0248276Y0084200D01*
X0184008Y0084200D01*
X0183500Y0083692D01*
X0183500Y0082794D01*
X0183555Y0082771D01*
X0185100Y0081227D01*
X0186645Y0082771D01*
X0188887Y0083700D01*
X0191313Y0083700D01*
X0193555Y0082771D01*
X0195100Y0081227D01*
X0196645Y0082771D01*
X0198887Y0083700D01*
X0201313Y0083700D01*
X0203555Y0082771D01*
X0205100Y0081227D01*
X0206645Y0082771D01*
X0208887Y0083700D01*
X0211313Y0083700D01*
X0213555Y0082771D01*
X0215012Y0081315D01*
X0215295Y0081704D01*
X0215996Y0082405D01*
X0216798Y0082988D01*
X0217682Y0083438D01*
X0218625Y0083745D01*
X0219604Y0083900D01*
X0220100Y0083900D01*
X0220100Y0077600D01*
X0220100Y0077600D01*
X0220100Y0071300D01*
X0220100Y0077600D01*
X0220100Y0077600D01*
X0220100Y0076973D02*
X0220100Y0076973D01*
X0220100Y0080172D02*
X0220100Y0080172D01*
X0220100Y0083370D02*
X0220100Y0083370D01*
X0217548Y0083370D02*
X0212109Y0083370D01*
X0208091Y0083370D02*
X0202109Y0083370D01*
X0198091Y0083370D02*
X0192109Y0083370D01*
X0188091Y0083370D02*
X0183500Y0083370D01*
X0184902Y0073775D02*
X0185298Y0073775D01*
X0194902Y0073775D02*
X0195298Y0073775D01*
X0204902Y0073775D02*
X0205298Y0073775D01*
X0214902Y0073775D02*
X0215092Y0073775D01*
X0220100Y0073775D02*
X0220100Y0073775D01*
X0225108Y0073775D02*
X0225298Y0073775D01*
X0220100Y0070100D02*
X0232600Y0070100D01*
X0234902Y0073775D02*
X0273665Y0073775D01*
X0273896Y0076973D02*
X0274179Y0076973D01*
X0266304Y0076973D02*
X0236200Y0076973D01*
X0235637Y0080172D02*
X0260220Y0080172D01*
X0257136Y0083370D02*
X0232109Y0083370D01*
X0228091Y0083370D02*
X0222652Y0083370D01*
X0251377Y0086569D02*
X0256700Y0086569D01*
X0256700Y0089768D02*
X0253500Y0089768D01*
X0253500Y0092966D02*
X0256700Y0092966D01*
X0263500Y0092966D02*
X0271044Y0092966D01*
X0270549Y0092471D02*
X0269731Y0090498D01*
X0269731Y0088362D01*
X0270549Y0086389D01*
X0270800Y0086138D01*
X0269032Y0086138D01*
X0267059Y0085321D01*
X0265908Y0084170D01*
X0265838Y0084170D01*
X0263500Y0086508D01*
X0263500Y0095776D01*
X0260645Y0099363D02*
X0273838Y0099363D01*
X0274284Y0102562D02*
X0257447Y0102562D01*
X0252375Y0105760D02*
X0277332Y0105760D01*
X0280100Y0105760D02*
X0280100Y0105760D01*
X0282868Y0105760D02*
X0287825Y0105760D01*
X0292375Y0105760D02*
X0317825Y0105760D01*
X0314517Y0102562D02*
X0295683Y0102562D01*
X0296200Y0099363D02*
X0314000Y0099363D01*
X0320100Y0100100D02*
X0320100Y0055100D01*
X0315900Y0064179D02*
X0271414Y0064179D01*
X0275082Y0070576D02*
X0086200Y0070576D01*
X0084000Y0070576D02*
X0053502Y0070576D01*
X0046698Y0070576D02*
X0014300Y0070576D01*
X0014300Y0067378D02*
X0062433Y0067378D01*
X0061168Y0075401D02*
X0059032Y0075401D01*
X0057059Y0076219D01*
X0056133Y0077144D01*
X0056200Y0076983D01*
X0056200Y0074556D01*
X0061168Y0075401D02*
X0063141Y0076219D01*
X0064651Y0077729D01*
X0065468Y0079702D01*
X0065468Y0081838D01*
X0064651Y0083811D01*
X0063141Y0085321D01*
X0061168Y0086138D01*
X0059400Y0086138D01*
X0059651Y0086389D01*
X0060468Y0088362D01*
X0060468Y0090498D01*
X0059651Y0092471D01*
X0058141Y0093981D01*
X0056168Y0094799D01*
X0054032Y0094799D01*
X0052059Y0093981D01*
X0050549Y0092471D01*
X0049731Y0090498D01*
X0049731Y0088425D01*
X0048555Y0089601D01*
X0046313Y0090530D01*
X0043887Y0090530D01*
X0041645Y0089601D01*
X0039929Y0087885D01*
X0039000Y0085643D01*
X0039000Y0083217D01*
X0039929Y0080975D01*
X0041645Y0079259D01*
X0043477Y0078500D01*
X0036508Y0078500D01*
X0036000Y0079008D01*
X0036000Y0095573D01*
X0036645Y0094929D01*
X0038887Y0094000D01*
X0041313Y0094000D01*
X0043555Y0094929D01*
X0045012Y0096385D01*
X0045295Y0095996D01*
X0045996Y0095295D01*
X0046798Y0094712D01*
X0047682Y0094262D01*
X0048625Y0093955D01*
X0049604Y0093800D01*
X0050100Y0093800D01*
X0050596Y0093800D01*
X0051575Y0093955D01*
X0052518Y0094262D01*
X0053402Y0094712D01*
X0054204Y0095295D01*
X0054905Y0095996D01*
X0055488Y0096798D01*
X0055938Y0097682D01*
X0056245Y0098625D01*
X0056400Y0099604D01*
X0056400Y0100100D01*
X0050100Y0100100D01*
X0050100Y0100100D01*
X0050100Y0100100D01*
X0050100Y0106400D01*
X0050100Y0100100D01*
X0050100Y0093800D01*
X0050100Y0100100D01*
X0050100Y0100100D01*
X0050100Y0099363D02*
X0050100Y0099363D01*
X0050100Y0096165D02*
X0050100Y0096165D01*
X0055028Y0096165D02*
X0075409Y0096165D01*
X0074000Y0099363D02*
X0056362Y0099363D01*
X0055916Y0102562D02*
X0074517Y0102562D01*
X0077825Y0105760D02*
X0052868Y0105760D01*
X0050100Y0105760D02*
X0050100Y0105760D01*
X0047332Y0105760D02*
X0042375Y0105760D01*
X0037825Y0105760D02*
X0012375Y0105760D01*
X0015683Y0102562D02*
X0032753Y0102562D01*
X0029650Y0099363D02*
X0016200Y0099363D01*
X0010100Y0100100D02*
X0010100Y0055100D01*
X0055100Y0010100D01*
X0060100Y0010100D01*
X0095100Y0010100D01*
X0099300Y0016202D02*
X0113400Y0016202D01*
X0113400Y0019400D02*
X0099300Y0019400D01*
X0100667Y0022599D02*
X0113400Y0022599D01*
X0113400Y0028996D02*
X0099831Y0028996D01*
X0090369Y0028996D02*
X0081124Y0028996D01*
X0081200Y0028813D02*
X0080271Y0031055D01*
X0078555Y0032771D01*
X0076313Y0033700D01*
X0073887Y0033700D01*
X0071645Y0032771D01*
X0070100Y0031227D01*
X0068555Y0032771D01*
X0066313Y0033700D01*
X0063887Y0033700D01*
X0061645Y0032771D01*
X0059929Y0031055D01*
X0059000Y0028813D01*
X0059000Y0026387D01*
X0059929Y0024145D01*
X0061645Y0022429D01*
X0063887Y0021500D01*
X0066313Y0021500D01*
X0068555Y0022429D01*
X0070100Y0023973D01*
X0071645Y0022429D01*
X0073887Y0021500D01*
X0076313Y0021500D01*
X0078555Y0022429D01*
X0080271Y0024145D01*
X0081200Y0026387D01*
X0081200Y0028813D01*
X0080956Y0025797D02*
X0089000Y0025797D01*
X0089533Y0022599D02*
X0078725Y0022599D01*
X0071475Y0022599D02*
X0068725Y0022599D01*
X0061475Y0022599D02*
X0055667Y0022599D01*
X0052280Y0019400D02*
X0090900Y0019400D01*
X0090900Y0016202D02*
X0054938Y0016202D01*
X0056200Y0025797D02*
X0059244Y0025797D01*
X0059076Y0028996D02*
X0054831Y0028996D01*
X0061068Y0032194D02*
X0038945Y0032194D01*
X0042144Y0028996D02*
X0045369Y0028996D01*
X0035747Y0035393D02*
X0111500Y0035393D01*
X0112201Y0032194D02*
X0079132Y0032194D01*
X0071068Y0032194D02*
X0069132Y0032194D01*
X0080382Y0044988D02*
X0111300Y0044988D01*
X0111300Y0045100D02*
X0111300Y0042490D01*
X0111300Y0045100D02*
X0117600Y0045100D01*
X0117600Y0045100D01*
X0123900Y0045100D01*
X0117600Y0045100D01*
X0117600Y0045100D01*
X0117600Y0045100D01*
X0117600Y0051400D01*
X0114976Y0051385D02*
X0100012Y0051385D01*
X0090188Y0051385D02*
X0084112Y0051385D01*
X0082762Y0048187D02*
X0111777Y0048187D01*
X0117600Y0048187D02*
X0117600Y0048187D01*
X0123423Y0048187D02*
X0129200Y0048187D01*
X0130403Y0044988D02*
X0123900Y0044988D01*
X0123199Y0041790D02*
X0133602Y0041790D01*
X0137001Y0038591D02*
X0122735Y0038591D01*
X0112465Y0038591D02*
X0032548Y0038591D01*
X0084618Y0054584D02*
X0089000Y0054584D01*
X0089609Y0057782D02*
X0084275Y0057782D01*
X0117600Y0070100D02*
X0120100Y0070100D01*
X0215100Y0070100D01*
X0201842Y0060981D02*
X0230312Y0060981D01*
X0232600Y0060981D02*
X0232600Y0060981D01*
X0232600Y0057782D02*
X0232600Y0057782D01*
X0226896Y0057782D02*
X0205591Y0057782D01*
X0175298Y0073775D02*
X0174902Y0073775D01*
X0165298Y0073775D02*
X0164902Y0073775D01*
X0155298Y0073775D02*
X0154902Y0073775D01*
X0145298Y0073775D02*
X0144902Y0073775D01*
X0135298Y0073775D02*
X0134902Y0073775D01*
X0125298Y0073775D02*
X0125108Y0073775D01*
X0120100Y0073775D02*
X0120100Y0073775D01*
X0120100Y0071300D02*
X0120100Y0077600D01*
X0120100Y0070100D01*
X0120100Y0071300D02*
X0120100Y0077600D01*
X0120100Y0077600D01*
X0120100Y0076973D02*
X0120100Y0076973D01*
X0115092Y0073775D02*
X0114902Y0073775D01*
X0105298Y0073775D02*
X0104902Y0073775D01*
X0095298Y0073775D02*
X0089530Y0073775D01*
X0091782Y0076973D02*
X0094000Y0076973D01*
X0085364Y0080172D02*
X0065468Y0080172D01*
X0063896Y0076973D02*
X0080897Y0076973D01*
X0088562Y0083370D02*
X0064834Y0083370D01*
X0059726Y0086569D02*
X0078823Y0086569D01*
X0076700Y0089768D02*
X0060468Y0089768D01*
X0059156Y0092966D02*
X0076700Y0092966D01*
X0051044Y0092966D02*
X0036000Y0092966D01*
X0029200Y0092966D02*
X0014300Y0092966D01*
X0014300Y0089768D02*
X0029200Y0089768D01*
X0029200Y0086569D02*
X0014300Y0086569D01*
X0014300Y0083370D02*
X0029200Y0083370D01*
X0036000Y0083370D02*
X0039000Y0083370D01*
X0039383Y0086569D02*
X0036000Y0086569D01*
X0036000Y0089768D02*
X0042046Y0089768D01*
X0048154Y0089768D02*
X0049731Y0089768D01*
X0045172Y0096165D02*
X0044791Y0096165D01*
X0050100Y0102562D02*
X0050100Y0102562D01*
X0029200Y0096165D02*
X0014791Y0096165D01*
X0008000Y0108959D02*
X0082200Y0108959D01*
X0079630Y0112157D02*
X0010570Y0112157D01*
X0014300Y0080172D02*
X0029200Y0080172D01*
X0029200Y0076973D02*
X0014300Y0076973D01*
X0014300Y0073775D02*
X0031617Y0073775D01*
X0036000Y0080172D02*
X0040731Y0080172D01*
X0056200Y0076973D02*
X0056304Y0076973D01*
X0117600Y0010100D02*
X0120100Y0010100D01*
X0185100Y0010100D01*
X0284936Y0071064D02*
X0285865Y0073306D01*
X0285865Y0075733D01*
X0285307Y0077080D01*
X0285978Y0077080D01*
X0288220Y0078009D01*
X0289936Y0079725D01*
X0290865Y0081967D01*
X0290865Y0084393D01*
X0289936Y0086635D01*
X0288220Y0088351D01*
X0285978Y0089280D01*
X0283552Y0089280D01*
X0281310Y0088351D01*
X0279866Y0086908D01*
X0280468Y0088362D01*
X0280468Y0090498D01*
X0279651Y0092471D01*
X0278141Y0093981D01*
X0276168Y0094799D01*
X0274032Y0094799D01*
X0272059Y0093981D01*
X0270549Y0092471D01*
X0269731Y0089768D02*
X0263500Y0089768D01*
X0263500Y0086569D02*
X0270474Y0086569D01*
X0280468Y0089768D02*
X0315900Y0089768D01*
X0315900Y0086569D02*
X0289964Y0086569D01*
X0290865Y0083370D02*
X0315900Y0083370D01*
X0315900Y0080172D02*
X0290122Y0080172D01*
X0285351Y0076973D02*
X0315900Y0076973D01*
X0315900Y0073775D02*
X0285865Y0073775D01*
X0279156Y0092966D02*
X0315900Y0092966D01*
X0315409Y0096165D02*
X0294791Y0096165D01*
X0285409Y0096165D02*
X0285028Y0096165D01*
X0280100Y0102562D02*
X0280100Y0102562D01*
X0250570Y0112157D02*
X0319630Y0112157D01*
X0322200Y0108959D02*
X0248000Y0108959D01*
M02*
