G75*
%MOIN*%
%OFA0B0*%
%FSLAX25Y25*%
%IPPOS*%
%LPD*%
%AMOC8*
5,1,8,0,0,1.08239X$1,22.5*
%
%ADD10C,0.00000*%
%ADD11C,0.01000*%
%ADD12C,0.00500*%
%ADD13C,0.00400*%
%ADD14C,0.00700*%
D10*
X0063801Y0055100D02*
X0063803Y0055258D01*
X0063809Y0055416D01*
X0063819Y0055574D01*
X0063833Y0055732D01*
X0063851Y0055889D01*
X0063872Y0056046D01*
X0063898Y0056202D01*
X0063928Y0056358D01*
X0063961Y0056513D01*
X0063999Y0056666D01*
X0064040Y0056819D01*
X0064085Y0056971D01*
X0064134Y0057122D01*
X0064187Y0057271D01*
X0064243Y0057419D01*
X0064303Y0057565D01*
X0064367Y0057710D01*
X0064435Y0057853D01*
X0064506Y0057995D01*
X0064580Y0058135D01*
X0064658Y0058272D01*
X0064740Y0058408D01*
X0064824Y0058542D01*
X0064913Y0058673D01*
X0065004Y0058802D01*
X0065099Y0058929D01*
X0065196Y0059054D01*
X0065297Y0059176D01*
X0065401Y0059295D01*
X0065508Y0059412D01*
X0065618Y0059526D01*
X0065731Y0059637D01*
X0065846Y0059746D01*
X0065964Y0059851D01*
X0066085Y0059953D01*
X0066208Y0060053D01*
X0066334Y0060149D01*
X0066462Y0060242D01*
X0066592Y0060332D01*
X0066725Y0060418D01*
X0066860Y0060502D01*
X0066996Y0060581D01*
X0067135Y0060658D01*
X0067276Y0060730D01*
X0067418Y0060800D01*
X0067562Y0060865D01*
X0067708Y0060927D01*
X0067855Y0060985D01*
X0068004Y0061040D01*
X0068154Y0061091D01*
X0068305Y0061138D01*
X0068457Y0061181D01*
X0068610Y0061220D01*
X0068765Y0061256D01*
X0068920Y0061287D01*
X0069076Y0061315D01*
X0069232Y0061339D01*
X0069389Y0061359D01*
X0069547Y0061375D01*
X0069704Y0061387D01*
X0069863Y0061395D01*
X0070021Y0061399D01*
X0070179Y0061399D01*
X0070337Y0061395D01*
X0070496Y0061387D01*
X0070653Y0061375D01*
X0070811Y0061359D01*
X0070968Y0061339D01*
X0071124Y0061315D01*
X0071280Y0061287D01*
X0071435Y0061256D01*
X0071590Y0061220D01*
X0071743Y0061181D01*
X0071895Y0061138D01*
X0072046Y0061091D01*
X0072196Y0061040D01*
X0072345Y0060985D01*
X0072492Y0060927D01*
X0072638Y0060865D01*
X0072782Y0060800D01*
X0072924Y0060730D01*
X0073065Y0060658D01*
X0073204Y0060581D01*
X0073340Y0060502D01*
X0073475Y0060418D01*
X0073608Y0060332D01*
X0073738Y0060242D01*
X0073866Y0060149D01*
X0073992Y0060053D01*
X0074115Y0059953D01*
X0074236Y0059851D01*
X0074354Y0059746D01*
X0074469Y0059637D01*
X0074582Y0059526D01*
X0074692Y0059412D01*
X0074799Y0059295D01*
X0074903Y0059176D01*
X0075004Y0059054D01*
X0075101Y0058929D01*
X0075196Y0058802D01*
X0075287Y0058673D01*
X0075376Y0058542D01*
X0075460Y0058408D01*
X0075542Y0058272D01*
X0075620Y0058135D01*
X0075694Y0057995D01*
X0075765Y0057853D01*
X0075833Y0057710D01*
X0075897Y0057565D01*
X0075957Y0057419D01*
X0076013Y0057271D01*
X0076066Y0057122D01*
X0076115Y0056971D01*
X0076160Y0056819D01*
X0076201Y0056666D01*
X0076239Y0056513D01*
X0076272Y0056358D01*
X0076302Y0056202D01*
X0076328Y0056046D01*
X0076349Y0055889D01*
X0076367Y0055732D01*
X0076381Y0055574D01*
X0076391Y0055416D01*
X0076397Y0055258D01*
X0076399Y0055100D01*
X0076397Y0054942D01*
X0076391Y0054784D01*
X0076381Y0054626D01*
X0076367Y0054468D01*
X0076349Y0054311D01*
X0076328Y0054154D01*
X0076302Y0053998D01*
X0076272Y0053842D01*
X0076239Y0053687D01*
X0076201Y0053534D01*
X0076160Y0053381D01*
X0076115Y0053229D01*
X0076066Y0053078D01*
X0076013Y0052929D01*
X0075957Y0052781D01*
X0075897Y0052635D01*
X0075833Y0052490D01*
X0075765Y0052347D01*
X0075694Y0052205D01*
X0075620Y0052065D01*
X0075542Y0051928D01*
X0075460Y0051792D01*
X0075376Y0051658D01*
X0075287Y0051527D01*
X0075196Y0051398D01*
X0075101Y0051271D01*
X0075004Y0051146D01*
X0074903Y0051024D01*
X0074799Y0050905D01*
X0074692Y0050788D01*
X0074582Y0050674D01*
X0074469Y0050563D01*
X0074354Y0050454D01*
X0074236Y0050349D01*
X0074115Y0050247D01*
X0073992Y0050147D01*
X0073866Y0050051D01*
X0073738Y0049958D01*
X0073608Y0049868D01*
X0073475Y0049782D01*
X0073340Y0049698D01*
X0073204Y0049619D01*
X0073065Y0049542D01*
X0072924Y0049470D01*
X0072782Y0049400D01*
X0072638Y0049335D01*
X0072492Y0049273D01*
X0072345Y0049215D01*
X0072196Y0049160D01*
X0072046Y0049109D01*
X0071895Y0049062D01*
X0071743Y0049019D01*
X0071590Y0048980D01*
X0071435Y0048944D01*
X0071280Y0048913D01*
X0071124Y0048885D01*
X0070968Y0048861D01*
X0070811Y0048841D01*
X0070653Y0048825D01*
X0070496Y0048813D01*
X0070337Y0048805D01*
X0070179Y0048801D01*
X0070021Y0048801D01*
X0069863Y0048805D01*
X0069704Y0048813D01*
X0069547Y0048825D01*
X0069389Y0048841D01*
X0069232Y0048861D01*
X0069076Y0048885D01*
X0068920Y0048913D01*
X0068765Y0048944D01*
X0068610Y0048980D01*
X0068457Y0049019D01*
X0068305Y0049062D01*
X0068154Y0049109D01*
X0068004Y0049160D01*
X0067855Y0049215D01*
X0067708Y0049273D01*
X0067562Y0049335D01*
X0067418Y0049400D01*
X0067276Y0049470D01*
X0067135Y0049542D01*
X0066996Y0049619D01*
X0066860Y0049698D01*
X0066725Y0049782D01*
X0066592Y0049868D01*
X0066462Y0049958D01*
X0066334Y0050051D01*
X0066208Y0050147D01*
X0066085Y0050247D01*
X0065964Y0050349D01*
X0065846Y0050454D01*
X0065731Y0050563D01*
X0065618Y0050674D01*
X0065508Y0050788D01*
X0065401Y0050905D01*
X0065297Y0051024D01*
X0065196Y0051146D01*
X0065099Y0051271D01*
X0065004Y0051398D01*
X0064913Y0051527D01*
X0064824Y0051658D01*
X0064740Y0051792D01*
X0064658Y0051928D01*
X0064580Y0052065D01*
X0064506Y0052205D01*
X0064435Y0052347D01*
X0064367Y0052490D01*
X0064303Y0052635D01*
X0064243Y0052781D01*
X0064187Y0052929D01*
X0064134Y0053078D01*
X0064085Y0053229D01*
X0064040Y0053381D01*
X0063999Y0053534D01*
X0063961Y0053687D01*
X0063928Y0053842D01*
X0063898Y0053998D01*
X0063872Y0054154D01*
X0063851Y0054311D01*
X0063833Y0054468D01*
X0063819Y0054626D01*
X0063809Y0054784D01*
X0063803Y0054942D01*
X0063801Y0055100D01*
X0253801Y0055100D02*
X0253803Y0055258D01*
X0253809Y0055416D01*
X0253819Y0055574D01*
X0253833Y0055732D01*
X0253851Y0055889D01*
X0253872Y0056046D01*
X0253898Y0056202D01*
X0253928Y0056358D01*
X0253961Y0056513D01*
X0253999Y0056666D01*
X0254040Y0056819D01*
X0254085Y0056971D01*
X0254134Y0057122D01*
X0254187Y0057271D01*
X0254243Y0057419D01*
X0254303Y0057565D01*
X0254367Y0057710D01*
X0254435Y0057853D01*
X0254506Y0057995D01*
X0254580Y0058135D01*
X0254658Y0058272D01*
X0254740Y0058408D01*
X0254824Y0058542D01*
X0254913Y0058673D01*
X0255004Y0058802D01*
X0255099Y0058929D01*
X0255196Y0059054D01*
X0255297Y0059176D01*
X0255401Y0059295D01*
X0255508Y0059412D01*
X0255618Y0059526D01*
X0255731Y0059637D01*
X0255846Y0059746D01*
X0255964Y0059851D01*
X0256085Y0059953D01*
X0256208Y0060053D01*
X0256334Y0060149D01*
X0256462Y0060242D01*
X0256592Y0060332D01*
X0256725Y0060418D01*
X0256860Y0060502D01*
X0256996Y0060581D01*
X0257135Y0060658D01*
X0257276Y0060730D01*
X0257418Y0060800D01*
X0257562Y0060865D01*
X0257708Y0060927D01*
X0257855Y0060985D01*
X0258004Y0061040D01*
X0258154Y0061091D01*
X0258305Y0061138D01*
X0258457Y0061181D01*
X0258610Y0061220D01*
X0258765Y0061256D01*
X0258920Y0061287D01*
X0259076Y0061315D01*
X0259232Y0061339D01*
X0259389Y0061359D01*
X0259547Y0061375D01*
X0259704Y0061387D01*
X0259863Y0061395D01*
X0260021Y0061399D01*
X0260179Y0061399D01*
X0260337Y0061395D01*
X0260496Y0061387D01*
X0260653Y0061375D01*
X0260811Y0061359D01*
X0260968Y0061339D01*
X0261124Y0061315D01*
X0261280Y0061287D01*
X0261435Y0061256D01*
X0261590Y0061220D01*
X0261743Y0061181D01*
X0261895Y0061138D01*
X0262046Y0061091D01*
X0262196Y0061040D01*
X0262345Y0060985D01*
X0262492Y0060927D01*
X0262638Y0060865D01*
X0262782Y0060800D01*
X0262924Y0060730D01*
X0263065Y0060658D01*
X0263204Y0060581D01*
X0263340Y0060502D01*
X0263475Y0060418D01*
X0263608Y0060332D01*
X0263738Y0060242D01*
X0263866Y0060149D01*
X0263992Y0060053D01*
X0264115Y0059953D01*
X0264236Y0059851D01*
X0264354Y0059746D01*
X0264469Y0059637D01*
X0264582Y0059526D01*
X0264692Y0059412D01*
X0264799Y0059295D01*
X0264903Y0059176D01*
X0265004Y0059054D01*
X0265101Y0058929D01*
X0265196Y0058802D01*
X0265287Y0058673D01*
X0265376Y0058542D01*
X0265460Y0058408D01*
X0265542Y0058272D01*
X0265620Y0058135D01*
X0265694Y0057995D01*
X0265765Y0057853D01*
X0265833Y0057710D01*
X0265897Y0057565D01*
X0265957Y0057419D01*
X0266013Y0057271D01*
X0266066Y0057122D01*
X0266115Y0056971D01*
X0266160Y0056819D01*
X0266201Y0056666D01*
X0266239Y0056513D01*
X0266272Y0056358D01*
X0266302Y0056202D01*
X0266328Y0056046D01*
X0266349Y0055889D01*
X0266367Y0055732D01*
X0266381Y0055574D01*
X0266391Y0055416D01*
X0266397Y0055258D01*
X0266399Y0055100D01*
X0266397Y0054942D01*
X0266391Y0054784D01*
X0266381Y0054626D01*
X0266367Y0054468D01*
X0266349Y0054311D01*
X0266328Y0054154D01*
X0266302Y0053998D01*
X0266272Y0053842D01*
X0266239Y0053687D01*
X0266201Y0053534D01*
X0266160Y0053381D01*
X0266115Y0053229D01*
X0266066Y0053078D01*
X0266013Y0052929D01*
X0265957Y0052781D01*
X0265897Y0052635D01*
X0265833Y0052490D01*
X0265765Y0052347D01*
X0265694Y0052205D01*
X0265620Y0052065D01*
X0265542Y0051928D01*
X0265460Y0051792D01*
X0265376Y0051658D01*
X0265287Y0051527D01*
X0265196Y0051398D01*
X0265101Y0051271D01*
X0265004Y0051146D01*
X0264903Y0051024D01*
X0264799Y0050905D01*
X0264692Y0050788D01*
X0264582Y0050674D01*
X0264469Y0050563D01*
X0264354Y0050454D01*
X0264236Y0050349D01*
X0264115Y0050247D01*
X0263992Y0050147D01*
X0263866Y0050051D01*
X0263738Y0049958D01*
X0263608Y0049868D01*
X0263475Y0049782D01*
X0263340Y0049698D01*
X0263204Y0049619D01*
X0263065Y0049542D01*
X0262924Y0049470D01*
X0262782Y0049400D01*
X0262638Y0049335D01*
X0262492Y0049273D01*
X0262345Y0049215D01*
X0262196Y0049160D01*
X0262046Y0049109D01*
X0261895Y0049062D01*
X0261743Y0049019D01*
X0261590Y0048980D01*
X0261435Y0048944D01*
X0261280Y0048913D01*
X0261124Y0048885D01*
X0260968Y0048861D01*
X0260811Y0048841D01*
X0260653Y0048825D01*
X0260496Y0048813D01*
X0260337Y0048805D01*
X0260179Y0048801D01*
X0260021Y0048801D01*
X0259863Y0048805D01*
X0259704Y0048813D01*
X0259547Y0048825D01*
X0259389Y0048841D01*
X0259232Y0048861D01*
X0259076Y0048885D01*
X0258920Y0048913D01*
X0258765Y0048944D01*
X0258610Y0048980D01*
X0258457Y0049019D01*
X0258305Y0049062D01*
X0258154Y0049109D01*
X0258004Y0049160D01*
X0257855Y0049215D01*
X0257708Y0049273D01*
X0257562Y0049335D01*
X0257418Y0049400D01*
X0257276Y0049470D01*
X0257135Y0049542D01*
X0256996Y0049619D01*
X0256860Y0049698D01*
X0256725Y0049782D01*
X0256592Y0049868D01*
X0256462Y0049958D01*
X0256334Y0050051D01*
X0256208Y0050147D01*
X0256085Y0050247D01*
X0255964Y0050349D01*
X0255846Y0050454D01*
X0255731Y0050563D01*
X0255618Y0050674D01*
X0255508Y0050788D01*
X0255401Y0050905D01*
X0255297Y0051024D01*
X0255196Y0051146D01*
X0255099Y0051271D01*
X0255004Y0051398D01*
X0254913Y0051527D01*
X0254824Y0051658D01*
X0254740Y0051792D01*
X0254658Y0051928D01*
X0254580Y0052065D01*
X0254506Y0052205D01*
X0254435Y0052347D01*
X0254367Y0052490D01*
X0254303Y0052635D01*
X0254243Y0052781D01*
X0254187Y0052929D01*
X0254134Y0053078D01*
X0254085Y0053229D01*
X0254040Y0053381D01*
X0253999Y0053534D01*
X0253961Y0053687D01*
X0253928Y0053842D01*
X0253898Y0053998D01*
X0253872Y0054154D01*
X0253851Y0054311D01*
X0253833Y0054468D01*
X0253819Y0054626D01*
X0253809Y0054784D01*
X0253803Y0054942D01*
X0253801Y0055100D01*
D11*
X0053370Y0006830D02*
X0006830Y0053370D01*
X0005100Y0057546D02*
X0005100Y0109194D01*
X0005102Y0109346D01*
X0005108Y0109498D01*
X0005118Y0109650D01*
X0005131Y0109801D01*
X0005149Y0109952D01*
X0005170Y0110103D01*
X0005196Y0110253D01*
X0005225Y0110402D01*
X0005258Y0110551D01*
X0005295Y0110698D01*
X0005335Y0110845D01*
X0005380Y0110990D01*
X0005428Y0111134D01*
X0005480Y0111277D01*
X0005535Y0111419D01*
X0005594Y0111559D01*
X0005657Y0111698D01*
X0005723Y0111835D01*
X0005793Y0111970D01*
X0005866Y0112103D01*
X0005943Y0112234D01*
X0006023Y0112364D01*
X0006106Y0112491D01*
X0006192Y0112616D01*
X0006282Y0112739D01*
X0006375Y0112859D01*
X0006471Y0112977D01*
X0006570Y0113093D01*
X0006672Y0113206D01*
X0006776Y0113316D01*
X0006884Y0113424D01*
X0006994Y0113528D01*
X0007107Y0113630D01*
X0007223Y0113729D01*
X0007341Y0113825D01*
X0007461Y0113918D01*
X0007584Y0114008D01*
X0007709Y0114094D01*
X0007836Y0114177D01*
X0007966Y0114257D01*
X0008097Y0114334D01*
X0008230Y0114407D01*
X0008365Y0114477D01*
X0008502Y0114543D01*
X0008641Y0114606D01*
X0008781Y0114665D01*
X0008923Y0114720D01*
X0009066Y0114772D01*
X0009210Y0114820D01*
X0009355Y0114865D01*
X0009502Y0114905D01*
X0009649Y0114942D01*
X0009798Y0114975D01*
X0009947Y0115004D01*
X0010097Y0115030D01*
X0010248Y0115051D01*
X0010399Y0115069D01*
X0010550Y0115082D01*
X0010702Y0115092D01*
X0010854Y0115098D01*
X0011006Y0115100D01*
X0079194Y0115100D01*
X0079346Y0115098D01*
X0079498Y0115092D01*
X0079650Y0115082D01*
X0079801Y0115069D01*
X0079952Y0115051D01*
X0080103Y0115030D01*
X0080253Y0115004D01*
X0080402Y0114975D01*
X0080551Y0114942D01*
X0080698Y0114905D01*
X0080845Y0114865D01*
X0080990Y0114820D01*
X0081134Y0114772D01*
X0081277Y0114720D01*
X0081419Y0114665D01*
X0081559Y0114606D01*
X0081698Y0114543D01*
X0081835Y0114477D01*
X0081970Y0114407D01*
X0082103Y0114334D01*
X0082234Y0114257D01*
X0082364Y0114177D01*
X0082491Y0114094D01*
X0082616Y0114008D01*
X0082739Y0113918D01*
X0082859Y0113825D01*
X0082977Y0113729D01*
X0083093Y0113630D01*
X0083206Y0113528D01*
X0083316Y0113424D01*
X0083424Y0113316D01*
X0083528Y0113206D01*
X0083630Y0113093D01*
X0083729Y0112977D01*
X0083825Y0112859D01*
X0083918Y0112739D01*
X0084008Y0112616D01*
X0084094Y0112491D01*
X0084177Y0112364D01*
X0084257Y0112234D01*
X0084334Y0112103D01*
X0084407Y0111970D01*
X0084477Y0111835D01*
X0084543Y0111698D01*
X0084606Y0111559D01*
X0084665Y0111419D01*
X0084720Y0111277D01*
X0084772Y0111134D01*
X0084820Y0110990D01*
X0084865Y0110845D01*
X0084905Y0110698D01*
X0084942Y0110551D01*
X0084975Y0110402D01*
X0085004Y0110253D01*
X0085030Y0110103D01*
X0085051Y0109952D01*
X0085069Y0109801D01*
X0085082Y0109650D01*
X0085092Y0109498D01*
X0085098Y0109346D01*
X0085100Y0109194D01*
X0085100Y0096006D01*
X0085102Y0095854D01*
X0085108Y0095702D01*
X0085118Y0095550D01*
X0085131Y0095399D01*
X0085149Y0095248D01*
X0085170Y0095097D01*
X0085196Y0094947D01*
X0085225Y0094798D01*
X0085258Y0094649D01*
X0085295Y0094502D01*
X0085335Y0094355D01*
X0085380Y0094210D01*
X0085428Y0094066D01*
X0085480Y0093923D01*
X0085535Y0093781D01*
X0085594Y0093641D01*
X0085657Y0093502D01*
X0085723Y0093365D01*
X0085793Y0093230D01*
X0085866Y0093097D01*
X0085943Y0092966D01*
X0086023Y0092836D01*
X0086106Y0092709D01*
X0086192Y0092584D01*
X0086282Y0092461D01*
X0086375Y0092341D01*
X0086471Y0092223D01*
X0086570Y0092107D01*
X0086672Y0091994D01*
X0086776Y0091884D01*
X0086884Y0091776D01*
X0086994Y0091672D01*
X0087107Y0091570D01*
X0087223Y0091471D01*
X0087341Y0091375D01*
X0087461Y0091282D01*
X0087584Y0091192D01*
X0087709Y0091106D01*
X0087836Y0091023D01*
X0087966Y0090943D01*
X0088097Y0090866D01*
X0088230Y0090793D01*
X0088365Y0090723D01*
X0088502Y0090657D01*
X0088641Y0090594D01*
X0088781Y0090535D01*
X0088923Y0090480D01*
X0089066Y0090428D01*
X0089210Y0090380D01*
X0089355Y0090335D01*
X0089502Y0090295D01*
X0089649Y0090258D01*
X0089798Y0090225D01*
X0089947Y0090196D01*
X0090097Y0090170D01*
X0090248Y0090149D01*
X0090399Y0090131D01*
X0090550Y0090118D01*
X0090702Y0090108D01*
X0090854Y0090102D01*
X0091006Y0090100D01*
X0239194Y0090100D01*
X0239346Y0090102D01*
X0239498Y0090108D01*
X0239650Y0090118D01*
X0239801Y0090131D01*
X0239952Y0090149D01*
X0240103Y0090170D01*
X0240253Y0090196D01*
X0240402Y0090225D01*
X0240551Y0090258D01*
X0240698Y0090295D01*
X0240845Y0090335D01*
X0240990Y0090380D01*
X0241134Y0090428D01*
X0241277Y0090480D01*
X0241419Y0090535D01*
X0241559Y0090594D01*
X0241698Y0090657D01*
X0241835Y0090723D01*
X0241970Y0090793D01*
X0242103Y0090866D01*
X0242234Y0090943D01*
X0242364Y0091023D01*
X0242491Y0091106D01*
X0242616Y0091192D01*
X0242739Y0091282D01*
X0242859Y0091375D01*
X0242977Y0091471D01*
X0243093Y0091570D01*
X0243206Y0091672D01*
X0243316Y0091776D01*
X0243424Y0091884D01*
X0243528Y0091994D01*
X0243630Y0092107D01*
X0243729Y0092223D01*
X0243825Y0092341D01*
X0243918Y0092461D01*
X0244008Y0092584D01*
X0244094Y0092709D01*
X0244177Y0092836D01*
X0244257Y0092966D01*
X0244334Y0093097D01*
X0244407Y0093230D01*
X0244477Y0093365D01*
X0244543Y0093502D01*
X0244606Y0093641D01*
X0244665Y0093781D01*
X0244720Y0093923D01*
X0244772Y0094066D01*
X0244820Y0094210D01*
X0244865Y0094355D01*
X0244905Y0094502D01*
X0244942Y0094649D01*
X0244975Y0094798D01*
X0245004Y0094947D01*
X0245030Y0095097D01*
X0245051Y0095248D01*
X0245069Y0095399D01*
X0245082Y0095550D01*
X0245092Y0095702D01*
X0245098Y0095854D01*
X0245100Y0096006D01*
X0245100Y0109194D01*
X0245102Y0109346D01*
X0245108Y0109498D01*
X0245118Y0109650D01*
X0245131Y0109801D01*
X0245149Y0109952D01*
X0245170Y0110103D01*
X0245196Y0110253D01*
X0245225Y0110402D01*
X0245258Y0110551D01*
X0245295Y0110698D01*
X0245335Y0110845D01*
X0245380Y0110990D01*
X0245428Y0111134D01*
X0245480Y0111277D01*
X0245535Y0111419D01*
X0245594Y0111559D01*
X0245657Y0111698D01*
X0245723Y0111835D01*
X0245793Y0111970D01*
X0245866Y0112103D01*
X0245943Y0112234D01*
X0246023Y0112364D01*
X0246106Y0112491D01*
X0246192Y0112616D01*
X0246282Y0112739D01*
X0246375Y0112859D01*
X0246471Y0112977D01*
X0246570Y0113093D01*
X0246672Y0113206D01*
X0246776Y0113316D01*
X0246884Y0113424D01*
X0246994Y0113528D01*
X0247107Y0113630D01*
X0247223Y0113729D01*
X0247341Y0113825D01*
X0247461Y0113918D01*
X0247584Y0114008D01*
X0247709Y0114094D01*
X0247836Y0114177D01*
X0247966Y0114257D01*
X0248097Y0114334D01*
X0248230Y0114407D01*
X0248365Y0114477D01*
X0248502Y0114543D01*
X0248641Y0114606D01*
X0248781Y0114665D01*
X0248923Y0114720D01*
X0249066Y0114772D01*
X0249210Y0114820D01*
X0249355Y0114865D01*
X0249502Y0114905D01*
X0249649Y0114942D01*
X0249798Y0114975D01*
X0249947Y0115004D01*
X0250097Y0115030D01*
X0250248Y0115051D01*
X0250399Y0115069D01*
X0250550Y0115082D01*
X0250702Y0115092D01*
X0250854Y0115098D01*
X0251006Y0115100D01*
X0319194Y0115100D01*
X0319346Y0115098D01*
X0319498Y0115092D01*
X0319650Y0115082D01*
X0319801Y0115069D01*
X0319952Y0115051D01*
X0320103Y0115030D01*
X0320253Y0115004D01*
X0320402Y0114975D01*
X0320551Y0114942D01*
X0320698Y0114905D01*
X0320845Y0114865D01*
X0320990Y0114820D01*
X0321134Y0114772D01*
X0321277Y0114720D01*
X0321419Y0114665D01*
X0321559Y0114606D01*
X0321698Y0114543D01*
X0321835Y0114477D01*
X0321970Y0114407D01*
X0322103Y0114334D01*
X0322234Y0114257D01*
X0322364Y0114177D01*
X0322491Y0114094D01*
X0322616Y0114008D01*
X0322739Y0113918D01*
X0322859Y0113825D01*
X0322977Y0113729D01*
X0323093Y0113630D01*
X0323206Y0113528D01*
X0323316Y0113424D01*
X0323424Y0113316D01*
X0323528Y0113206D01*
X0323630Y0113093D01*
X0323729Y0112977D01*
X0323825Y0112859D01*
X0323918Y0112739D01*
X0324008Y0112616D01*
X0324094Y0112491D01*
X0324177Y0112364D01*
X0324257Y0112234D01*
X0324334Y0112103D01*
X0324407Y0111970D01*
X0324477Y0111835D01*
X0324543Y0111698D01*
X0324606Y0111559D01*
X0324665Y0111419D01*
X0324720Y0111277D01*
X0324772Y0111134D01*
X0324820Y0110990D01*
X0324865Y0110845D01*
X0324905Y0110698D01*
X0324942Y0110551D01*
X0324975Y0110402D01*
X0325004Y0110253D01*
X0325030Y0110103D01*
X0325051Y0109952D01*
X0325069Y0109801D01*
X0325082Y0109650D01*
X0325092Y0109498D01*
X0325098Y0109346D01*
X0325100Y0109194D01*
X0325100Y0057546D01*
X0325098Y0057396D01*
X0325092Y0057247D01*
X0325083Y0057098D01*
X0325070Y0056949D01*
X0325053Y0056800D01*
X0325032Y0056652D01*
X0325007Y0056504D01*
X0324979Y0056357D01*
X0324947Y0056211D01*
X0324911Y0056066D01*
X0324872Y0055921D01*
X0324829Y0055778D01*
X0324783Y0055636D01*
X0324732Y0055495D01*
X0324679Y0055355D01*
X0324621Y0055217D01*
X0324561Y0055080D01*
X0324496Y0054945D01*
X0324429Y0054812D01*
X0324358Y0054680D01*
X0324284Y0054550D01*
X0324206Y0054422D01*
X0324125Y0054296D01*
X0324041Y0054172D01*
X0323954Y0054050D01*
X0323864Y0053931D01*
X0323771Y0053814D01*
X0323675Y0053699D01*
X0323576Y0053587D01*
X0323475Y0053477D01*
X0323370Y0053370D01*
X0276830Y0006830D01*
X0272654Y0005100D02*
X0057546Y0005100D01*
X0057396Y0005102D01*
X0057247Y0005108D01*
X0057098Y0005117D01*
X0056949Y0005130D01*
X0056800Y0005147D01*
X0056652Y0005168D01*
X0056504Y0005193D01*
X0056357Y0005221D01*
X0056211Y0005253D01*
X0056066Y0005289D01*
X0055921Y0005328D01*
X0055778Y0005371D01*
X0055636Y0005417D01*
X0055495Y0005468D01*
X0055355Y0005521D01*
X0055217Y0005579D01*
X0055080Y0005639D01*
X0054945Y0005704D01*
X0054812Y0005771D01*
X0054680Y0005842D01*
X0054550Y0005916D01*
X0054422Y0005994D01*
X0054296Y0006075D01*
X0054172Y0006159D01*
X0054050Y0006246D01*
X0053931Y0006336D01*
X0053814Y0006429D01*
X0053699Y0006525D01*
X0053587Y0006624D01*
X0053477Y0006725D01*
X0053370Y0006830D01*
X0006829Y0053370D02*
X0006724Y0053477D01*
X0006623Y0053587D01*
X0006524Y0053699D01*
X0006428Y0053814D01*
X0006335Y0053931D01*
X0006245Y0054050D01*
X0006158Y0054172D01*
X0006074Y0054296D01*
X0005993Y0054422D01*
X0005915Y0054550D01*
X0005841Y0054680D01*
X0005770Y0054812D01*
X0005703Y0054945D01*
X0005638Y0055080D01*
X0005578Y0055217D01*
X0005520Y0055355D01*
X0005467Y0055495D01*
X0005416Y0055636D01*
X0005370Y0055778D01*
X0005327Y0055921D01*
X0005288Y0056066D01*
X0005252Y0056211D01*
X0005220Y0056357D01*
X0005192Y0056504D01*
X0005167Y0056652D01*
X0005146Y0056800D01*
X0005129Y0056949D01*
X0005116Y0057098D01*
X0005107Y0057247D01*
X0005101Y0057396D01*
X0005099Y0057546D01*
X0272654Y0005099D02*
X0272804Y0005101D01*
X0272953Y0005107D01*
X0273102Y0005116D01*
X0273251Y0005129D01*
X0273400Y0005146D01*
X0273548Y0005167D01*
X0273696Y0005192D01*
X0273843Y0005220D01*
X0273989Y0005252D01*
X0274134Y0005288D01*
X0274279Y0005327D01*
X0274422Y0005370D01*
X0274564Y0005416D01*
X0274705Y0005467D01*
X0274845Y0005520D01*
X0274983Y0005578D01*
X0275120Y0005638D01*
X0275255Y0005703D01*
X0275388Y0005770D01*
X0275520Y0005841D01*
X0275650Y0005915D01*
X0275778Y0005993D01*
X0275904Y0006074D01*
X0276028Y0006158D01*
X0276150Y0006245D01*
X0276269Y0006335D01*
X0276386Y0006428D01*
X0276501Y0006524D01*
X0276613Y0006623D01*
X0276723Y0006724D01*
X0276830Y0006829D01*
D12*
X0175100Y0019569D02*
X0175100Y0035819D01*
X0155100Y0035819D01*
X0155100Y0019569D01*
X0165100Y0009569D02*
X0165342Y0009572D01*
X0165583Y0009581D01*
X0165824Y0009595D01*
X0166065Y0009616D01*
X0166305Y0009642D01*
X0166545Y0009674D01*
X0166784Y0009712D01*
X0167021Y0009755D01*
X0167258Y0009805D01*
X0167493Y0009860D01*
X0167727Y0009920D01*
X0167959Y0009987D01*
X0168190Y0010058D01*
X0168419Y0010136D01*
X0168646Y0010219D01*
X0168871Y0010307D01*
X0169094Y0010401D01*
X0169314Y0010500D01*
X0169532Y0010605D01*
X0169747Y0010714D01*
X0169960Y0010829D01*
X0170170Y0010949D01*
X0170376Y0011074D01*
X0170580Y0011204D01*
X0170781Y0011339D01*
X0170978Y0011479D01*
X0171172Y0011623D01*
X0171362Y0011772D01*
X0171548Y0011926D01*
X0171731Y0012084D01*
X0171910Y0012246D01*
X0172085Y0012413D01*
X0172256Y0012584D01*
X0172423Y0012759D01*
X0172585Y0012938D01*
X0172743Y0013121D01*
X0172897Y0013307D01*
X0173046Y0013497D01*
X0173190Y0013691D01*
X0173330Y0013888D01*
X0173465Y0014089D01*
X0173595Y0014293D01*
X0173720Y0014499D01*
X0173840Y0014709D01*
X0173955Y0014922D01*
X0174064Y0015137D01*
X0174169Y0015355D01*
X0174268Y0015575D01*
X0174362Y0015798D01*
X0174450Y0016023D01*
X0174533Y0016250D01*
X0174611Y0016479D01*
X0174682Y0016710D01*
X0174749Y0016942D01*
X0174809Y0017176D01*
X0174864Y0017411D01*
X0174914Y0017648D01*
X0174957Y0017885D01*
X0174995Y0018124D01*
X0175027Y0018364D01*
X0175053Y0018604D01*
X0175074Y0018845D01*
X0175088Y0019086D01*
X0175097Y0019327D01*
X0175100Y0019569D01*
X0165100Y0009569D02*
X0164858Y0009572D01*
X0164617Y0009581D01*
X0164376Y0009595D01*
X0164135Y0009616D01*
X0163895Y0009642D01*
X0163655Y0009674D01*
X0163416Y0009712D01*
X0163179Y0009755D01*
X0162942Y0009805D01*
X0162707Y0009860D01*
X0162473Y0009920D01*
X0162241Y0009987D01*
X0162010Y0010058D01*
X0161781Y0010136D01*
X0161554Y0010219D01*
X0161329Y0010307D01*
X0161106Y0010401D01*
X0160886Y0010500D01*
X0160668Y0010605D01*
X0160453Y0010714D01*
X0160240Y0010829D01*
X0160030Y0010949D01*
X0159824Y0011074D01*
X0159620Y0011204D01*
X0159419Y0011339D01*
X0159222Y0011479D01*
X0159028Y0011623D01*
X0158838Y0011772D01*
X0158652Y0011926D01*
X0158469Y0012084D01*
X0158290Y0012246D01*
X0158115Y0012413D01*
X0157944Y0012584D01*
X0157777Y0012759D01*
X0157615Y0012938D01*
X0157457Y0013121D01*
X0157303Y0013307D01*
X0157154Y0013497D01*
X0157010Y0013691D01*
X0156870Y0013888D01*
X0156735Y0014089D01*
X0156605Y0014293D01*
X0156480Y0014499D01*
X0156360Y0014709D01*
X0156245Y0014922D01*
X0156136Y0015137D01*
X0156031Y0015355D01*
X0155932Y0015575D01*
X0155838Y0015798D01*
X0155750Y0016023D01*
X0155667Y0016250D01*
X0155589Y0016479D01*
X0155518Y0016710D01*
X0155451Y0016942D01*
X0155391Y0017176D01*
X0155336Y0017411D01*
X0155286Y0017648D01*
X0155243Y0017885D01*
X0155205Y0018124D01*
X0155173Y0018364D01*
X0155147Y0018604D01*
X0155126Y0018845D01*
X0155112Y0019086D01*
X0155103Y0019327D01*
X0155100Y0019569D01*
X0155100Y0035819D02*
X0152600Y0035819D01*
X0152600Y0039569D01*
X0155100Y0039569D01*
X0160100Y0039569D01*
X0170100Y0039569D01*
X0170100Y0059569D01*
X0166564Y0059569D02*
X0166566Y0059688D01*
X0166572Y0059806D01*
X0166582Y0059925D01*
X0166596Y0060043D01*
X0166614Y0060160D01*
X0166636Y0060277D01*
X0166661Y0060393D01*
X0166691Y0060508D01*
X0166724Y0060622D01*
X0166762Y0060735D01*
X0166803Y0060846D01*
X0166848Y0060956D01*
X0166896Y0061065D01*
X0166948Y0061172D01*
X0167004Y0061277D01*
X0167063Y0061380D01*
X0167125Y0061481D01*
X0167191Y0061580D01*
X0167260Y0061676D01*
X0167333Y0061770D01*
X0167408Y0061862D01*
X0167487Y0061951D01*
X0167568Y0062038D01*
X0167653Y0062121D01*
X0167740Y0062202D01*
X0167830Y0062280D01*
X0167922Y0062355D01*
X0168017Y0062426D01*
X0168114Y0062495D01*
X0168213Y0062560D01*
X0168315Y0062621D01*
X0168418Y0062680D01*
X0168524Y0062734D01*
X0168631Y0062785D01*
X0168740Y0062833D01*
X0168850Y0062877D01*
X0168962Y0062917D01*
X0169075Y0062953D01*
X0169190Y0062986D01*
X0169305Y0063014D01*
X0169421Y0063039D01*
X0169538Y0063060D01*
X0169656Y0063077D01*
X0169774Y0063090D01*
X0169892Y0063099D01*
X0170011Y0063104D01*
X0170130Y0063105D01*
X0170248Y0063102D01*
X0170367Y0063095D01*
X0170485Y0063084D01*
X0170603Y0063069D01*
X0170721Y0063050D01*
X0170837Y0063027D01*
X0170953Y0063001D01*
X0171068Y0062970D01*
X0171181Y0062936D01*
X0171294Y0062897D01*
X0171405Y0062855D01*
X0171515Y0062810D01*
X0171623Y0062760D01*
X0171729Y0062707D01*
X0171834Y0062651D01*
X0171936Y0062591D01*
X0172037Y0062528D01*
X0172135Y0062461D01*
X0172231Y0062391D01*
X0172325Y0062318D01*
X0172416Y0062241D01*
X0172504Y0062162D01*
X0172590Y0062080D01*
X0172673Y0061995D01*
X0172753Y0061907D01*
X0172830Y0061817D01*
X0172904Y0061724D01*
X0172975Y0061628D01*
X0173042Y0061530D01*
X0173106Y0061430D01*
X0173167Y0061328D01*
X0173225Y0061224D01*
X0173278Y0061118D01*
X0173329Y0061011D01*
X0173375Y0060902D01*
X0173418Y0060791D01*
X0173457Y0060679D01*
X0173493Y0060565D01*
X0173524Y0060451D01*
X0173552Y0060335D01*
X0173576Y0060219D01*
X0173596Y0060102D01*
X0173612Y0059984D01*
X0173624Y0059866D01*
X0173632Y0059747D01*
X0173636Y0059628D01*
X0173636Y0059510D01*
X0173632Y0059391D01*
X0173624Y0059272D01*
X0173612Y0059154D01*
X0173596Y0059036D01*
X0173576Y0058919D01*
X0173552Y0058803D01*
X0173524Y0058687D01*
X0173493Y0058573D01*
X0173457Y0058459D01*
X0173418Y0058347D01*
X0173375Y0058236D01*
X0173329Y0058127D01*
X0173278Y0058020D01*
X0173225Y0057914D01*
X0173167Y0057810D01*
X0173106Y0057708D01*
X0173042Y0057608D01*
X0172975Y0057510D01*
X0172904Y0057414D01*
X0172830Y0057321D01*
X0172753Y0057231D01*
X0172673Y0057143D01*
X0172590Y0057058D01*
X0172504Y0056976D01*
X0172416Y0056897D01*
X0172325Y0056820D01*
X0172231Y0056747D01*
X0172135Y0056677D01*
X0172037Y0056610D01*
X0171936Y0056547D01*
X0171834Y0056487D01*
X0171729Y0056431D01*
X0171623Y0056378D01*
X0171515Y0056328D01*
X0171405Y0056283D01*
X0171294Y0056241D01*
X0171181Y0056202D01*
X0171068Y0056168D01*
X0170953Y0056137D01*
X0170837Y0056111D01*
X0170721Y0056088D01*
X0170603Y0056069D01*
X0170485Y0056054D01*
X0170367Y0056043D01*
X0170248Y0056036D01*
X0170130Y0056033D01*
X0170011Y0056034D01*
X0169892Y0056039D01*
X0169774Y0056048D01*
X0169656Y0056061D01*
X0169538Y0056078D01*
X0169421Y0056099D01*
X0169305Y0056124D01*
X0169190Y0056152D01*
X0169075Y0056185D01*
X0168962Y0056221D01*
X0168850Y0056261D01*
X0168740Y0056305D01*
X0168631Y0056353D01*
X0168524Y0056404D01*
X0168418Y0056458D01*
X0168315Y0056517D01*
X0168213Y0056578D01*
X0168114Y0056643D01*
X0168017Y0056712D01*
X0167922Y0056783D01*
X0167830Y0056858D01*
X0167740Y0056936D01*
X0167653Y0057017D01*
X0167568Y0057100D01*
X0167487Y0057187D01*
X0167408Y0057276D01*
X0167333Y0057368D01*
X0167260Y0057462D01*
X0167191Y0057558D01*
X0167125Y0057657D01*
X0167063Y0057758D01*
X0167004Y0057861D01*
X0166948Y0057966D01*
X0166896Y0058073D01*
X0166848Y0058182D01*
X0166803Y0058292D01*
X0166762Y0058403D01*
X0166724Y0058516D01*
X0166691Y0058630D01*
X0166661Y0058745D01*
X0166636Y0058861D01*
X0166614Y0058978D01*
X0166596Y0059095D01*
X0166582Y0059213D01*
X0166572Y0059332D01*
X0166566Y0059450D01*
X0166564Y0059569D01*
X0156564Y0059569D02*
X0156566Y0059688D01*
X0156572Y0059806D01*
X0156582Y0059925D01*
X0156596Y0060043D01*
X0156614Y0060160D01*
X0156636Y0060277D01*
X0156661Y0060393D01*
X0156691Y0060508D01*
X0156724Y0060622D01*
X0156762Y0060735D01*
X0156803Y0060846D01*
X0156848Y0060956D01*
X0156896Y0061065D01*
X0156948Y0061172D01*
X0157004Y0061277D01*
X0157063Y0061380D01*
X0157125Y0061481D01*
X0157191Y0061580D01*
X0157260Y0061676D01*
X0157333Y0061770D01*
X0157408Y0061862D01*
X0157487Y0061951D01*
X0157568Y0062038D01*
X0157653Y0062121D01*
X0157740Y0062202D01*
X0157830Y0062280D01*
X0157922Y0062355D01*
X0158017Y0062426D01*
X0158114Y0062495D01*
X0158213Y0062560D01*
X0158315Y0062621D01*
X0158418Y0062680D01*
X0158524Y0062734D01*
X0158631Y0062785D01*
X0158740Y0062833D01*
X0158850Y0062877D01*
X0158962Y0062917D01*
X0159075Y0062953D01*
X0159190Y0062986D01*
X0159305Y0063014D01*
X0159421Y0063039D01*
X0159538Y0063060D01*
X0159656Y0063077D01*
X0159774Y0063090D01*
X0159892Y0063099D01*
X0160011Y0063104D01*
X0160130Y0063105D01*
X0160248Y0063102D01*
X0160367Y0063095D01*
X0160485Y0063084D01*
X0160603Y0063069D01*
X0160721Y0063050D01*
X0160837Y0063027D01*
X0160953Y0063001D01*
X0161068Y0062970D01*
X0161181Y0062936D01*
X0161294Y0062897D01*
X0161405Y0062855D01*
X0161515Y0062810D01*
X0161623Y0062760D01*
X0161729Y0062707D01*
X0161834Y0062651D01*
X0161936Y0062591D01*
X0162037Y0062528D01*
X0162135Y0062461D01*
X0162231Y0062391D01*
X0162325Y0062318D01*
X0162416Y0062241D01*
X0162504Y0062162D01*
X0162590Y0062080D01*
X0162673Y0061995D01*
X0162753Y0061907D01*
X0162830Y0061817D01*
X0162904Y0061724D01*
X0162975Y0061628D01*
X0163042Y0061530D01*
X0163106Y0061430D01*
X0163167Y0061328D01*
X0163225Y0061224D01*
X0163278Y0061118D01*
X0163329Y0061011D01*
X0163375Y0060902D01*
X0163418Y0060791D01*
X0163457Y0060679D01*
X0163493Y0060565D01*
X0163524Y0060451D01*
X0163552Y0060335D01*
X0163576Y0060219D01*
X0163596Y0060102D01*
X0163612Y0059984D01*
X0163624Y0059866D01*
X0163632Y0059747D01*
X0163636Y0059628D01*
X0163636Y0059510D01*
X0163632Y0059391D01*
X0163624Y0059272D01*
X0163612Y0059154D01*
X0163596Y0059036D01*
X0163576Y0058919D01*
X0163552Y0058803D01*
X0163524Y0058687D01*
X0163493Y0058573D01*
X0163457Y0058459D01*
X0163418Y0058347D01*
X0163375Y0058236D01*
X0163329Y0058127D01*
X0163278Y0058020D01*
X0163225Y0057914D01*
X0163167Y0057810D01*
X0163106Y0057708D01*
X0163042Y0057608D01*
X0162975Y0057510D01*
X0162904Y0057414D01*
X0162830Y0057321D01*
X0162753Y0057231D01*
X0162673Y0057143D01*
X0162590Y0057058D01*
X0162504Y0056976D01*
X0162416Y0056897D01*
X0162325Y0056820D01*
X0162231Y0056747D01*
X0162135Y0056677D01*
X0162037Y0056610D01*
X0161936Y0056547D01*
X0161834Y0056487D01*
X0161729Y0056431D01*
X0161623Y0056378D01*
X0161515Y0056328D01*
X0161405Y0056283D01*
X0161294Y0056241D01*
X0161181Y0056202D01*
X0161068Y0056168D01*
X0160953Y0056137D01*
X0160837Y0056111D01*
X0160721Y0056088D01*
X0160603Y0056069D01*
X0160485Y0056054D01*
X0160367Y0056043D01*
X0160248Y0056036D01*
X0160130Y0056033D01*
X0160011Y0056034D01*
X0159892Y0056039D01*
X0159774Y0056048D01*
X0159656Y0056061D01*
X0159538Y0056078D01*
X0159421Y0056099D01*
X0159305Y0056124D01*
X0159190Y0056152D01*
X0159075Y0056185D01*
X0158962Y0056221D01*
X0158850Y0056261D01*
X0158740Y0056305D01*
X0158631Y0056353D01*
X0158524Y0056404D01*
X0158418Y0056458D01*
X0158315Y0056517D01*
X0158213Y0056578D01*
X0158114Y0056643D01*
X0158017Y0056712D01*
X0157922Y0056783D01*
X0157830Y0056858D01*
X0157740Y0056936D01*
X0157653Y0057017D01*
X0157568Y0057100D01*
X0157487Y0057187D01*
X0157408Y0057276D01*
X0157333Y0057368D01*
X0157260Y0057462D01*
X0157191Y0057558D01*
X0157125Y0057657D01*
X0157063Y0057758D01*
X0157004Y0057861D01*
X0156948Y0057966D01*
X0156896Y0058073D01*
X0156848Y0058182D01*
X0156803Y0058292D01*
X0156762Y0058403D01*
X0156724Y0058516D01*
X0156691Y0058630D01*
X0156661Y0058745D01*
X0156636Y0058861D01*
X0156614Y0058978D01*
X0156596Y0059095D01*
X0156582Y0059213D01*
X0156572Y0059332D01*
X0156566Y0059450D01*
X0156564Y0059569D01*
X0160100Y0059569D02*
X0160100Y0039569D01*
X0170100Y0039569D01*
X0175100Y0039569D01*
X0175100Y0035819D01*
X0283671Y0064275D02*
X0284921Y0066440D01*
X0287421Y0070770D01*
X0292421Y0079430D01*
X0275100Y0089430D01*
X0271564Y0089430D02*
X0271566Y0089549D01*
X0271572Y0089667D01*
X0271582Y0089786D01*
X0271596Y0089904D01*
X0271614Y0090021D01*
X0271636Y0090138D01*
X0271661Y0090254D01*
X0271691Y0090369D01*
X0271724Y0090483D01*
X0271762Y0090596D01*
X0271803Y0090707D01*
X0271848Y0090817D01*
X0271896Y0090926D01*
X0271948Y0091033D01*
X0272004Y0091138D01*
X0272063Y0091241D01*
X0272125Y0091342D01*
X0272191Y0091441D01*
X0272260Y0091537D01*
X0272333Y0091631D01*
X0272408Y0091723D01*
X0272487Y0091812D01*
X0272568Y0091899D01*
X0272653Y0091982D01*
X0272740Y0092063D01*
X0272830Y0092141D01*
X0272922Y0092216D01*
X0273017Y0092287D01*
X0273114Y0092356D01*
X0273213Y0092421D01*
X0273315Y0092482D01*
X0273418Y0092541D01*
X0273524Y0092595D01*
X0273631Y0092646D01*
X0273740Y0092694D01*
X0273850Y0092738D01*
X0273962Y0092778D01*
X0274075Y0092814D01*
X0274190Y0092847D01*
X0274305Y0092875D01*
X0274421Y0092900D01*
X0274538Y0092921D01*
X0274656Y0092938D01*
X0274774Y0092951D01*
X0274892Y0092960D01*
X0275011Y0092965D01*
X0275130Y0092966D01*
X0275248Y0092963D01*
X0275367Y0092956D01*
X0275485Y0092945D01*
X0275603Y0092930D01*
X0275721Y0092911D01*
X0275837Y0092888D01*
X0275953Y0092862D01*
X0276068Y0092831D01*
X0276181Y0092797D01*
X0276294Y0092758D01*
X0276405Y0092716D01*
X0276515Y0092671D01*
X0276623Y0092621D01*
X0276729Y0092568D01*
X0276834Y0092512D01*
X0276936Y0092452D01*
X0277037Y0092389D01*
X0277135Y0092322D01*
X0277231Y0092252D01*
X0277325Y0092179D01*
X0277416Y0092102D01*
X0277504Y0092023D01*
X0277590Y0091941D01*
X0277673Y0091856D01*
X0277753Y0091768D01*
X0277830Y0091678D01*
X0277904Y0091585D01*
X0277975Y0091489D01*
X0278042Y0091391D01*
X0278106Y0091291D01*
X0278167Y0091189D01*
X0278225Y0091085D01*
X0278278Y0090979D01*
X0278329Y0090872D01*
X0278375Y0090763D01*
X0278418Y0090652D01*
X0278457Y0090540D01*
X0278493Y0090426D01*
X0278524Y0090312D01*
X0278552Y0090196D01*
X0278576Y0090080D01*
X0278596Y0089963D01*
X0278612Y0089845D01*
X0278624Y0089727D01*
X0278632Y0089608D01*
X0278636Y0089489D01*
X0278636Y0089371D01*
X0278632Y0089252D01*
X0278624Y0089133D01*
X0278612Y0089015D01*
X0278596Y0088897D01*
X0278576Y0088780D01*
X0278552Y0088664D01*
X0278524Y0088548D01*
X0278493Y0088434D01*
X0278457Y0088320D01*
X0278418Y0088208D01*
X0278375Y0088097D01*
X0278329Y0087988D01*
X0278278Y0087881D01*
X0278225Y0087775D01*
X0278167Y0087671D01*
X0278106Y0087569D01*
X0278042Y0087469D01*
X0277975Y0087371D01*
X0277904Y0087275D01*
X0277830Y0087182D01*
X0277753Y0087092D01*
X0277673Y0087004D01*
X0277590Y0086919D01*
X0277504Y0086837D01*
X0277416Y0086758D01*
X0277325Y0086681D01*
X0277231Y0086608D01*
X0277135Y0086538D01*
X0277037Y0086471D01*
X0276936Y0086408D01*
X0276834Y0086348D01*
X0276729Y0086292D01*
X0276623Y0086239D01*
X0276515Y0086189D01*
X0276405Y0086144D01*
X0276294Y0086102D01*
X0276181Y0086063D01*
X0276068Y0086029D01*
X0275953Y0085998D01*
X0275837Y0085972D01*
X0275721Y0085949D01*
X0275603Y0085930D01*
X0275485Y0085915D01*
X0275367Y0085904D01*
X0275248Y0085897D01*
X0275130Y0085894D01*
X0275011Y0085895D01*
X0274892Y0085900D01*
X0274774Y0085909D01*
X0274656Y0085922D01*
X0274538Y0085939D01*
X0274421Y0085960D01*
X0274305Y0085985D01*
X0274190Y0086013D01*
X0274075Y0086046D01*
X0273962Y0086082D01*
X0273850Y0086122D01*
X0273740Y0086166D01*
X0273631Y0086214D01*
X0273524Y0086265D01*
X0273418Y0086319D01*
X0273315Y0086378D01*
X0273213Y0086439D01*
X0273114Y0086504D01*
X0273017Y0086573D01*
X0272922Y0086644D01*
X0272830Y0086719D01*
X0272740Y0086797D01*
X0272653Y0086878D01*
X0272568Y0086961D01*
X0272487Y0087048D01*
X0272408Y0087137D01*
X0272333Y0087229D01*
X0272260Y0087323D01*
X0272191Y0087419D01*
X0272125Y0087518D01*
X0272063Y0087619D01*
X0272004Y0087722D01*
X0271948Y0087827D01*
X0271896Y0087934D01*
X0271848Y0088043D01*
X0271803Y0088153D01*
X0271762Y0088264D01*
X0271724Y0088377D01*
X0271691Y0088491D01*
X0271661Y0088606D01*
X0271636Y0088722D01*
X0271614Y0088839D01*
X0271596Y0088956D01*
X0271582Y0089074D01*
X0271572Y0089193D01*
X0271566Y0089311D01*
X0271564Y0089430D01*
X0266564Y0080770D02*
X0266566Y0080889D01*
X0266572Y0081007D01*
X0266582Y0081126D01*
X0266596Y0081244D01*
X0266614Y0081361D01*
X0266636Y0081478D01*
X0266661Y0081594D01*
X0266691Y0081709D01*
X0266724Y0081823D01*
X0266762Y0081936D01*
X0266803Y0082047D01*
X0266848Y0082157D01*
X0266896Y0082266D01*
X0266948Y0082373D01*
X0267004Y0082478D01*
X0267063Y0082581D01*
X0267125Y0082682D01*
X0267191Y0082781D01*
X0267260Y0082877D01*
X0267333Y0082971D01*
X0267408Y0083063D01*
X0267487Y0083152D01*
X0267568Y0083239D01*
X0267653Y0083322D01*
X0267740Y0083403D01*
X0267830Y0083481D01*
X0267922Y0083556D01*
X0268017Y0083627D01*
X0268114Y0083696D01*
X0268213Y0083761D01*
X0268315Y0083822D01*
X0268418Y0083881D01*
X0268524Y0083935D01*
X0268631Y0083986D01*
X0268740Y0084034D01*
X0268850Y0084078D01*
X0268962Y0084118D01*
X0269075Y0084154D01*
X0269190Y0084187D01*
X0269305Y0084215D01*
X0269421Y0084240D01*
X0269538Y0084261D01*
X0269656Y0084278D01*
X0269774Y0084291D01*
X0269892Y0084300D01*
X0270011Y0084305D01*
X0270130Y0084306D01*
X0270248Y0084303D01*
X0270367Y0084296D01*
X0270485Y0084285D01*
X0270603Y0084270D01*
X0270721Y0084251D01*
X0270837Y0084228D01*
X0270953Y0084202D01*
X0271068Y0084171D01*
X0271181Y0084137D01*
X0271294Y0084098D01*
X0271405Y0084056D01*
X0271515Y0084011D01*
X0271623Y0083961D01*
X0271729Y0083908D01*
X0271834Y0083852D01*
X0271936Y0083792D01*
X0272037Y0083729D01*
X0272135Y0083662D01*
X0272231Y0083592D01*
X0272325Y0083519D01*
X0272416Y0083442D01*
X0272504Y0083363D01*
X0272590Y0083281D01*
X0272673Y0083196D01*
X0272753Y0083108D01*
X0272830Y0083018D01*
X0272904Y0082925D01*
X0272975Y0082829D01*
X0273042Y0082731D01*
X0273106Y0082631D01*
X0273167Y0082529D01*
X0273225Y0082425D01*
X0273278Y0082319D01*
X0273329Y0082212D01*
X0273375Y0082103D01*
X0273418Y0081992D01*
X0273457Y0081880D01*
X0273493Y0081766D01*
X0273524Y0081652D01*
X0273552Y0081536D01*
X0273576Y0081420D01*
X0273596Y0081303D01*
X0273612Y0081185D01*
X0273624Y0081067D01*
X0273632Y0080948D01*
X0273636Y0080829D01*
X0273636Y0080711D01*
X0273632Y0080592D01*
X0273624Y0080473D01*
X0273612Y0080355D01*
X0273596Y0080237D01*
X0273576Y0080120D01*
X0273552Y0080004D01*
X0273524Y0079888D01*
X0273493Y0079774D01*
X0273457Y0079660D01*
X0273418Y0079548D01*
X0273375Y0079437D01*
X0273329Y0079328D01*
X0273278Y0079221D01*
X0273225Y0079115D01*
X0273167Y0079011D01*
X0273106Y0078909D01*
X0273042Y0078809D01*
X0272975Y0078711D01*
X0272904Y0078615D01*
X0272830Y0078522D01*
X0272753Y0078432D01*
X0272673Y0078344D01*
X0272590Y0078259D01*
X0272504Y0078177D01*
X0272416Y0078098D01*
X0272325Y0078021D01*
X0272231Y0077948D01*
X0272135Y0077878D01*
X0272037Y0077811D01*
X0271936Y0077748D01*
X0271834Y0077688D01*
X0271729Y0077632D01*
X0271623Y0077579D01*
X0271515Y0077529D01*
X0271405Y0077484D01*
X0271294Y0077442D01*
X0271181Y0077403D01*
X0271068Y0077369D01*
X0270953Y0077338D01*
X0270837Y0077312D01*
X0270721Y0077289D01*
X0270603Y0077270D01*
X0270485Y0077255D01*
X0270367Y0077244D01*
X0270248Y0077237D01*
X0270130Y0077234D01*
X0270011Y0077235D01*
X0269892Y0077240D01*
X0269774Y0077249D01*
X0269656Y0077262D01*
X0269538Y0077279D01*
X0269421Y0077300D01*
X0269305Y0077325D01*
X0269190Y0077353D01*
X0269075Y0077386D01*
X0268962Y0077422D01*
X0268850Y0077462D01*
X0268740Y0077506D01*
X0268631Y0077554D01*
X0268524Y0077605D01*
X0268418Y0077659D01*
X0268315Y0077718D01*
X0268213Y0077779D01*
X0268114Y0077844D01*
X0268017Y0077913D01*
X0267922Y0077984D01*
X0267830Y0078059D01*
X0267740Y0078137D01*
X0267653Y0078218D01*
X0267568Y0078301D01*
X0267487Y0078388D01*
X0267408Y0078477D01*
X0267333Y0078569D01*
X0267260Y0078663D01*
X0267191Y0078759D01*
X0267125Y0078858D01*
X0267063Y0078959D01*
X0267004Y0079062D01*
X0266948Y0079167D01*
X0266896Y0079274D01*
X0266848Y0079383D01*
X0266803Y0079493D01*
X0266762Y0079604D01*
X0266724Y0079717D01*
X0266691Y0079831D01*
X0266661Y0079946D01*
X0266636Y0080062D01*
X0266614Y0080179D01*
X0266596Y0080296D01*
X0266582Y0080414D01*
X0266572Y0080533D01*
X0266566Y0080651D01*
X0266564Y0080770D01*
X0270100Y0080770D02*
X0287421Y0070770D01*
X0292421Y0079430D01*
X0294921Y0083760D01*
X0298168Y0081885D01*
X0288168Y0064565D01*
X0302241Y0056440D01*
X0288168Y0064565D02*
X0286918Y0062400D01*
X0283671Y0064275D01*
X0312241Y0073760D02*
X0312449Y0073637D01*
X0312654Y0073509D01*
X0312855Y0073375D01*
X0313053Y0073237D01*
X0313248Y0073094D01*
X0313440Y0072947D01*
X0313628Y0072795D01*
X0313812Y0072638D01*
X0313992Y0072477D01*
X0314168Y0072312D01*
X0314340Y0072143D01*
X0314509Y0071969D01*
X0314672Y0071791D01*
X0314832Y0071610D01*
X0314987Y0071424D01*
X0315138Y0071235D01*
X0315284Y0071043D01*
X0315425Y0070847D01*
X0315561Y0070647D01*
X0315693Y0070445D01*
X0315820Y0070239D01*
X0315941Y0070030D01*
X0316058Y0069818D01*
X0316169Y0069604D01*
X0316276Y0069387D01*
X0316376Y0069167D01*
X0316472Y0068945D01*
X0316562Y0068721D01*
X0316647Y0068495D01*
X0316726Y0068267D01*
X0316800Y0068037D01*
X0316868Y0067805D01*
X0316931Y0067571D01*
X0316988Y0067336D01*
X0317039Y0067100D01*
X0317084Y0066863D01*
X0317124Y0066625D01*
X0317158Y0066385D01*
X0317186Y0066145D01*
X0317209Y0065905D01*
X0317225Y0065664D01*
X0317236Y0065422D01*
X0317241Y0065181D01*
X0317240Y0064939D01*
X0317233Y0064697D01*
X0317220Y0064456D01*
X0317202Y0064215D01*
X0317177Y0063975D01*
X0317147Y0063735D01*
X0317112Y0063496D01*
X0317070Y0063258D01*
X0317022Y0063021D01*
X0316969Y0062785D01*
X0316911Y0062551D01*
X0316846Y0062318D01*
X0316776Y0062087D01*
X0316701Y0061857D01*
X0316619Y0061629D01*
X0316533Y0061404D01*
X0316441Y0061180D01*
X0316343Y0060959D01*
X0316241Y0060740D01*
X0316133Y0060524D01*
X0316020Y0060311D01*
X0315901Y0060100D01*
X0315778Y0059892D01*
X0315650Y0059687D01*
X0315516Y0059486D01*
X0315378Y0059288D01*
X0315235Y0059093D01*
X0315088Y0058901D01*
X0314936Y0058713D01*
X0314779Y0058529D01*
X0314618Y0058349D01*
X0314453Y0058173D01*
X0314284Y0058001D01*
X0314110Y0057832D01*
X0313932Y0057669D01*
X0313751Y0057509D01*
X0313565Y0057354D01*
X0313376Y0057203D01*
X0313184Y0057057D01*
X0312988Y0056916D01*
X0312788Y0056780D01*
X0312586Y0056648D01*
X0312380Y0056521D01*
X0312171Y0056400D01*
X0311959Y0056283D01*
X0311745Y0056172D01*
X0311528Y0056065D01*
X0311308Y0055965D01*
X0311086Y0055869D01*
X0310862Y0055779D01*
X0310636Y0055694D01*
X0310408Y0055615D01*
X0310178Y0055541D01*
X0309946Y0055473D01*
X0309712Y0055410D01*
X0309477Y0055353D01*
X0309241Y0055302D01*
X0309004Y0055257D01*
X0308766Y0055217D01*
X0308526Y0055183D01*
X0308286Y0055155D01*
X0308046Y0055132D01*
X0307805Y0055116D01*
X0307563Y0055105D01*
X0307322Y0055100D01*
X0307080Y0055101D01*
X0306838Y0055108D01*
X0306597Y0055121D01*
X0306356Y0055139D01*
X0306116Y0055164D01*
X0305876Y0055194D01*
X0305637Y0055229D01*
X0305399Y0055271D01*
X0305162Y0055319D01*
X0304926Y0055372D01*
X0304692Y0055430D01*
X0304459Y0055495D01*
X0304228Y0055565D01*
X0303998Y0055640D01*
X0303770Y0055722D01*
X0303545Y0055808D01*
X0303321Y0055900D01*
X0303100Y0055998D01*
X0302881Y0056100D01*
X0302665Y0056208D01*
X0302452Y0056321D01*
X0302241Y0056440D01*
X0312241Y0073760D02*
X0298168Y0081885D01*
X0056564Y0080770D02*
X0056566Y0080889D01*
X0056572Y0081007D01*
X0056582Y0081126D01*
X0056596Y0081244D01*
X0056614Y0081361D01*
X0056636Y0081478D01*
X0056661Y0081594D01*
X0056691Y0081709D01*
X0056724Y0081823D01*
X0056762Y0081936D01*
X0056803Y0082047D01*
X0056848Y0082157D01*
X0056896Y0082266D01*
X0056948Y0082373D01*
X0057004Y0082478D01*
X0057063Y0082581D01*
X0057125Y0082682D01*
X0057191Y0082781D01*
X0057260Y0082877D01*
X0057333Y0082971D01*
X0057408Y0083063D01*
X0057487Y0083152D01*
X0057568Y0083239D01*
X0057653Y0083322D01*
X0057740Y0083403D01*
X0057830Y0083481D01*
X0057922Y0083556D01*
X0058017Y0083627D01*
X0058114Y0083696D01*
X0058213Y0083761D01*
X0058315Y0083822D01*
X0058418Y0083881D01*
X0058524Y0083935D01*
X0058631Y0083986D01*
X0058740Y0084034D01*
X0058850Y0084078D01*
X0058962Y0084118D01*
X0059075Y0084154D01*
X0059190Y0084187D01*
X0059305Y0084215D01*
X0059421Y0084240D01*
X0059538Y0084261D01*
X0059656Y0084278D01*
X0059774Y0084291D01*
X0059892Y0084300D01*
X0060011Y0084305D01*
X0060130Y0084306D01*
X0060248Y0084303D01*
X0060367Y0084296D01*
X0060485Y0084285D01*
X0060603Y0084270D01*
X0060721Y0084251D01*
X0060837Y0084228D01*
X0060953Y0084202D01*
X0061068Y0084171D01*
X0061181Y0084137D01*
X0061294Y0084098D01*
X0061405Y0084056D01*
X0061515Y0084011D01*
X0061623Y0083961D01*
X0061729Y0083908D01*
X0061834Y0083852D01*
X0061936Y0083792D01*
X0062037Y0083729D01*
X0062135Y0083662D01*
X0062231Y0083592D01*
X0062325Y0083519D01*
X0062416Y0083442D01*
X0062504Y0083363D01*
X0062590Y0083281D01*
X0062673Y0083196D01*
X0062753Y0083108D01*
X0062830Y0083018D01*
X0062904Y0082925D01*
X0062975Y0082829D01*
X0063042Y0082731D01*
X0063106Y0082631D01*
X0063167Y0082529D01*
X0063225Y0082425D01*
X0063278Y0082319D01*
X0063329Y0082212D01*
X0063375Y0082103D01*
X0063418Y0081992D01*
X0063457Y0081880D01*
X0063493Y0081766D01*
X0063524Y0081652D01*
X0063552Y0081536D01*
X0063576Y0081420D01*
X0063596Y0081303D01*
X0063612Y0081185D01*
X0063624Y0081067D01*
X0063632Y0080948D01*
X0063636Y0080829D01*
X0063636Y0080711D01*
X0063632Y0080592D01*
X0063624Y0080473D01*
X0063612Y0080355D01*
X0063596Y0080237D01*
X0063576Y0080120D01*
X0063552Y0080004D01*
X0063524Y0079888D01*
X0063493Y0079774D01*
X0063457Y0079660D01*
X0063418Y0079548D01*
X0063375Y0079437D01*
X0063329Y0079328D01*
X0063278Y0079221D01*
X0063225Y0079115D01*
X0063167Y0079011D01*
X0063106Y0078909D01*
X0063042Y0078809D01*
X0062975Y0078711D01*
X0062904Y0078615D01*
X0062830Y0078522D01*
X0062753Y0078432D01*
X0062673Y0078344D01*
X0062590Y0078259D01*
X0062504Y0078177D01*
X0062416Y0078098D01*
X0062325Y0078021D01*
X0062231Y0077948D01*
X0062135Y0077878D01*
X0062037Y0077811D01*
X0061936Y0077748D01*
X0061834Y0077688D01*
X0061729Y0077632D01*
X0061623Y0077579D01*
X0061515Y0077529D01*
X0061405Y0077484D01*
X0061294Y0077442D01*
X0061181Y0077403D01*
X0061068Y0077369D01*
X0060953Y0077338D01*
X0060837Y0077312D01*
X0060721Y0077289D01*
X0060603Y0077270D01*
X0060485Y0077255D01*
X0060367Y0077244D01*
X0060248Y0077237D01*
X0060130Y0077234D01*
X0060011Y0077235D01*
X0059892Y0077240D01*
X0059774Y0077249D01*
X0059656Y0077262D01*
X0059538Y0077279D01*
X0059421Y0077300D01*
X0059305Y0077325D01*
X0059190Y0077353D01*
X0059075Y0077386D01*
X0058962Y0077422D01*
X0058850Y0077462D01*
X0058740Y0077506D01*
X0058631Y0077554D01*
X0058524Y0077605D01*
X0058418Y0077659D01*
X0058315Y0077718D01*
X0058213Y0077779D01*
X0058114Y0077844D01*
X0058017Y0077913D01*
X0057922Y0077984D01*
X0057830Y0078059D01*
X0057740Y0078137D01*
X0057653Y0078218D01*
X0057568Y0078301D01*
X0057487Y0078388D01*
X0057408Y0078477D01*
X0057333Y0078569D01*
X0057260Y0078663D01*
X0057191Y0078759D01*
X0057125Y0078858D01*
X0057063Y0078959D01*
X0057004Y0079062D01*
X0056948Y0079167D01*
X0056896Y0079274D01*
X0056848Y0079383D01*
X0056803Y0079493D01*
X0056762Y0079604D01*
X0056724Y0079717D01*
X0056691Y0079831D01*
X0056661Y0079946D01*
X0056636Y0080062D01*
X0056614Y0080179D01*
X0056596Y0080296D01*
X0056582Y0080414D01*
X0056572Y0080533D01*
X0056566Y0080651D01*
X0056564Y0080770D01*
X0060100Y0080770D02*
X0042780Y0070770D01*
X0037780Y0079430D01*
X0055100Y0089430D01*
X0051564Y0089430D02*
X0051566Y0089549D01*
X0051572Y0089667D01*
X0051582Y0089786D01*
X0051596Y0089904D01*
X0051614Y0090021D01*
X0051636Y0090138D01*
X0051661Y0090254D01*
X0051691Y0090369D01*
X0051724Y0090483D01*
X0051762Y0090596D01*
X0051803Y0090707D01*
X0051848Y0090817D01*
X0051896Y0090926D01*
X0051948Y0091033D01*
X0052004Y0091138D01*
X0052063Y0091241D01*
X0052125Y0091342D01*
X0052191Y0091441D01*
X0052260Y0091537D01*
X0052333Y0091631D01*
X0052408Y0091723D01*
X0052487Y0091812D01*
X0052568Y0091899D01*
X0052653Y0091982D01*
X0052740Y0092063D01*
X0052830Y0092141D01*
X0052922Y0092216D01*
X0053017Y0092287D01*
X0053114Y0092356D01*
X0053213Y0092421D01*
X0053315Y0092482D01*
X0053418Y0092541D01*
X0053524Y0092595D01*
X0053631Y0092646D01*
X0053740Y0092694D01*
X0053850Y0092738D01*
X0053962Y0092778D01*
X0054075Y0092814D01*
X0054190Y0092847D01*
X0054305Y0092875D01*
X0054421Y0092900D01*
X0054538Y0092921D01*
X0054656Y0092938D01*
X0054774Y0092951D01*
X0054892Y0092960D01*
X0055011Y0092965D01*
X0055130Y0092966D01*
X0055248Y0092963D01*
X0055367Y0092956D01*
X0055485Y0092945D01*
X0055603Y0092930D01*
X0055721Y0092911D01*
X0055837Y0092888D01*
X0055953Y0092862D01*
X0056068Y0092831D01*
X0056181Y0092797D01*
X0056294Y0092758D01*
X0056405Y0092716D01*
X0056515Y0092671D01*
X0056623Y0092621D01*
X0056729Y0092568D01*
X0056834Y0092512D01*
X0056936Y0092452D01*
X0057037Y0092389D01*
X0057135Y0092322D01*
X0057231Y0092252D01*
X0057325Y0092179D01*
X0057416Y0092102D01*
X0057504Y0092023D01*
X0057590Y0091941D01*
X0057673Y0091856D01*
X0057753Y0091768D01*
X0057830Y0091678D01*
X0057904Y0091585D01*
X0057975Y0091489D01*
X0058042Y0091391D01*
X0058106Y0091291D01*
X0058167Y0091189D01*
X0058225Y0091085D01*
X0058278Y0090979D01*
X0058329Y0090872D01*
X0058375Y0090763D01*
X0058418Y0090652D01*
X0058457Y0090540D01*
X0058493Y0090426D01*
X0058524Y0090312D01*
X0058552Y0090196D01*
X0058576Y0090080D01*
X0058596Y0089963D01*
X0058612Y0089845D01*
X0058624Y0089727D01*
X0058632Y0089608D01*
X0058636Y0089489D01*
X0058636Y0089371D01*
X0058632Y0089252D01*
X0058624Y0089133D01*
X0058612Y0089015D01*
X0058596Y0088897D01*
X0058576Y0088780D01*
X0058552Y0088664D01*
X0058524Y0088548D01*
X0058493Y0088434D01*
X0058457Y0088320D01*
X0058418Y0088208D01*
X0058375Y0088097D01*
X0058329Y0087988D01*
X0058278Y0087881D01*
X0058225Y0087775D01*
X0058167Y0087671D01*
X0058106Y0087569D01*
X0058042Y0087469D01*
X0057975Y0087371D01*
X0057904Y0087275D01*
X0057830Y0087182D01*
X0057753Y0087092D01*
X0057673Y0087004D01*
X0057590Y0086919D01*
X0057504Y0086837D01*
X0057416Y0086758D01*
X0057325Y0086681D01*
X0057231Y0086608D01*
X0057135Y0086538D01*
X0057037Y0086471D01*
X0056936Y0086408D01*
X0056834Y0086348D01*
X0056729Y0086292D01*
X0056623Y0086239D01*
X0056515Y0086189D01*
X0056405Y0086144D01*
X0056294Y0086102D01*
X0056181Y0086063D01*
X0056068Y0086029D01*
X0055953Y0085998D01*
X0055837Y0085972D01*
X0055721Y0085949D01*
X0055603Y0085930D01*
X0055485Y0085915D01*
X0055367Y0085904D01*
X0055248Y0085897D01*
X0055130Y0085894D01*
X0055011Y0085895D01*
X0054892Y0085900D01*
X0054774Y0085909D01*
X0054656Y0085922D01*
X0054538Y0085939D01*
X0054421Y0085960D01*
X0054305Y0085985D01*
X0054190Y0086013D01*
X0054075Y0086046D01*
X0053962Y0086082D01*
X0053850Y0086122D01*
X0053740Y0086166D01*
X0053631Y0086214D01*
X0053524Y0086265D01*
X0053418Y0086319D01*
X0053315Y0086378D01*
X0053213Y0086439D01*
X0053114Y0086504D01*
X0053017Y0086573D01*
X0052922Y0086644D01*
X0052830Y0086719D01*
X0052740Y0086797D01*
X0052653Y0086878D01*
X0052568Y0086961D01*
X0052487Y0087048D01*
X0052408Y0087137D01*
X0052333Y0087229D01*
X0052260Y0087323D01*
X0052191Y0087419D01*
X0052125Y0087518D01*
X0052063Y0087619D01*
X0052004Y0087722D01*
X0051948Y0087827D01*
X0051896Y0087934D01*
X0051848Y0088043D01*
X0051803Y0088153D01*
X0051762Y0088264D01*
X0051724Y0088377D01*
X0051691Y0088491D01*
X0051661Y0088606D01*
X0051636Y0088722D01*
X0051614Y0088839D01*
X0051596Y0088956D01*
X0051582Y0089074D01*
X0051572Y0089193D01*
X0051566Y0089311D01*
X0051564Y0089430D01*
X0037780Y0079430D02*
X0035280Y0083760D01*
X0034030Y0085925D01*
X0030782Y0084050D01*
X0032032Y0081885D01*
X0017959Y0073760D01*
X0037780Y0079430D02*
X0042780Y0070770D01*
X0045280Y0066440D01*
X0042032Y0064565D01*
X0032032Y0081885D01*
X0027959Y0056440D02*
X0027748Y0056321D01*
X0027535Y0056208D01*
X0027319Y0056100D01*
X0027100Y0055998D01*
X0026879Y0055900D01*
X0026655Y0055808D01*
X0026430Y0055722D01*
X0026202Y0055640D01*
X0025972Y0055565D01*
X0025741Y0055495D01*
X0025508Y0055430D01*
X0025274Y0055372D01*
X0025038Y0055319D01*
X0024801Y0055271D01*
X0024563Y0055229D01*
X0024324Y0055194D01*
X0024084Y0055164D01*
X0023844Y0055139D01*
X0023603Y0055121D01*
X0023362Y0055108D01*
X0023120Y0055101D01*
X0022878Y0055100D01*
X0022637Y0055105D01*
X0022395Y0055116D01*
X0022154Y0055132D01*
X0021914Y0055155D01*
X0021674Y0055183D01*
X0021434Y0055217D01*
X0021196Y0055257D01*
X0020959Y0055302D01*
X0020723Y0055353D01*
X0020488Y0055410D01*
X0020254Y0055473D01*
X0020022Y0055541D01*
X0019792Y0055615D01*
X0019564Y0055694D01*
X0019338Y0055779D01*
X0019114Y0055869D01*
X0018892Y0055965D01*
X0018672Y0056065D01*
X0018455Y0056172D01*
X0018241Y0056283D01*
X0018029Y0056400D01*
X0017820Y0056521D01*
X0017614Y0056648D01*
X0017412Y0056780D01*
X0017212Y0056916D01*
X0017016Y0057057D01*
X0016824Y0057203D01*
X0016635Y0057354D01*
X0016449Y0057509D01*
X0016268Y0057669D01*
X0016090Y0057832D01*
X0015916Y0058001D01*
X0015747Y0058173D01*
X0015582Y0058349D01*
X0015421Y0058529D01*
X0015264Y0058713D01*
X0015112Y0058901D01*
X0014965Y0059093D01*
X0014822Y0059288D01*
X0014684Y0059486D01*
X0014550Y0059687D01*
X0014422Y0059892D01*
X0014299Y0060100D01*
X0014180Y0060311D01*
X0014067Y0060524D01*
X0013959Y0060740D01*
X0013857Y0060959D01*
X0013759Y0061180D01*
X0013667Y0061404D01*
X0013581Y0061629D01*
X0013499Y0061857D01*
X0013424Y0062087D01*
X0013354Y0062318D01*
X0013289Y0062551D01*
X0013231Y0062785D01*
X0013178Y0063021D01*
X0013130Y0063258D01*
X0013088Y0063496D01*
X0013053Y0063735D01*
X0013023Y0063975D01*
X0012998Y0064215D01*
X0012980Y0064456D01*
X0012967Y0064697D01*
X0012960Y0064939D01*
X0012959Y0065181D01*
X0012964Y0065422D01*
X0012975Y0065664D01*
X0012991Y0065905D01*
X0013014Y0066145D01*
X0013042Y0066385D01*
X0013076Y0066625D01*
X0013116Y0066863D01*
X0013161Y0067100D01*
X0013212Y0067336D01*
X0013269Y0067571D01*
X0013332Y0067805D01*
X0013400Y0068037D01*
X0013474Y0068267D01*
X0013553Y0068495D01*
X0013638Y0068721D01*
X0013728Y0068945D01*
X0013824Y0069167D01*
X0013924Y0069387D01*
X0014031Y0069604D01*
X0014142Y0069818D01*
X0014259Y0070030D01*
X0014380Y0070239D01*
X0014507Y0070445D01*
X0014639Y0070647D01*
X0014775Y0070847D01*
X0014916Y0071043D01*
X0015062Y0071235D01*
X0015213Y0071424D01*
X0015368Y0071610D01*
X0015528Y0071791D01*
X0015691Y0071969D01*
X0015860Y0072143D01*
X0016032Y0072312D01*
X0016208Y0072477D01*
X0016388Y0072638D01*
X0016572Y0072795D01*
X0016760Y0072947D01*
X0016952Y0073094D01*
X0017147Y0073237D01*
X0017345Y0073375D01*
X0017546Y0073509D01*
X0017751Y0073637D01*
X0017959Y0073760D01*
X0027959Y0056440D02*
X0042032Y0064565D01*
D13*
X0061659Y0073469D02*
X0062426Y0072140D01*
X0063475Y0071859D01*
X0066133Y0073394D01*
X0066414Y0074442D01*
X0065646Y0075771D01*
X0064598Y0076052D01*
X0061940Y0074518D02*
X0061659Y0073469D01*
X0051560Y0090961D02*
X0050025Y0093619D01*
X0052786Y0093441D02*
X0053554Y0092112D01*
X0055547Y0093263D02*
X0051560Y0090961D01*
X0055547Y0093263D02*
X0054013Y0095921D01*
X0153935Y0061872D02*
X0157004Y0061872D01*
X0157004Y0057269D01*
X0153935Y0057269D01*
X0155469Y0059570D02*
X0157004Y0059570D01*
X0176435Y0058036D02*
X0177202Y0057269D01*
X0178737Y0057269D01*
X0179504Y0058036D01*
X0179504Y0061105D01*
X0178737Y0061872D01*
X0177202Y0061872D01*
X0176435Y0061105D01*
X0265022Y0076582D02*
X0266557Y0079241D01*
X0270544Y0076939D01*
X0269009Y0074280D01*
X0267783Y0076761D02*
X0268550Y0078090D01*
X0279595Y0094150D02*
X0280643Y0094431D01*
X0281410Y0095760D01*
X0281129Y0096808D01*
X0278471Y0098342D01*
X0277423Y0098062D01*
X0276656Y0096733D01*
X0276937Y0095684D01*
D14*
X0298958Y0084573D02*
X0300610Y0087433D01*
X0301013Y0085929D01*
X0302846Y0086142D02*
X0304753Y0085041D01*
X0303799Y0085592D02*
X0302148Y0082731D01*
X0299912Y0084022D02*
X0298005Y0085123D01*
X0288883Y0060208D02*
X0288131Y0060007D01*
X0287856Y0059530D01*
X0288057Y0058778D01*
X0289487Y0057953D01*
X0290495Y0056735D02*
X0291247Y0056937D01*
X0292677Y0056111D01*
X0292127Y0055158D01*
X0291375Y0054956D01*
X0290421Y0055507D01*
X0290220Y0056258D01*
X0290495Y0056735D01*
X0288662Y0056522D02*
X0287231Y0057348D01*
X0287030Y0058100D01*
X0287305Y0058577D01*
X0288057Y0058778D01*
X0288883Y0060208D02*
X0290313Y0059383D01*
X0288662Y0056522D01*
X0291596Y0058642D02*
X0292274Y0057615D01*
X0292677Y0056111D01*
X0293960Y0055370D02*
X0295390Y0054545D01*
X0296142Y0054746D01*
X0296417Y0055223D01*
X0296216Y0055975D01*
X0295262Y0056525D01*
X0294510Y0056324D01*
X0293409Y0054417D01*
X0293611Y0053665D01*
X0294564Y0053115D01*
X0295316Y0053316D01*
X0296324Y0052099D02*
X0297975Y0054959D01*
X0299882Y0053858D02*
X0298231Y0050998D01*
X0297828Y0052502D01*
X0296324Y0052099D01*
X0300339Y0051687D02*
X0300541Y0050935D01*
X0301971Y0050110D01*
X0301420Y0049156D02*
X0303072Y0052016D01*
X0301642Y0052842D01*
X0300890Y0052641D01*
X0300339Y0051687D01*
X0303254Y0049369D02*
X0302978Y0048892D01*
X0303180Y0048140D01*
X0304610Y0047315D01*
X0306262Y0050175D01*
X0304831Y0051001D01*
X0304079Y0050799D01*
X0303804Y0050322D01*
X0304006Y0049570D01*
X0305436Y0048745D01*
X0304006Y0049570D02*
X0303254Y0049369D01*
X0180003Y0035253D02*
X0180003Y0034152D01*
X0179452Y0033602D01*
X0180003Y0032120D02*
X0180003Y0029919D01*
X0180003Y0031019D02*
X0176700Y0031019D01*
X0176700Y0033602D02*
X0178902Y0035804D01*
X0179452Y0035804D01*
X0180003Y0035253D01*
X0176700Y0035804D02*
X0176700Y0033602D01*
X0152253Y0032887D02*
X0152253Y0031235D01*
X0148950Y0031235D01*
X0148950Y0032887D01*
X0149500Y0033437D01*
X0150051Y0033437D01*
X0150601Y0032887D01*
X0150601Y0031235D01*
X0150051Y0029754D02*
X0150601Y0029204D01*
X0150601Y0027552D01*
X0149500Y0027552D01*
X0148950Y0028103D01*
X0148950Y0029204D01*
X0149500Y0029754D01*
X0150051Y0029754D01*
X0151702Y0028653D02*
X0150601Y0027552D01*
X0150601Y0026071D02*
X0150601Y0024420D01*
X0151152Y0023869D01*
X0151702Y0023869D01*
X0152253Y0024420D01*
X0152253Y0025520D01*
X0151702Y0026071D01*
X0149500Y0026071D01*
X0148950Y0025520D01*
X0148950Y0024420D01*
X0149500Y0023869D01*
X0148950Y0022388D02*
X0152253Y0022388D01*
X0150051Y0021287D02*
X0148950Y0022388D01*
X0150051Y0021287D02*
X0148950Y0020186D01*
X0152253Y0020186D01*
X0151702Y0018705D02*
X0150601Y0018705D01*
X0150051Y0018154D01*
X0150051Y0016503D01*
X0148950Y0016503D02*
X0152253Y0016503D01*
X0152253Y0018154D01*
X0151702Y0018705D01*
X0151702Y0015021D02*
X0151152Y0015021D01*
X0150601Y0014471D01*
X0150601Y0012820D01*
X0148950Y0012820D02*
X0148950Y0014471D01*
X0149500Y0015021D01*
X0150051Y0015021D01*
X0150601Y0014471D01*
X0151702Y0015021D02*
X0152253Y0014471D01*
X0152253Y0012820D01*
X0148950Y0012820D01*
X0151702Y0028653D02*
X0152253Y0029754D01*
X0152253Y0032887D02*
X0151702Y0033437D01*
X0151152Y0033437D01*
X0150601Y0032887D01*
X0044548Y0058647D02*
X0042896Y0061507D01*
X0041943Y0060957D02*
X0043850Y0062057D01*
X0040935Y0059739D02*
X0040183Y0059941D01*
X0039230Y0059390D01*
X0039029Y0058638D01*
X0039304Y0058161D01*
X0040056Y0057960D01*
X0039854Y0057208D01*
X0040130Y0056731D01*
X0040881Y0056530D01*
X0041835Y0057080D01*
X0042036Y0057832D01*
X0040532Y0058235D02*
X0040056Y0057960D01*
X0012423Y0074770D02*
X0010993Y0073945D01*
X0010241Y0074146D01*
X0009966Y0074623D01*
X0010168Y0075375D01*
X0011598Y0076200D01*
X0013156Y0076464D02*
X0013357Y0077216D01*
X0014787Y0078042D01*
X0015338Y0077089D01*
X0015136Y0076337D01*
X0014183Y0075786D01*
X0013431Y0075988D01*
X0013156Y0076464D01*
X0012423Y0074770D02*
X0010772Y0077631D01*
X0009342Y0076805D01*
X0009140Y0076053D01*
X0009416Y0075576D01*
X0010168Y0075375D01*
X0013284Y0078445D02*
X0014787Y0078042D01*
X0016070Y0078783D02*
X0017500Y0079608D01*
X0017702Y0080360D01*
X0017427Y0080837D01*
X0016675Y0081038D01*
X0015721Y0080488D01*
X0015520Y0079736D01*
X0016621Y0077829D01*
X0017373Y0077628D01*
X0018326Y0078178D01*
X0018528Y0078930D01*
X0020086Y0079194D02*
X0018434Y0082054D01*
X0020341Y0083155D02*
X0021993Y0080295D01*
X0020489Y0080698D01*
X0020086Y0079194D01*
X0013284Y0078445D02*
X0012055Y0078371D01*
X0021899Y0083419D02*
X0022450Y0082466D01*
X0023202Y0082264D01*
X0024632Y0083090D01*
X0025182Y0082137D02*
X0023531Y0084997D01*
X0022101Y0084171D01*
X0021899Y0083419D01*
X0025089Y0085261D02*
X0025364Y0084784D01*
X0026116Y0084583D01*
X0027546Y0085408D01*
X0026116Y0084583D02*
X0025915Y0083831D01*
X0026190Y0083354D01*
X0026942Y0083152D01*
X0028372Y0083978D01*
X0026720Y0086838D01*
X0025290Y0086013D01*
X0025089Y0085261D01*
M02*
